0
SECTION
2
HEADER
9
$INSUNITS
70
4
0
ENDSEC
0
SECTION
2
TABLES
0
TABLE
2
LTYPE
0
LTYPE
72
65
70
64
2
CONTINUOUS
3
______
73
0
40
0
0
ENDTAB
0
TABLE
2
LAYER
0
ENDTAB
0
ENDSEC
0
SECTION
2
ENTITIES
0
ARC
8
0
10
388.7875
20
-39.8375
40
0.5
50
180
51
270
0
ARC
8
0
10
401.7875
20
-39.8375
40
0.5
50
270
51
0
0
ARC
8
0
10
401.7875
20
-26.8375
40
0.5
50
0
51
90
0
ARC
8
0
10
388.7875
20
-26.8375
40
0.5
50
90
51
180
0
LINE
8
0
10
388.7875
20
-40.3375
11
401.7875
21
-40.3375
0
LINE
8
0
10
401.7875
20
-26.3375
11
388.7875
21
-26.3375
0
LINE
8
0
10
402.2875
20
-39.8375
11
402.2875
21
-26.8375
0
LINE
8
0
10
388.2875
20
-26.8375
11
388.2875
21
-39.8375
0
ARC
8
0
10
412.6
20
-39.8375
40
0.5
50
180
51
270
0
ARC
8
0
10
425.6
20
-39.8375
40
0.5
50
270
51
0
0
ARC
8
0
10
425.6
20
-26.8375
40
0.5
50
0
51
90
0
ARC
8
0
10
412.6
20
-26.8375
40
0.5
50
90
51
180
0
LINE
8
0
10
412.6
20
-40.3375
11
425.6
21
-40.3375
0
LINE
8
0
10
425.6
20
-26.3375
11
412.6
21
-26.3375
0
LINE
8
0
10
426.1
20
-39.8375
11
426.1
21
-26.8375
0
LINE
8
0
10
412.1
20
-26.8375
11
412.1
21
-39.8375
0
ARC
8
0
10
231.625
20
-44.6
40
0.5
50
180
51
270
0
ARC
8
0
10
244.625
20
-44.6
40
0.5
50
270
51
0
0
ARC
8
0
10
244.625
20
-31.6
40
0.5
50
0
51
90
0
ARC
8
0
10
231.625
20
-31.6
40
0.5
50
90
51
180
0
LINE
8
0
10
231.625
20
-45.1
11
244.625
21
-45.1
0
LINE
8
0
10
244.625
20
-31.1
11
231.625
21
-31.1
0
LINE
8
0
10
245.125
20
-44.6
11
245.125
21
-31.6
0
LINE
8
0
10
231.125
20
-31.6
11
231.125
21
-44.6
0
ARC
8
0
10
250.675
20
-44.6
40
0.5
50
180
51
270
0
ARC
8
0
10
263.675
20
-44.6
40
0.5
50
270
51
0
0
ARC
8
0
10
263.675
20
-31.6
40
0.5
50
0
51
90
0
ARC
8
0
10
250.675
20
-31.6
40
0.5
50
90
51
180
0
LINE
8
0
10
250.675
20
-45.1
11
263.675
21
-45.1
0
LINE
8
0
10
263.675
20
-31.1
11
250.675
21
-31.1
0
LINE
8
0
10
264.175
20
-44.6
11
264.175
21
-31.6
0
LINE
8
0
10
250.175
20
-31.6
11
250.175
21
-44.6
0
ARC
8
0
10
269.725
20
-44.6
40
0.5
50
180
51
270
0
ARC
8
0
10
282.725
20
-44.6
40
0.5
50
270
51
0
0
ARC
8
0
10
282.725
20
-31.6
40
0.5
50
0
51
90
0
ARC
8
0
10
269.725
20
-31.6
40
0.5
50
90
51
180
0
LINE
8
0
10
269.725
20
-45.1
11
282.725
21
-45.1
0
LINE
8
0
10
282.725
20
-31.1
11
269.725
21
-31.1
0
LINE
8
0
10
283.225
20
-44.6
11
283.225
21
-31.6
0
LINE
8
0
10
269.225
20
-31.6
11
269.225
21
-44.6
0
ARC
8
0
10
288.775
20
-44.6
40
0.5
50
180
51
270
0
ARC
8
0
10
301.775
20
-44.6
40
0.5
50
270
51
0
0
ARC
8
0
10
301.775
20
-31.6
40
0.5
50
0
51
90
0
ARC
8
0
10
288.775
20
-31.6
40
0.5
50
90
51
180
0
LINE
8
0
10
288.775
20
-45.1
11
301.775
21
-45.1
0
LINE
8
0
10
301.775
20
-31.1
11
288.775
21
-31.1
0
LINE
8
0
10
302.275
20
-44.6
11
302.275
21
-31.6
0
LINE
8
0
10
288.275
20
-31.6
11
288.275
21
-44.6
0
ARC
8
0
10
307.825
20
-44.6
40
0.5
50
180
51
270
0
ARC
8
0
10
320.825
20
-44.6
40
0.5
50
270
51
0
0
ARC
8
0
10
320.825
20
-31.6
40
0.5
50
0
51
90
0
ARC
8
0
10
307.825
20
-31.6
40
0.5
50
90
51
180
0
LINE
8
0
10
307.825
20
-45.1
11
320.825
21
-45.1
0
LINE
8
0
10
320.825
20
-31.1
11
307.825
21
-31.1
0
LINE
8
0
10
321.325
20
-44.6
11
321.325
21
-31.6
0
LINE
8
0
10
307.325
20
-31.6
11
307.325
21
-44.6
0
ARC
8
0
10
326.875
20
-44.6
40
0.5
50
180
51
270
0
ARC
8
0
10
339.875
20
-44.6
40
0.5
50
270
51
0
0
ARC
8
0
10
339.875
20
-31.6
40
0.5
50
0
51
90
0
ARC
8
0
10
326.875
20
-31.6
40
0.5
50
90
51
180
0
LINE
8
0
10
326.875
20
-45.1
11
339.875
21
-45.1
0
LINE
8
0
10
339.875
20
-31.1
11
326.875
21
-31.1
0
LINE
8
0
10
340.375
20
-44.6
11
340.375
21
-31.6
0
LINE
8
0
10
326.375
20
-31.6
11
326.375
21
-44.6
0
ARC
8
0
10
355.45
20
-44.6
40
0.5
50
180
51
270
0
ARC
8
0
10
368.45
20
-44.6
40
0.5
50
270
51
0
0
ARC
8
0
10
368.45
20
-31.6
40
0.5
50
0
51
90
0
ARC
8
0
10
355.45
20
-31.6
40
0.5
50
90
51
180
0
LINE
8
0
10
355.45
20
-45.1
11
368.45
21
-45.1
0
LINE
8
0
10
368.45
20
-31.1
11
355.45
21
-31.1
0
LINE
8
0
10
368.95
20
-44.6
11
368.95
21
-31.6
0
LINE
8
0
10
354.95
20
-31.6
11
354.95
21
-44.6
0
ARC
8
0
10
347.012
20
-45.6
40
0.5
50
180
51
270
0
ARC
8
0
10
353.012
20
-45.6
40
0.5
50
270
51
0
0
ARC
8
0
10
353.012
20
-31.6
40
0.5
50
0
51
90
0
ARC
8
0
10
347.012
20
-31.6
40
0.5
50
90
51
180
0
LINE
8
0
10
347.012
20
-46.1
11
353.012
21
-46.1
0
LINE
8
0
10
353.012
20
-31.1
11
347.012
21
-31.1
0
LINE
8
0
10
353.512
20
-45.6
11
353.512
21
-31.6
0
LINE
8
0
10
346.512
20
-31.6
11
346.512
21
-45.6
0
ARC
8
0
10
370.888
20
-45.6
40
0.5
50
180
51
270
0
ARC
8
0
10
376.888
20
-45.6
40
0.5
50
270
51
0
0
ARC
8
0
10
376.888
20
-31.6
40
0.5
50
0
51
90
0
ARC
8
0
10
370.888
20
-31.6
40
0.5
50
90
51
180
0
LINE
8
0
10
370.888
20
-46.1
11
376.888
21
-46.1
0
LINE
8
0
10
376.888
20
-31.1
11
370.888
21
-31.1
0
LINE
8
0
10
377.388
20
-45.6
11
377.388
21
-31.6
0
LINE
8
0
10
370.388
20
-31.6
11
370.388
21
-45.6
0
ARC
8
0
10
345.925
20
-44.6
40
0.5
50
180
51
270
0
ARC
8
0
10
358.925
20
-44.6
40
0.5
50
270
51
0
0
ARC
8
0
10
358.925
20
-31.6
40
0.5
50
0
51
90
0
ARC
8
0
10
345.925
20
-31.6
40
0.5
50
90
51
180
0
LINE
8
0
10
345.925
20
-45.1
11
358.925
21
-45.1
0
LINE
8
0
10
358.925
20
-31.1
11
345.925
21
-31.1
0
LINE
8
0
10
359.425
20
-44.6
11
359.425
21
-31.6
0
LINE
8
0
10
345.425
20
-31.6
11
345.425
21
-44.6
0
ARC
8
0
10
364.975
20
-44.6
40
0.5
50
180
51
270
0
ARC
8
0
10
377.975
20
-44.6
40
0.5
50
270
51
0
0
ARC
8
0
10
377.975
20
-31.6
40
0.5
50
0
51
90
0
ARC
8
0
10
364.975
20
-31.6
40
0.5
50
90
51
180
0
LINE
8
0
10
364.975
20
-45.1
11
377.975
21
-45.1
0
LINE
8
0
10
377.975
20
-31.1
11
364.975
21
-31.1
0
LINE
8
0
10
378.475
20
-44.6
11
378.475
21
-31.6
0
LINE
8
0
10
364.475
20
-31.6
11
364.475
21
-44.6
0
ARC
8
0
10
222.1
20
-63.65
40
0.5
50
180
51
270
0
ARC
8
0
10
235.1
20
-63.65
40
0.5
50
270
51
0
0
ARC
8
0
10
235.1
20
-50.65
40
0.5
50
0
51
90
0
ARC
8
0
10
222.1
20
-50.65
40
0.5
50
90
51
180
0
LINE
8
0
10
222.1
20
-64.15
11
235.1
21
-64.15
0
LINE
8
0
10
235.1
20
-50.15
11
222.1
21
-50.15
0
LINE
8
0
10
235.6
20
-63.65
11
235.6
21
-50.65
0
LINE
8
0
10
221.6
20
-50.65
11
221.6
21
-63.65
0
ARC
8
0
10
241.15
20
-63.65
40
0.5
50
180
51
270
0
ARC
8
0
10
254.15
20
-63.65
40
0.5
50
270
51
0
0
ARC
8
0
10
254.15
20
-50.65
40
0.5
50
0
51
90
0
ARC
8
0
10
241.15
20
-50.65
40
0.5
50
90
51
180
0
LINE
8
0
10
241.15
20
-64.15
11
254.15
21
-64.15
0
LINE
8
0
10
254.15
20
-50.15
11
241.15
21
-50.15
0
LINE
8
0
10
254.65
20
-63.65
11
254.65
21
-50.65
0
LINE
8
0
10
240.65
20
-50.65
11
240.65
21
-63.65
0
ARC
8
0
10
260.2
20
-63.65
40
0.5
50
180
51
270
0
ARC
8
0
10
273.2
20
-63.65
40
0.5
50
270
51
0
0
ARC
8
0
10
273.2
20
-50.65
40
0.5
50
0
51
90
0
ARC
8
0
10
260.2
20
-50.65
40
0.5
50
90
51
180
0
LINE
8
0
10
260.2
20
-64.15
11
273.2
21
-64.15
0
LINE
8
0
10
273.2
20
-50.15
11
260.2
21
-50.15
0
LINE
8
0
10
273.7
20
-63.65
11
273.7
21
-50.65
0
LINE
8
0
10
259.7
20
-50.65
11
259.7
21
-63.65
0
ARC
8
0
10
279.25
20
-63.65
40
0.5
50
180
51
270
0
ARC
8
0
10
292.25
20
-63.65
40
0.5
50
270
51
0
0
ARC
8
0
10
292.25
20
-50.65
40
0.5
50
0
51
90
0
ARC
8
0
10
279.25
20
-50.65
40
0.5
50
90
51
180
0
LINE
8
0
10
279.25
20
-64.15
11
292.25
21
-64.15
0
LINE
8
0
10
292.25
20
-50.15
11
279.25
21
-50.15
0
LINE
8
0
10
292.75
20
-63.65
11
292.75
21
-50.65
0
LINE
8
0
10
278.75
20
-50.65
11
278.75
21
-63.65
0
ARC
8
0
10
298.3
20
-63.65
40
0.5
50
180
51
270
0
ARC
8
0
10
311.3
20
-63.65
40
0.5
50
270
51
0
0
ARC
8
0
10
311.3
20
-50.65
40
0.5
50
0
51
90
0
ARC
8
0
10
298.3
20
-50.65
40
0.5
50
90
51
180
0
LINE
8
0
10
298.3
20
-64.15
11
311.3
21
-64.15
0
LINE
8
0
10
311.3
20
-50.15
11
298.3
21
-50.15
0
LINE
8
0
10
311.8
20
-63.65
11
311.8
21
-50.65
0
LINE
8
0
10
297.8
20
-50.65
11
297.8
21
-63.65
0
ARC
8
0
10
317.35
20
-63.65
40
0.5
50
180
51
270
0
ARC
8
0
10
330.35
20
-63.65
40
0.5
50
270
51
0
0
ARC
8
0
10
330.35
20
-50.65
40
0.5
50
0
51
90
0
ARC
8
0
10
317.35
20
-50.65
40
0.5
50
90
51
180
0
LINE
8
0
10
317.35
20
-64.15
11
330.35
21
-64.15
0
LINE
8
0
10
330.35
20
-50.15
11
317.35
21
-50.15
0
LINE
8
0
10
330.85
20
-63.65
11
330.85
21
-50.65
0
LINE
8
0
10
316.85
20
-50.65
11
316.85
21
-63.65
0
ARC
8
0
10
336.4
20
-63.65
40
0.5
50
180
51
270
0
ARC
8
0
10
349.4
20
-63.65
40
0.5
50
270
51
0
0
ARC
8
0
10
349.4
20
-50.65
40
0.5
50
0
51
90
0
ARC
8
0
10
336.4
20
-50.65
40
0.5
50
90
51
180
0
LINE
8
0
10
336.4
20
-64.15
11
349.4
21
-64.15
0
LINE
8
0
10
349.4
20
-50.15
11
336.4
21
-50.15
0
LINE
8
0
10
349.9
20
-63.65
11
349.9
21
-50.65
0
LINE
8
0
10
335.9
20
-50.65
11
335.9
21
-63.65
0
ARC
8
0
10
360.2125
20
-63.65
40
0.5
50
180
51
270
0
ARC
8
0
10
373.2125
20
-63.65
40
0.5
50
270
51
0
0
ARC
8
0
10
373.2125
20
-50.65
40
0.5
50
0
51
90
0
ARC
8
0
10
360.2125
20
-50.65
40
0.5
50
90
51
180
0
LINE
8
0
10
360.2125
20
-64.15
11
373.2125
21
-64.15
0
LINE
8
0
10
373.2125
20
-50.15
11
360.2125
21
-50.15
0
LINE
8
0
10
373.7125
20
-63.65
11
373.7125
21
-50.65
0
LINE
8
0
10
359.7125
20
-50.65
11
359.7125
21
-63.65
0
ARC
8
0
10
354.6125
20
-63.65
40
0.5
50
180
51
270
0
ARC
8
0
10
355.6125
20
-63.65
40
0.5
50
270
51
0
0
ARC
8
0
10
355.6125
20
-50.65
40
0.5
50
0
51
90
0
ARC
8
0
10
354.6125
20
-50.65
40
0.5
50
90
51
180
0
LINE
8
0
10
354.6125
20
-64.15
11
355.6125
21
-64.15
0
LINE
8
0
10
355.6125
20
-50.15
11
354.6125
21
-50.15
0
LINE
8
0
10
356.1125
20
-63.65
11
356.1125
21
-50.65
0
LINE
8
0
10
354.1125
20
-50.65
11
354.1125
21
-63.65
0
ARC
8
0
10
377.8125
20
-63.65
40
0.5
50
180
51
270
0
ARC
8
0
10
378.8125
20
-63.65
40
0.5
50
270
51
0
0
ARC
8
0
10
378.8125
20
-50.65
40
0.5
50
0
51
90
0
ARC
8
0
10
377.8125
20
-50.65
40
0.5
50
90
51
180
0
LINE
8
0
10
377.8125
20
-64.15
11
378.8125
21
-64.15
0
LINE
8
0
10
378.8125
20
-50.15
11
377.8125
21
-50.15
0
LINE
8
0
10
379.3125
20
-63.65
11
379.3125
21
-50.65
0
LINE
8
0
10
377.3125
20
-50.65
11
377.3125
21
-63.65
0
ARC
8
0
10
388.7875
20
-63.65
40
0.5
50
180
51
270
0
ARC
8
0
10
401.7875
20
-63.65
40
0.5
50
270
51
0
0
ARC
8
0
10
401.7875
20
-50.65
40
0.5
50
0
51
90
0
ARC
8
0
10
388.7875
20
-50.65
40
0.5
50
90
51
180
0
LINE
8
0
10
388.7875
20
-64.15
11
401.7875
21
-64.15
0
LINE
8
0
10
401.7875
20
-50.15
11
388.7875
21
-50.15
0
LINE
8
0
10
402.2875
20
-63.65
11
402.2875
21
-50.65
0
LINE
8
0
10
388.2875
20
-50.65
11
388.2875
21
-63.65
0
ARC
8
0
10
407.8375
20
-63.65
40
0.5
50
180
51
270
0
ARC
8
0
10
420.8375
20
-63.65
40
0.5
50
270
51
0
0
ARC
8
0
10
420.8375
20
-50.65
40
0.5
50
0
51
90
0
ARC
8
0
10
407.8375
20
-50.65
40
0.5
50
90
51
180
0
LINE
8
0
10
407.8375
20
-64.15
11
420.8375
21
-64.15
0
LINE
8
0
10
420.8375
20
-50.15
11
407.8375
21
-50.15
0
LINE
8
0
10
421.3375
20
-63.65
11
421.3375
21
-50.65
0
LINE
8
0
10
407.3375
20
-50.65
11
407.3375
21
-63.65
0
ARC
8
0
10
226.8625
20
-82.7
40
0.5
50
180
51
270
0
ARC
8
0
10
239.8625
20
-82.7
40
0.5
50
270
51
0
0
ARC
8
0
10
239.8625
20
-69.7
40
0.5
50
0
51
90
0
ARC
8
0
10
226.8625
20
-69.7
40
0.5
50
90
51
180
0
LINE
8
0
10
226.8625
20
-83.2
11
239.8625
21
-83.2
0
LINE
8
0
10
239.8625
20
-69.2
11
226.8625
21
-69.2
0
LINE
8
0
10
240.3625
20
-82.7
11
240.3625
21
-69.7
0
LINE
8
0
10
226.3625
20
-69.7
11
226.3625
21
-82.7
0
ARC
8
0
10
245.9125
20
-82.7
40
0.5
50
180
51
270
0
ARC
8
0
10
258.9125
20
-82.7
40
0.5
50
270
51
0
0
ARC
8
0
10
258.9125
20
-69.7
40
0.5
50
0
51
90
0
ARC
8
0
10
245.9125
20
-69.7
40
0.5
50
90
51
180
0
LINE
8
0
10
245.9125
20
-83.2
11
258.9125
21
-83.2
0
LINE
8
0
10
258.9125
20
-69.2
11
245.9125
21
-69.2
0
LINE
8
0
10
259.4125
20
-82.7
11
259.4125
21
-69.7
0
LINE
8
0
10
245.4125
20
-69.7
11
245.4125
21
-82.7
0
ARC
8
0
10
264.9625
20
-82.7
40
0.5
50
180
51
270
0
ARC
8
0
10
277.9625
20
-82.7
40
0.5
50
270
51
0
0
ARC
8
0
10
277.9625
20
-69.7
40
0.5
50
0
51
90
0
ARC
8
0
10
264.9625
20
-69.7
40
0.5
50
90
51
180
0
LINE
8
0
10
264.9625
20
-83.2
11
277.9625
21
-83.2
0
LINE
8
0
10
277.9625
20
-69.2
11
264.9625
21
-69.2
0
LINE
8
0
10
278.4625
20
-82.7
11
278.4625
21
-69.7
0
LINE
8
0
10
264.4625
20
-69.7
11
264.4625
21
-82.7
0
ARC
8
0
10
284.0125
20
-82.7
40
0.5
50
180
51
270
0
ARC
8
0
10
297.0125
20
-82.7
40
0.5
50
270
51
0
0
ARC
8
0
10
297.0125
20
-69.7
40
0.5
50
0
51
90
0
ARC
8
0
10
284.0125
20
-69.7
40
0.5
50
90
51
180
0
LINE
8
0
10
284.0125
20
-83.2
11
297.0125
21
-83.2
0
LINE
8
0
10
297.0125
20
-69.2
11
284.0125
21
-69.2
0
LINE
8
0
10
297.5125
20
-82.7
11
297.5125
21
-69.7
0
LINE
8
0
10
283.5125
20
-69.7
11
283.5125
21
-82.7
0
ARC
8
0
10
303.0625
20
-82.7
40
0.5
50
180
51
270
0
ARC
8
0
10
316.0625
20
-82.7
40
0.5
50
270
51
0
0
ARC
8
0
10
316.0625
20
-69.7
40
0.5
50
0
51
90
0
ARC
8
0
10
303.0625
20
-69.7
40
0.5
50
90
51
180
0
LINE
8
0
10
303.0625
20
-83.2
11
316.0625
21
-83.2
0
LINE
8
0
10
316.0625
20
-69.2
11
303.0625
21
-69.2
0
LINE
8
0
10
316.5625
20
-82.7
11
316.5625
21
-69.7
0
LINE
8
0
10
302.5625
20
-69.7
11
302.5625
21
-82.7
0
ARC
8
0
10
322.1125
20
-82.7
40
0.5
50
180
51
270
0
ARC
8
0
10
335.1125
20
-82.7
40
0.5
50
270
51
0
0
ARC
8
0
10
335.1125
20
-69.7
40
0.5
50
0
51
90
0
ARC
8
0
10
322.1125
20
-69.7
40
0.5
50
90
51
180
0
LINE
8
0
10
322.1125
20
-83.2
11
335.1125
21
-83.2
0
LINE
8
0
10
335.1125
20
-69.2
11
322.1125
21
-69.2
0
LINE
8
0
10
335.6125
20
-82.7
11
335.6125
21
-69.7
0
LINE
8
0
10
321.6125
20
-69.7
11
321.6125
21
-82.7
0
ARC
8
0
10
353.06875
20
-82.7
40
0.5
50
180
51
270
0
ARC
8
0
10
366.06875
20
-82.7
40
0.5
50
270
51
0
0
ARC
8
0
10
366.06875
20
-69.7
40
0.5
50
0
51
90
0
ARC
8
0
10
353.06875
20
-69.7
40
0.5
50
90
51
180
0
LINE
8
0
10
353.06875
20
-83.2
11
366.06875
21
-83.2
0
LINE
8
0
10
366.06875
20
-69.2
11
353.06875
21
-69.2
0
LINE
8
0
10
366.56875
20
-82.7
11
366.56875
21
-69.7
0
LINE
8
0
10
352.56875
20
-69.7
11
352.56875
21
-82.7
0
ARC
8
0
10
344.63075
20
-83.7
40
0.5
50
180
51
270
0
ARC
8
0
10
350.63075
20
-83.7
40
0.5
50
270
51
0
0
ARC
8
0
10
350.63075
20
-69.7
40
0.5
50
0
51
90
0
ARC
8
0
10
344.63075
20
-69.7
40
0.5
50
90
51
180
0
LINE
8
0
10
344.63075
20
-84.2
11
350.63075
21
-84.2
0
LINE
8
0
10
350.63075
20
-69.2
11
344.63075
21
-69.2
0
LINE
8
0
10
351.13075
20
-83.7
11
351.13075
21
-69.7
0
LINE
8
0
10
344.13075
20
-69.7
11
344.13075
21
-83.7
0
ARC
8
0
10
368.50675
20
-83.7
40
0.5
50
180
51
270
0
ARC
8
0
10
374.50675
20
-83.7
40
0.5
50
270
51
0
0
ARC
8
0
10
374.50675
20
-69.7
40
0.5
50
0
51
90
0
ARC
8
0
10
368.50675
20
-69.7
40
0.5
50
90
51
180
0
LINE
8
0
10
368.50675
20
-84.2
11
374.50675
21
-84.2
0
LINE
8
0
10
374.50675
20
-69.2
11
368.50675
21
-69.2
0
LINE
8
0
10
375.00675
20
-83.7
11
375.00675
21
-69.7
0
LINE
8
0
10
368.00675
20
-69.7
11
368.00675
21
-83.7
0
ARC
8
0
10
388.7875
20
-82.7
40
0.5
50
180
51
270
0
ARC
8
0
10
401.7875
20
-82.7
40
0.5
50
270
51
0
0
ARC
8
0
10
401.7875
20
-69.7
40
0.5
50
0
51
90
0
ARC
8
0
10
388.7875
20
-69.7
40
0.5
50
90
51
180
0
LINE
8
0
10
388.7875
20
-83.2
11
401.7875
21
-83.2
0
LINE
8
0
10
401.7875
20
-69.2
11
388.7875
21
-69.2
0
LINE
8
0
10
402.2875
20
-82.7
11
402.2875
21
-69.7
0
LINE
8
0
10
388.2875
20
-69.7
11
388.2875
21
-82.7
0
ARC
8
0
10
407.8375
20
-82.7
40
0.5
50
180
51
270
0
ARC
8
0
10
420.8375
20
-82.7
40
0.5
50
270
51
0
0
ARC
8
0
10
420.8375
20
-69.7
40
0.5
50
0
51
90
0
ARC
8
0
10
407.8375
20
-69.7
40
0.5
50
90
51
180
0
LINE
8
0
10
407.8375
20
-83.2
11
420.8375
21
-83.2
0
LINE
8
0
10
420.8375
20
-69.2
11
407.8375
21
-69.2
0
LINE
8
0
10
421.3375
20
-82.7
11
421.3375
21
-69.7
0
LINE
8
0
10
407.3375
20
-69.7
11
407.3375
21
-82.7
0
ARC
8
0
10
236.3875
20
-101.75
40
0.5
50
180
51
270
0
ARC
8
0
10
249.3875
20
-101.75
40
0.5
50
270
51
0
0
ARC
8
0
10
249.3875
20
-88.75
40
0.5
50
0
51
90
0
ARC
8
0
10
236.3875
20
-88.75
40
0.5
50
90
51
180
0
LINE
8
0
10
236.3875
20
-102.25
11
249.3875
21
-102.25
0
LINE
8
0
10
249.3875
20
-88.25
11
236.3875
21
-88.25
0
LINE
8
0
10
249.8875
20
-101.75
11
249.8875
21
-88.75
0
LINE
8
0
10
235.8875
20
-88.75
11
235.8875
21
-101.75
0
ARC
8
0
10
255.4375
20
-101.75
40
0.5
50
180
51
270
0
ARC
8
0
10
268.4375
20
-101.75
40
0.5
50
270
51
0
0
ARC
8
0
10
268.4375
20
-88.75
40
0.5
50
0
51
90
0
ARC
8
0
10
255.4375
20
-88.75
40
0.5
50
90
51
180
0
LINE
8
0
10
255.4375
20
-102.25
11
268.4375
21
-102.25
0
LINE
8
0
10
268.4375
20
-88.25
11
255.4375
21
-88.25
0
LINE
8
0
10
268.9375
20
-101.75
11
268.9375
21
-88.75
0
LINE
8
0
10
254.9375
20
-88.75
11
254.9375
21
-101.75
0
ARC
8
0
10
274.4875
20
-101.75
40
0.5
50
180
51
270
0
ARC
8
0
10
287.4875
20
-101.75
40
0.5
50
270
51
0
0
ARC
8
0
10
287.4875
20
-88.75
40
0.5
50
0
51
90
0
ARC
8
0
10
274.4875
20
-88.75
40
0.5
50
90
51
180
0
LINE
8
0
10
274.4875
20
-102.25
11
287.4875
21
-102.25
0
LINE
8
0
10
287.4875
20
-88.25
11
274.4875
21
-88.25
0
LINE
8
0
10
287.9875
20
-101.75
11
287.9875
21
-88.75
0
LINE
8
0
10
273.9875
20
-88.75
11
273.9875
21
-101.75
0
ARC
8
0
10
293.5375
20
-101.75
40
0.5
50
180
51
270
0
ARC
8
0
10
306.5375
20
-101.75
40
0.5
50
270
51
0
0
ARC
8
0
10
306.5375
20
-88.75
40
0.5
50
0
51
90
0
ARC
8
0
10
293.5375
20
-88.75
40
0.5
50
90
51
180
0
LINE
8
0
10
293.5375
20
-102.25
11
306.5375
21
-102.25
0
LINE
8
0
10
306.5375
20
-88.25
11
293.5375
21
-88.25
0
LINE
8
0
10
307.0375
20
-101.75
11
307.0375
21
-88.75
0
LINE
8
0
10
293.0375
20
-88.75
11
293.0375
21
-101.75
0
ARC
8
0
10
312.5875
20
-101.75
40
0.5
50
180
51
270
0
ARC
8
0
10
325.5875
20
-101.75
40
0.5
50
270
51
0
0
ARC
8
0
10
325.5875
20
-88.75
40
0.5
50
0
51
90
0
ARC
8
0
10
312.5875
20
-88.75
40
0.5
50
90
51
180
0
LINE
8
0
10
312.5875
20
-102.25
11
325.5875
21
-102.25
0
LINE
8
0
10
325.5875
20
-88.25
11
312.5875
21
-88.25
0
LINE
8
0
10
326.0875
20
-101.75
11
326.0875
21
-88.75
0
LINE
8
0
10
312.0875
20
-88.75
11
312.0875
21
-101.75
0
ARC
8
0
10
348.30625
20
-101.75
40
0.5
50
180
51
270
0
ARC
8
0
10
361.30625
20
-101.75
40
0.5
50
270
51
0
0
ARC
8
0
10
361.30625
20
-88.75
40
0.5
50
0
51
90
0
ARC
8
0
10
348.30625
20
-88.75
40
0.5
50
90
51
180
0
LINE
8
0
10
348.30625
20
-102.25
11
361.30625
21
-102.25
0
LINE
8
0
10
361.30625
20
-88.25
11
348.30625
21
-88.25
0
LINE
8
0
10
361.80625
20
-101.75
11
361.80625
21
-88.75
0
LINE
8
0
10
347.80625
20
-88.75
11
347.80625
21
-101.75
0
ARC
8
0
10
339.86825
20
-102.75
40
0.5
50
180
51
270
0
ARC
8
0
10
345.86825
20
-102.75
40
0.5
50
270
51
0
0
ARC
8
0
10
345.86825
20
-88.75
40
0.5
50
0
51
90
0
ARC
8
0
10
339.86825
20
-88.75
40
0.5
50
90
51
180
0
LINE
8
0
10
339.86825
20
-103.25
11
345.86825
21
-103.25
0
LINE
8
0
10
345.86825
20
-88.25
11
339.86825
21
-88.25
0
LINE
8
0
10
346.36825
20
-102.75
11
346.36825
21
-88.75
0
LINE
8
0
10
339.36825
20
-88.75
11
339.36825
21
-102.75
0
ARC
8
0
10
363.74425
20
-102.75
40
0.5
50
180
51
270
0
ARC
8
0
10
369.74425
20
-102.75
40
0.5
50
270
51
0
0
ARC
8
0
10
369.74425
20
-88.75
40
0.5
50
0
51
90
0
ARC
8
0
10
363.74425
20
-88.75
40
0.5
50
90
51
180
0
LINE
8
0
10
363.74425
20
-103.25
11
369.74425
21
-103.25
0
LINE
8
0
10
369.74425
20
-88.25
11
363.74425
21
-88.25
0
LINE
8
0
10
370.24425
20
-102.75
11
370.24425
21
-88.75
0
LINE
8
0
10
363.24425
20
-88.75
11
363.24425
21
-102.75
0
ARC
8
0
10
338.78125
20
-101.75
40
0.5
50
180
51
270
0
ARC
8
0
10
351.78125
20
-101.75
40
0.5
50
270
51
0
0
ARC
8
0
10
351.78125
20
-88.75
40
0.5
50
0
51
90
0
ARC
8
0
10
338.78125
20
-88.75
40
0.5
50
90
51
180
0
LINE
8
0
10
338.78125
20
-102.25
11
351.78125
21
-102.25
0
LINE
8
0
10
351.78125
20
-88.25
11
338.78125
21
-88.25
0
LINE
8
0
10
352.28125
20
-101.75
11
352.28125
21
-88.75
0
LINE
8
0
10
338.28125
20
-88.75
11
338.28125
21
-101.75
0
ARC
8
0
10
364.975
20
-101.75
40
0.5
50
180
51
270
0
ARC
8
0
10
377.975
20
-101.75
40
0.5
50
270
51
0
0
ARC
8
0
10
377.975
20
-88.75
40
0.5
50
0
51
90
0
ARC
8
0
10
364.975
20
-88.75
40
0.5
50
90
51
180
0
LINE
8
0
10
364.975
20
-102.25
11
377.975
21
-102.25
0
LINE
8
0
10
377.975
20
-88.25
11
364.975
21
-88.25
0
LINE
8
0
10
378.475
20
-101.75
11
378.475
21
-88.75
0
LINE
8
0
10
364.475
20
-88.75
11
364.475
21
-101.75
0
ARC
8
0
10
388.7875
20
-106.5125
40
0.5
50
180
51
270
0
ARC
8
0
10
401.7875
20
-106.5125
40
0.5
50
270
51
0
0
ARC
8
0
10
401.7875
20
-93.5125
40
0.5
50
0
51
90
0
ARC
8
0
10
388.7875
20
-93.5125
40
0.5
50
90
51
180
0
LINE
8
0
10
388.7875
20
-107.0125
11
401.7875
21
-107.0125
0
LINE
8
0
10
401.7875
20
-93.0125
11
388.7875
21
-93.0125
0
LINE
8
0
10
402.2875
20
-106.5125
11
402.2875
21
-93.5125
0
LINE
8
0
10
388.2875
20
-93.5125
11
388.2875
21
-106.5125
0
ARC
8
0
10
241.15
20
-120.8
40
0.5
50
180
51
270
0
ARC
8
0
10
254.15
20
-120.8
40
0.5
50
270
51
0
0
ARC
8
0
10
254.15
20
-107.8
40
0.5
50
0
51
90
0
ARC
8
0
10
241.15
20
-107.8
40
0.5
50
90
51
180
0
LINE
8
0
10
241.15
20
-121.3
11
254.15
21
-121.3
0
LINE
8
0
10
254.15
20
-107.3
11
241.15
21
-107.3
0
LINE
8
0
10
254.65
20
-120.8
11
254.65
21
-107.8
0
LINE
8
0
10
240.65
20
-107.8
11
240.65
21
-120.8
0
ARC
8
0
10
235.55
20
-120.8
40
0.5
50
180
51
270
0
ARC
8
0
10
236.55
20
-120.8
40
0.5
50
270
51
0
0
ARC
8
0
10
236.55
20
-107.8
40
0.5
50
0
51
90
0
ARC
8
0
10
235.55
20
-107.8
40
0.5
50
90
51
180
0
LINE
8
0
10
235.55
20
-121.3
11
236.55
21
-121.3
0
LINE
8
0
10
236.55
20
-107.3
11
235.55
21
-107.3
0
LINE
8
0
10
237.05
20
-120.8
11
237.05
21
-107.8
0
LINE
8
0
10
235.05
20
-107.8
11
235.05
21
-120.8
0
ARC
8
0
10
258.75
20
-120.8
40
0.5
50
180
51
270
0
ARC
8
0
10
259.75
20
-120.8
40
0.5
50
270
51
0
0
ARC
8
0
10
259.75
20
-107.8
40
0.5
50
0
51
90
0
ARC
8
0
10
258.75
20
-107.8
40
0.5
50
90
51
180
0
LINE
8
0
10
258.75
20
-121.3
11
259.75
21
-121.3
0
LINE
8
0
10
259.75
20
-107.3
11
258.75
21
-107.3
0
LINE
8
0
10
260.25
20
-120.8
11
260.25
21
-107.8
0
LINE
8
0
10
258.25
20
-107.8
11
258.25
21
-120.8
0
ARC
8
0
10
267.34375
20
-120.8
40
0.5
50
180
51
270
0
ARC
8
0
10
280.34375
20
-120.8
40
0.5
50
270
51
0
0
ARC
8
0
10
280.34375
20
-107.8
40
0.5
50
0
51
90
0
ARC
8
0
10
267.34375
20
-107.8
40
0.5
50
90
51
180
0
LINE
8
0
10
267.34375
20
-121.3
11
280.34375
21
-121.3
0
LINE
8
0
10
280.34375
20
-107.3
11
267.34375
21
-107.3
0
LINE
8
0
10
280.84375
20
-120.8
11
280.84375
21
-107.8
0
LINE
8
0
10
266.84375
20
-107.8
11
266.84375
21
-120.8
0
ARC
8
0
10
291.15625
20
-120.8
40
0.5
50
180
51
270
0
ARC
8
0
10
304.15625
20
-120.8
40
0.5
50
270
51
0
0
ARC
8
0
10
304.15625
20
-107.8
40
0.5
50
0
51
90
0
ARC
8
0
10
291.15625
20
-107.8
40
0.5
50
90
51
180
0
LINE
8
0
10
291.15625
20
-121.3
11
304.15625
21
-121.3
0
LINE
8
0
10
304.15625
20
-107.3
11
291.15625
21
-107.3
0
LINE
8
0
10
304.65625
20
-120.8
11
304.65625
21
-107.8
0
LINE
8
0
10
290.65625
20
-107.8
11
290.65625
21
-120.8
0
ARC
8
0
10
314.96875
20
-120.8
40
0.5
50
180
51
270
0
ARC
8
0
10
327.96875
20
-120.8
40
0.5
50
270
51
0
0
ARC
8
0
10
327.96875
20
-107.8
40
0.5
50
0
51
90
0
ARC
8
0
10
314.96875
20
-107.8
40
0.5
50
90
51
180
0
LINE
8
0
10
314.96875
20
-121.3
11
327.96875
21
-121.3
0
LINE
8
0
10
327.96875
20
-107.3
11
314.96875
21
-107.3
0
LINE
8
0
10
328.46875
20
-120.8
11
328.46875
21
-107.8
0
LINE
8
0
10
314.46875
20
-107.8
11
314.46875
21
-120.8
0
ARC
8
0
10
338.78125
20
-120.8
40
0.5
50
180
51
270
0
ARC
8
0
10
351.78125
20
-120.8
40
0.5
50
270
51
0
0
ARC
8
0
10
351.78125
20
-107.8
40
0.5
50
0
51
90
0
ARC
8
0
10
338.78125
20
-107.8
40
0.5
50
90
51
180
0
LINE
8
0
10
338.78125
20
-121.3
11
351.78125
21
-121.3
0
LINE
8
0
10
351.78125
20
-107.3
11
338.78125
21
-107.3
0
LINE
8
0
10
352.28125
20
-120.8
11
352.28125
21
-107.8
0
LINE
8
0
10
338.28125
20
-107.8
11
338.28125
21
-120.8
0
ARC
8
0
10
369.7375
20
-125.5625
40
0.5
50
180
51
270
0
ARC
8
0
10
382.7375
20
-125.5625
40
0.5
50
270
51
0
0
ARC
8
0
10
382.7375
20
-112.5625
40
0.5
50
0
51
90
0
ARC
8
0
10
369.7375
20
-112.5625
40
0.5
50
90
51
180
0
LINE
8
0
10
369.7375
20
-126.0625
11
382.7375
21
-126.0625
0
LINE
8
0
10
382.7375
20
-112.0625
11
369.7375
21
-112.0625
0
LINE
8
0
10
383.2375
20
-125.5625
11
383.2375
21
-112.5625
0
LINE
8
0
10
369.2375
20
-112.5625
11
369.2375
21
-125.5625
0
ARC
8
0
10
388.7875
20
-125.5625
40
0.5
50
180
51
270
0
ARC
8
0
10
401.7875
20
-125.5625
40
0.5
50
270
51
0
0
ARC
8
0
10
401.7875
20
-112.5625
40
0.5
50
0
51
90
0
ARC
8
0
10
388.7875
20
-112.5625
40
0.5
50
90
51
180
0
LINE
8
0
10
388.7875
20
-126.0625
11
401.7875
21
-126.0625
0
LINE
8
0
10
401.7875
20
-112.0625
11
388.7875
21
-112.0625
0
LINE
8
0
10
402.2875
20
-125.5625
11
402.2875
21
-112.5625
0
LINE
8
0
10
388.2875
20
-112.5625
11
388.2875
21
-125.5625
0
ARC
8
0
10
407.8375
20
-125.5625
40
0.5
50
180
51
270
0
ARC
8
0
10
420.8375
20
-125.5625
40
0.5
50
270
51
0
0
ARC
8
0
10
420.8375
20
-112.5625
40
0.5
50
0
51
90
0
ARC
8
0
10
407.8375
20
-112.5625
40
0.5
50
90
51
180
0
LINE
8
0
10
407.8375
20
-126.0625
11
420.8375
21
-126.0625
0
LINE
8
0
10
420.8375
20
-112.0625
11
407.8375
21
-112.0625
0
LINE
8
0
10
421.3375
20
-125.5625
11
421.3375
21
-112.5625
0
LINE
8
0
10
407.3375
20
-112.5625
11
407.3375
21
-125.5625
0
ENDSEC
0
EOF