<svg width="204.5mm" height="99.725mm" viewBox="0 0 204.5 99.725" xmlns="http://www.w3.org/2000/svg"><g id="svgGroup" stroke-linecap="round" fill-rule="evenodd" font-size="9pt" stroke="#000" stroke-width="0.25mm" fill="none" style="stroke:#000;stroke-width:0.25mm;fill:none"><path d="M 166.6875 13.5 A 0.5 0.5 0 0 0 167.1875 14 L 180.1875 14 A 0.5 0.5 0 0 0 180.6875 13.5 L 180.6875 0.5 A 0.5 0.5 0 0 0 180.1875 0 L 167.1875 0 A 0.5 0.5 0 0 0 166.6875 0.5 L 166.6875 13.5 Z M 190.5 13.5 A 0.5 0.5 0 0 0 191 14 L 204 14 A 0.5 0.5 0 0 0 204.5 13.5 L 204.5 0.5 A 0.5 0.5 0 0 0 204 0 L 191 0 A 0.5 0.5 0 0 0 190.5 0.5 L 190.5 13.5 Z M 9.525 18.2625 A 0.5 0.5 0 0 0 10.025 18.7625 L 23.025 18.7625 A 0.5 0.5 0 0 0 23.525 18.2625 L 23.525 5.2625 A 0.5 0.5 0 0 0 23.025 4.7625 L 10.025 4.7625 A 0.5 0.5 0 0 0 9.525 5.2625 L 9.525 18.2625 Z M 28.575 18.2625 A 0.5 0.5 0 0 0 29.075 18.7625 L 42.075 18.7625 A 0.5 0.5 0 0 0 42.575 18.2625 L 42.575 5.2625 A 0.5 0.5 0 0 0 42.075 4.7625 L 29.075 4.7625 A 0.5 0.5 0 0 0 28.575 5.2625 L 28.575 18.2625 Z M 47.625 18.2625 A 0.5 0.5 0 0 0 48.125 18.7625 L 61.125 18.7625 A 0.5 0.5 0 0 0 61.625 18.2625 L 61.625 5.2625 A 0.5 0.5 0 0 0 61.125 4.7625 L 48.125 4.7625 A 0.5 0.5 0 0 0 47.625 5.2625 L 47.625 18.2625 Z M 66.675 18.2625 A 0.5 0.5 0 0 0 67.175 18.7625 L 80.175 18.7625 A 0.5 0.5 0 0 0 80.675 18.2625 L 80.675 5.2625 A 0.5 0.5 0 0 0 80.175 4.7625 L 67.175 4.7625 A 0.5 0.5 0 0 0 66.675 5.2625 L 66.675 18.2625 Z M 85.725 18.2625 A 0.5 0.5 0 0 0 86.225 18.7625 L 99.225 18.7625 A 0.5 0.5 0 0 0 99.725 18.2625 L 99.725 5.2625 A 0.5 0.5 0 0 0 99.225 4.7625 L 86.225 4.7625 A 0.5 0.5 0 0 0 85.725 5.2625 L 85.725 18.2625 Z M 104.775 18.2625 A 0.5 0.5 0 0 0 105.275 18.7625 L 118.275 18.7625 A 0.5 0.5 0 0 0 118.775 18.2625 L 118.775 5.2625 A 0.5 0.5 0 0 0 118.275 4.7625 L 105.275 4.7625 A 0.5 0.5 0 0 0 104.775 5.2625 L 104.775 18.2625 Z M 133.35 18.2625 A 0.5 0.5 0 0 0 133.85 18.7625 L 146.85 18.7625 A 0.5 0.5 0 0 0 147.35 18.2625 L 147.35 5.2625 A 0.5 0.5 0 0 0 146.85 4.7625 L 133.85 4.7625 A 0.5 0.5 0 0 0 133.35 5.2625 L 133.35 18.2625 Z M 123.825 18.2625 A 0.5 0.5 0 0 0 124.325 18.7625 L 137.325 18.7625 A 0.5 0.5 0 0 0 137.825 18.2625 L 137.825 5.2625 A 0.5 0.5 0 0 0 137.325 4.7625 L 124.325 4.7625 A 0.5 0.5 0 0 0 123.825 5.2625 L 123.825 18.2625 Z M 142.875 18.2625 A 0.5 0.5 0 0 0 143.375 18.7625 L 156.375 18.7625 A 0.5 0.5 0 0 0 156.875 18.2625 L 156.875 5.2625 A 0.5 0.5 0 0 0 156.375 4.7625 L 143.375 4.7625 A 0.5 0.5 0 0 0 142.875 5.2625 L 142.875 18.2625 Z M 0 37.3125 A 0.5 0.5 0 0 0 0.5 37.8125 L 13.5 37.8125 A 0.5 0.5 0 0 0 14 37.3125 L 14 24.3125 A 0.5 0.5 0 0 0 13.5 23.8125 L 0.5 23.8125 A 0.5 0.5 0 0 0 0 24.3125 L 0 37.3125 Z M 19.05 37.3125 A 0.5 0.5 0 0 0 19.55 37.8125 L 32.55 37.8125 A 0.5 0.5 0 0 0 33.05 37.3125 L 33.05 24.3125 A 0.5 0.5 0 0 0 32.55 23.8125 L 19.55 23.8125 A 0.5 0.5 0 0 0 19.05 24.3125 L 19.05 37.3125 Z M 38.1 37.3125 A 0.5 0.5 0 0 0 38.6 37.8125 L 51.6 37.8125 A 0.5 0.5 0 0 0 52.1 37.3125 L 52.1 24.3125 A 0.5 0.5 0 0 0 51.6 23.8125 L 38.6 23.8125 A 0.5 0.5 0 0 0 38.1 24.3125 L 38.1 37.3125 Z M 57.15 37.3125 A 0.5 0.5 0 0 0 57.65 37.8125 L 70.65 37.8125 A 0.5 0.5 0 0 0 71.15 37.3125 L 71.15 24.3125 A 0.5 0.5 0 0 0 70.65 23.8125 L 57.65 23.8125 A 0.5 0.5 0 0 0 57.15 24.3125 L 57.15 37.3125 Z M 76.2 37.3125 A 0.5 0.5 0 0 0 76.7 37.8125 L 89.7 37.8125 A 0.5 0.5 0 0 0 90.2 37.3125 L 90.2 24.3125 A 0.5 0.5 0 0 0 89.7 23.8125 L 76.7 23.8125 A 0.5 0.5 0 0 0 76.2 24.3125 L 76.2 37.3125 Z M 95.25 37.3125 A 0.5 0.5 0 0 0 95.75 37.8125 L 108.75 37.8125 A 0.5 0.5 0 0 0 109.25 37.3125 L 109.25 24.3125 A 0.5 0.5 0 0 0 108.75 23.8125 L 95.75 23.8125 A 0.5 0.5 0 0 0 95.25 24.3125 L 95.25 37.3125 Z M 114.3 37.3125 A 0.5 0.5 0 0 0 114.8 37.8125 L 127.8 37.8125 A 0.5 0.5 0 0 0 128.3 37.3125 L 128.3 24.3125 A 0.5 0.5 0 0 0 127.8 23.8125 L 114.8 23.8125 A 0.5 0.5 0 0 0 114.3 24.3125 L 114.3 37.3125 Z M 138.1125 37.3125 A 0.5 0.5 0 0 0 138.6125 37.8125 L 151.6125 37.8125 A 0.5 0.5 0 0 0 152.1125 37.3125 L 152.1125 24.3125 A 0.5 0.5 0 0 0 151.6125 23.8125 L 138.6125 23.8125 A 0.5 0.5 0 0 0 138.1125 24.3125 L 138.1125 37.3125 Z M 166.6875 37.3125 A 0.5 0.5 0 0 0 167.1875 37.8125 L 180.1875 37.8125 A 0.5 0.5 0 0 0 180.6875 37.3125 L 180.6875 24.3125 A 0.5 0.5 0 0 0 180.1875 23.8125 L 167.1875 23.8125 A 0.5 0.5 0 0 0 166.6875 24.3125 L 166.6875 37.3125 Z M 185.7375 37.3125 A 0.5 0.5 0 0 0 186.2375 37.8125 L 199.2375 37.8125 A 0.5 0.5 0 0 0 199.7375 37.3125 L 199.7375 24.3125 A 0.5 0.5 0 0 0 199.2375 23.8125 L 186.2375 23.8125 A 0.5 0.5 0 0 0 185.7375 24.3125 L 185.7375 37.3125 Z M 4.7625 56.3625 A 0.5 0.5 0 0 0 5.2625 56.8625 L 18.2625 56.8625 A 0.5 0.5 0 0 0 18.7625 56.3625 L 18.7625 43.3625 A 0.5 0.5 0 0 0 18.2625 42.8625 L 5.2625 42.8625 A 0.5 0.5 0 0 0 4.7625 43.3625 L 4.7625 56.3625 Z M 23.8125 56.3625 A 0.5 0.5 0 0 0 24.3125 56.8625 L 37.3125 56.8625 A 0.5 0.5 0 0 0 37.8125 56.3625 L 37.8125 43.3625 A 0.5 0.5 0 0 0 37.3125 42.8625 L 24.3125 42.8625 A 0.5 0.5 0 0 0 23.8125 43.3625 L 23.8125 56.3625 Z M 42.8625 56.3625 A 0.5 0.5 0 0 0 43.3625 56.8625 L 56.3625 56.8625 A 0.5 0.5 0 0 0 56.8625 56.3625 L 56.8625 43.3625 A 0.5 0.5 0 0 0 56.3625 42.8625 L 43.3625 42.8625 A 0.5 0.5 0 0 0 42.8625 43.3625 L 42.8625 56.3625 Z M 61.9125 56.3625 A 0.5 0.5 0 0 0 62.4125 56.8625 L 75.4125 56.8625 A 0.5 0.5 0 0 0 75.9125 56.3625 L 75.9125 43.3625 A 0.5 0.5 0 0 0 75.4125 42.8625 L 62.4125 42.8625 A 0.5 0.5 0 0 0 61.9125 43.3625 L 61.9125 56.3625 Z M 80.9625 56.3625 A 0.5 0.5 0 0 0 81.4625 56.8625 L 94.4625 56.8625 A 0.5 0.5 0 0 0 94.9625 56.3625 L 94.9625 43.3625 A 0.5 0.5 0 0 0 94.4625 42.8625 L 81.4625 42.8625 A 0.5 0.5 0 0 0 80.9625 43.3625 L 80.9625 56.3625 Z M 100.0125 56.3625 A 0.5 0.5 0 0 0 100.5125 56.8625 L 113.5125 56.8625 A 0.5 0.5 0 0 0 114.0125 56.3625 L 114.0125 43.3625 A 0.5 0.5 0 0 0 113.5125 42.8625 L 100.5125 42.8625 A 0.5 0.5 0 0 0 100.0125 43.3625 L 100.0125 56.3625 Z M 130.96875 56.3625 A 0.5 0.5 0 0 0 131.46875 56.8625 L 144.46875 56.8625 A 0.5 0.5 0 0 0 144.96875 56.3625 L 144.96875 43.3625 A 0.5 0.5 0 0 0 144.46875 42.8625 L 131.46875 42.8625 A 0.5 0.5 0 0 0 130.96875 43.3625 L 130.96875 56.3625 Z M 166.6875 56.3625 A 0.5 0.5 0 0 0 167.1875 56.8625 L 180.1875 56.8625 A 0.5 0.5 0 0 0 180.6875 56.3625 L 180.6875 43.3625 A 0.5 0.5 0 0 0 180.1875 42.8625 L 167.1875 42.8625 A 0.5 0.5 0 0 0 166.6875 43.3625 L 166.6875 56.3625 Z M 185.7375 56.3625 A 0.5 0.5 0 0 0 186.2375 56.8625 L 199.2375 56.8625 A 0.5 0.5 0 0 0 199.7375 56.3625 L 199.7375 43.3625 A 0.5 0.5 0 0 0 199.2375 42.8625 L 186.2375 42.8625 A 0.5 0.5 0 0 0 185.7375 43.3625 L 185.7375 56.3625 Z M 14.2875 75.4125 A 0.5 0.5 0 0 0 14.7875 75.9125 L 27.7875 75.9125 A 0.5 0.5 0 0 0 28.2875 75.4125 L 28.2875 62.4125 A 0.5 0.5 0 0 0 27.7875 61.9125 L 14.7875 61.9125 A 0.5 0.5 0 0 0 14.2875 62.4125 L 14.2875 75.4125 Z M 33.3375 75.4125 A 0.5 0.5 0 0 0 33.8375 75.9125 L 46.8375 75.9125 A 0.5 0.5 0 0 0 47.3375 75.4125 L 47.3375 62.4125 A 0.5 0.5 0 0 0 46.8375 61.9125 L 33.8375 61.9125 A 0.5 0.5 0 0 0 33.3375 62.4125 L 33.3375 75.4125 Z M 52.3875 75.4125 A 0.5 0.5 0 0 0 52.8875 75.9125 L 65.8875 75.9125 A 0.5 0.5 0 0 0 66.3875 75.4125 L 66.3875 62.4125 A 0.5 0.5 0 0 0 65.8875 61.9125 L 52.8875 61.9125 A 0.5 0.5 0 0 0 52.3875 62.4125 L 52.3875 75.4125 Z M 71.4375 75.4125 A 0.5 0.5 0 0 0 71.9375 75.9125 L 84.9375 75.9125 A 0.5 0.5 0 0 0 85.4375 75.4125 L 85.4375 62.4125 A 0.5 0.5 0 0 0 84.9375 61.9125 L 71.9375 61.9125 A 0.5 0.5 0 0 0 71.4375 62.4125 L 71.4375 75.4125 Z M 90.4875 75.4125 A 0.5 0.5 0 0 0 90.9875 75.9125 L 103.9875 75.9125 A 0.5 0.5 0 0 0 104.4875 75.4125 L 104.4875 62.4125 A 0.5 0.5 0 0 0 103.9875 61.9125 L 90.9875 61.9125 A 0.5 0.5 0 0 0 90.4875 62.4125 L 90.4875 75.4125 Z M 126.20625 75.4125 A 0.5 0.5 0 0 0 126.70625 75.9125 L 139.70625 75.9125 A 0.5 0.5 0 0 0 140.20625 75.4125 L 140.20625 62.4125 A 0.5 0.5 0 0 0 139.70625 61.9125 L 126.70625 61.9125 A 0.5 0.5 0 0 0 126.20625 62.4125 L 126.20625 75.4125 Z M 116.68125 75.4125 A 0.5 0.5 0 0 0 117.18125 75.9125 L 130.18125 75.9125 A 0.5 0.5 0 0 0 130.68125 75.4125 L 130.68125 62.4125 A 0.5 0.5 0 0 0 130.18125 61.9125 L 117.18125 61.9125 A 0.5 0.5 0 0 0 116.68125 62.4125 L 116.68125 75.4125 Z M 142.875 75.4125 A 0.5 0.5 0 0 0 143.375 75.9125 L 156.375 75.9125 A 0.5 0.5 0 0 0 156.875 75.4125 L 156.875 62.4125 A 0.5 0.5 0 0 0 156.375 61.9125 L 143.375 61.9125 A 0.5 0.5 0 0 0 142.875 62.4125 L 142.875 75.4125 Z M 166.6875 80.175 A 0.5 0.5 0 0 0 167.1875 80.675 L 180.1875 80.675 A 0.5 0.5 0 0 0 180.6875 80.175 L 180.6875 67.175 A 0.5 0.5 0 0 0 180.1875 66.675 L 167.1875 66.675 A 0.5 0.5 0 0 0 166.6875 67.175 L 166.6875 80.175 Z M 19.05 94.4625 A 0.5 0.5 0 0 0 19.55 94.9625 L 32.55 94.9625 A 0.5 0.5 0 0 0 33.05 94.4625 L 33.05 81.4625 A 0.5 0.5 0 0 0 32.55 80.9625 L 19.55 80.9625 A 0.5 0.5 0 0 0 19.05 81.4625 L 19.05 94.4625 Z M 45.24375 94.4625 A 0.5 0.5 0 0 0 45.74375 94.9625 L 58.74375 94.9625 A 0.5 0.5 0 0 0 59.24375 94.4625 L 59.24375 81.4625 A 0.5 0.5 0 0 0 58.74375 80.9625 L 45.74375 80.9625 A 0.5 0.5 0 0 0 45.24375 81.4625 L 45.24375 94.4625 Z M 69.05625 94.4625 A 0.5 0.5 0 0 0 69.55625 94.9625 L 82.55625 94.9625 A 0.5 0.5 0 0 0 83.05625 94.4625 L 83.05625 81.4625 A 0.5 0.5 0 0 0 82.55625 80.9625 L 69.55625 80.9625 A 0.5 0.5 0 0 0 69.05625 81.4625 L 69.05625 94.4625 Z M 92.86875 94.4625 A 0.5 0.5 0 0 0 93.36875 94.9625 L 106.36875 94.9625 A 0.5 0.5 0 0 0 106.86875 94.4625 L 106.86875 81.4625 A 0.5 0.5 0 0 0 106.36875 80.9625 L 93.36875 80.9625 A 0.5 0.5 0 0 0 92.86875 81.4625 L 92.86875 94.4625 Z M 116.68125 94.4625 A 0.5 0.5 0 0 0 117.18125 94.9625 L 130.18125 94.9625 A 0.5 0.5 0 0 0 130.68125 94.4625 L 130.68125 81.4625 A 0.5 0.5 0 0 0 130.18125 80.9625 L 117.18125 80.9625 A 0.5 0.5 0 0 0 116.68125 81.4625 L 116.68125 94.4625 Z M 147.6375 99.225 A 0.5 0.5 0 0 0 148.1375 99.725 L 161.1375 99.725 A 0.5 0.5 0 0 0 161.6375 99.225 L 161.6375 86.225 A 0.5 0.5 0 0 0 161.1375 85.725 L 148.1375 85.725 A 0.5 0.5 0 0 0 147.6375 86.225 L 147.6375 99.225 Z M 166.6875 99.225 A 0.5 0.5 0 0 0 167.1875 99.725 L 180.1875 99.725 A 0.5 0.5 0 0 0 180.6875 99.225 L 180.6875 86.225 A 0.5 0.5 0 0 0 180.1875 85.725 L 167.1875 85.725 A 0.5 0.5 0 0 0 166.6875 86.225 L 166.6875 99.225 Z M 185.7375 99.225 A 0.5 0.5 0 0 0 186.2375 99.725 L 199.2375 99.725 A 0.5 0.5 0 0 0 199.7375 99.225 L 199.7375 86.225 A 0.5 0.5 0 0 0 199.2375 85.725 L 186.2375 85.725 A 0.5 0.5 0 0 0 185.7375 86.225 L 185.7375 99.225 Z M 124.912 19.2625 A 0.5 0.5 0 0 0 125.412 19.7625 L 131.412 19.7625 A 0.5 0.5 0 0 0 131.912 19.2625 L 131.912 5.2625 A 0.5 0.5 0 0 0 131.412 4.7625 L 125.412 4.7625 A 0.5 0.5 0 0 0 124.912 5.2625 L 124.912 19.2625 Z M 148.788 19.2625 A 0.5 0.5 0 0 0 149.288 19.7625 L 155.288 19.7625 A 0.5 0.5 0 0 0 155.788 19.2625 L 155.788 5.2625 A 0.5 0.5 0 0 0 155.288 4.7625 L 149.288 4.7625 A 0.5 0.5 0 0 0 148.788 5.2625 L 148.788 19.2625 Z M 122.53075 57.3625 A 0.5 0.5 0 0 0 123.03075 57.8625 L 129.03075 57.8625 A 0.5 0.5 0 0 0 129.53075 57.3625 L 129.53075 43.3625 A 0.5 0.5 0 0 0 129.03075 42.8625 L 123.03075 42.8625 A 0.5 0.5 0 0 0 122.53075 43.3625 L 122.53075 57.3625 Z M 146.40675 57.3625 A 0.5 0.5 0 0 0 146.90675 57.8625 L 152.90675 57.8625 A 0.5 0.5 0 0 0 153.40675 57.3625 L 153.40675 43.3625 A 0.5 0.5 0 0 0 152.90675 42.8625 L 146.90675 42.8625 A 0.5 0.5 0 0 0 146.40675 43.3625 L 146.40675 57.3625 Z M 117.76825 76.4125 A 0.5 0.5 0 0 0 118.26825 76.9125 L 124.26825 76.9125 A 0.5 0.5 0 0 0 124.76825 76.4125 L 124.76825 62.4125 A 0.5 0.5 0 0 0 124.26825 61.9125 L 118.26825 61.9125 A 0.5 0.5 0 0 0 117.76825 62.4125 L 117.76825 76.4125 Z M 141.64425 76.4125 A 0.5 0.5 0 0 0 142.14425 76.9125 L 148.14425 76.9125 A 0.5 0.5 0 0 0 148.64425 76.4125 L 148.64425 62.4125 A 0.5 0.5 0 0 0 148.14425 61.9125 L 142.14425 61.9125 A 0.5 0.5 0 0 0 141.64425 62.4125 L 141.64425 76.4125 Z M 132.5125 37.3125 A 0.5 0.5 0 0 0 133.0125 37.8125 L 134.0125 37.8125 A 0.5 0.5 0 0 0 134.5125 37.3125 L 134.5125 24.3125 A 0.5 0.5 0 0 0 134.0125 23.8125 L 133.0125 23.8125 A 0.5 0.5 0 0 0 132.5125 24.3125 L 132.5125 37.3125 Z M 155.7125 37.3125 A 0.5 0.5 0 0 0 156.2125 37.8125 L 157.2125 37.8125 A 0.5 0.5 0 0 0 157.7125 37.3125 L 157.7125 24.3125 A 0.5 0.5 0 0 0 157.2125 23.8125 L 156.2125 23.8125 A 0.5 0.5 0 0 0 155.7125 24.3125 L 155.7125 37.3125 Z M 13.45 94.4625 A 0.5 0.5 0 0 0 13.95 94.9625 L 14.95 94.9625 A 0.5 0.5 0 0 0 15.45 94.4625 L 15.45 81.4625 A 0.5 0.5 0 0 0 14.95 80.9625 L 13.95 80.9625 A 0.5 0.5 0 0 0 13.45 81.4625 L 13.45 94.4625 Z M 36.65 94.4625 A 0.5 0.5 0 0 0 37.15 94.9625 L 38.15 94.9625 A 0.5 0.5 0 0 0 38.65 94.4625 L 38.65 81.4625 A 0.5 0.5 0 0 0 38.15 80.9625 L 37.15 80.9625 A 0.5 0.5 0 0 0 36.65 81.4625 L 36.65 94.4625 Z" vector-effect="non-scaling-stroke"/></g></svg>