0
SECTION
2
HEADER
9
$INSUNITS
70
4
9
$ACADVER
1
AC1014
9
$HANDSEED
5
FFFF
0
ENDSEC
0
SECTION
2
TABLES
0
TABLE
2
VPORT
5
8
100
AcDbSymbolTable
0
ENDTAB
0
TABLE
2
LTYPE
5
5
100
AcDbSymbolTable
0
LTYPE
5
14
100
AcDbSymbolTableRecord
100
AcDbLinetypeTableRecord
2
BYBLOCK
70
0
0
LTYPE
5
15
100
AcDbSymbolTableRecord
100
AcDbLinetypeTableRecord
2
BYLAYER
70
0
0
ENDTAB
0
TABLE
2
LAYER
5
2
100
AcDbSymbolTable
70
2
0
LAYER
5
50
100
AcDbSymbolTableRecord
100
AcDbLayerTableRecord
2
0
70
0
6
CONTINUOUS
0
ENDTAB
0
TABLE
2
STYLE
5
3
100
AcDbSymbolTable
70
1
0
STYLE
5
11
100
AcDbSymbolTableRecord
100
AcDbTextStyleTableRecord
2
STANDARD
70
0
0
ENDTAB
0
TABLE
2
VIEW
5
6
100
AcDbSymbolTable
70
0
0
ENDTAB
0
TABLE
2
UCS
5
7
100
AcDbSymbolTable
70
0
0
ENDTAB
0
TABLE
2
APPID
5
9
100
AcDbSymbolTable
70
2
0
APPID
5
12
100
AcDbSymbolTableRecord
100
AcDbRegAppTableRecord
2
ACAD
70
0
0
ENDTAB
0
TABLE
2
DIMSTYLE
5
A
100
AcDbSymbolTable
70
1
0
ENDTAB
0
TABLE
2
BLOCK_RECORD
5
1
100
AcDbSymbolTable
70
1
0
BLOCK_RECORD
5
1F
100
AcDbSymbolTableRecord
100
AcDbBlockTableRecord
2
*MODEL_SPACE
0
BLOCK_RECORD
5
1B
100
AcDbSymbolTableRecord
100
AcDbBlockTableRecord
2
*PAPER_SPACE
0
ENDTAB
0
ENDSEC
0
SECTION
2
BLOCKS
0
BLOCK
5
20
100
AcDbEntity
100
AcDbBlockBegin
2
*MODEL_SPACE
0
ENDBLK
5
21
100
AcDbEntity
100
AcDbBlockEnd
0
BLOCK
5
1C
100
AcDbEntity
100
AcDbBlockBegin
2
*PAPER_SPACE
0
ENDBLK
5
1D
100
AcDbEntity
100
AcDbBlockEnd
0
ENDSEC
0
SECTION
2
ENTITIES
0
LWPOLYLINE
5
100
100
AcDbEntity
8
0
100
AcDbPolyline
90
8
70
1
43
0.0
10
-306.76900000000001
20
25.072000000000003
42
0.41421356237309503
10
-307.76900000000001
20
26.072000000000003
10
-322.46900000000005
20
26.072000000000003
42
0.41421356237309503
10
-323.46900000000005
20
25.072000000000003
10
-323.46900000000005
20
14.472000000000003
42
0.41421356237309503
10
-322.46900000000005
20
13.472000000000001
10
-307.76900000000001
20
13.472000000000005
42
0.41421356237309503
10
-306.76900000000001
20
14.472000000000003
0
LWPOLYLINE
5
101
100
AcDbEntity
8
0
100
AcDbPolyline
90
8
70
1
43
0.0
10
-268.66899999999998
20
25.072000000000003
42
0.41421356237309503
10
-269.66900000000004
20
26.072000000000003
10
-284.36900000000003
20
26.072000000000003
42
0.41421356237309503
10
-285.36900000000003
20
25.072000000000003
10
-285.36900000000003
20
14.472000000000003
42
0.41421356237309503
10
-284.36900000000003
20
13.472000000000001
10
-269.66900000000004
20
13.472000000000005
42
0.41421356237309503
10
-268.66899999999998
20
14.472000000000003
0
LWPOLYLINE
5
102
100
AcDbEntity
8
0
100
AcDbPolyline
90
8
70
1
43
0.0
10
-249.619
20
25.072000000000003
42
0.41421356237309503
10
-250.61900000000003
20
26.072000000000003
10
-265.31900000000002
20
26.072000000000003
42
0.41421356237309503
10
-266.31900000000002
20
25.072000000000003
10
-266.31900000000002
20
14.472000000000003
42
0.41421356237309503
10
-265.31900000000002
20
13.472000000000001
10
-250.61900000000003
20
13.472000000000005
42
0.41421356237309503
10
-249.619
20
14.472000000000003
0
LWPOLYLINE
5
103
100
AcDbEntity
8
0
100
AcDbPolyline
90
36
70
1
43
0.0
10
-233.46250000000001
20
130.90000000000001
42
0.41421356237309764
10
-235.46250000000001
20
132.90000000000003
10
-431.93749999999994
20
132.90000000000001
42
0.41421356237310802
10
-433.9375
20
130.90000000000001
10
-433.9375
20
44.33750000000002
42
0.41421356237309631
10
-431.93749999999994
20
42.337499999999977
10
-409.33750000000009
20
42.337500000000041
42
-0.41421356237309503
10
-407.33750000000009
20
40.337500000000013
10
-407.33750000000009
20
23.287500000000001
42
0.41421356237307422
10
-405.33750000000003
20
21.287499999999973
10
-387.31704185357546
20
21.287499999999959
42
0.19891236737966048
10
-385.90282829120235
20
21.873286437626874
10
-382.31190116645621
20
25.464213562373104
42
-0.19891236737965684
10
-380.8976876040831
20
26.050000000000004
10
-349.56900000000013
20
26.050000000000008
42
-0.41421356237309503
10
-347.56900000000007
20
24.049999999999979
10
-347.56900000000007
20
8.6000000000000014
42
0.41421356237307422
10
-345.56900000000007
20
6.599999999999973
10
-246.56900000000002
20
6.6000000000000014
42
0.4142135623730972
10
-244.56900000000002
20
8.6000000000000032
10
-244.56900000000002
20
24.04999999999999
42
-0.4142135623730957
10
-242.56900000000002
20
26.049999999999997
10
-230.69999999999999
20
26.050000000000004
42
0.41421356237309631
10
-228.70000000000002
20
28.050000000000004
10
-228.70000000000002
20
45.725000000000009
42
-0.41421356237309503
10
-226.70000000000002
20
47.725000000000009
10
-221.17500000000001
20
47.725000000000009
42
0.41421356237309631
10
-219.17500000000001
20
49.725000000000001
10
-219.17500000000001
20
64.575000000000003
42
0.41421356237309631
10
-221.17500000000001
20
66.575000000000003
10
-221.93750000000006
20
66.575000000000003
42
-0.41421356237309503
10
-223.93750000000006
20
68.575000000000003
10
-223.93750000000006
20
83.625
42
0.41421356237309764
10
-225.93750000000006
20
85.625000000000014
10
-231.46250000000003
20
85.625
42
-0.41421356237309503
10
-233.46250000000001
20
87.625
0
LWPOLYLINE
5
104
100
AcDbEntity
8
0
100
AcDbPolyline
90
20
70
1
43
0.0
10
-370.38800000000003
20
45.100000000000009
10
-353.512
20
45.100000000000009
10
-353.51199999999994
20
45.600000000000009
42
-0.41421356237310542
10
-353.01199999999994
20
46.100000000000001
10
-347.01199999999994
20
46.099999999999994
42
-0.4142135623730222
10
-346.51199999999994
20
45.600000000000009
10
-346.51199999999994
20
45.100000000000009
10
-345.92500000000001
20
45.099999999999987
42
-0.4142135623730222
10
-345.42500000000007
20
44.600000000000001
10
-345.42500000000007
20
31.600000000000001
42
-0.41421356237311063
10
-345.92500000000001
20
31.100000000000001
10
-377.97500000000008
20
31.100000000000012
42
-0.4142135623730222
10
-378.47500000000002
20
31.600000000000001
10
-378.47500000000002
20
44.600000000000001
42
-0.41421356237319906
10
-377.97500000000008
20
45.099999999999994
10
-377.38800000000003
20
45.100000000000009
10
-377.38800000000003
20
45.600000000000009
42
-0.41421356237318868
10
-376.88800000000009
20
46.100000000000001
10
-370.88800000000003
20
46.099999999999994
42
-0.4142135623730222
10
-370.38800000000009
20
45.600000000000009
0
LWPOLYLINE
5
105
100
AcDbEntity
8
0
100
AcDbPolyline
90
8
70
1
43
0.0
10
-379.3125
20
50.650000000000006
10
-379.3125
20
63.650000000000006
42
-0.41421356237318868
10
-378.8125
20
64.150000000000006
10
-377.8125
20
64.149999999999991
42
-0.4142135623730222
10
-377.3125
20
63.650000000000006
10
-377.3125
20
50.650000000000006
42
-0.41421356237311585
10
-377.8125
20
50.150000000000006
10
-378.8125
20
50.150000000000013
42
-0.4142135623730222
0
LWPOLYLINE
5
106
100
AcDbEntity
8
0
100
AcDbPolyline
90
8
70
1
43
0.0
10
-349.89999999999998
20
50.650000000000006
10
-349.89999999999998
20
63.650000000000006
42
-0.41421356237310542
10
-349.39999999999998
20
64.150000000000006
10
-336.39999999999998
20
64.149999999999991
42
-0.4142135623730222
10
-335.90000000000003
20
63.650000000000006
10
-335.90000000000003
20
50.650000000000006
42
-0.41421356237311585
10
-336.39999999999998
20
50.150000000000006
10
-349.39999999999998
20
50.150000000000013
42
-0.4142135623730222
0
LWPOLYLINE
5
107
100
AcDbEntity
8
0
100
AcDbPolyline
90
8
70
1
43
0.0
10
-311.80000000000001
20
50.650000000000006
10
-311.80000000000001
20
63.650000000000006
42
-0.4142135623730222
10
-311.30000000000001
20
64.150000000000006
10
-298.30000000000001
20
64.150000000000006
42
-0.41421356237313667
10
-297.80000000000001
20
63.650000000000006
10
-297.79999999999995
20
50.650000000000006
42
-0.41421356237307422
10
-298.30000000000001
20
50.150000000000006
10
-311.30000000000001
20
50.15000000000002
42
-0.41421356237312101
0
LWPOLYLINE
5
108
100
AcDbEntity
8
0
100
AcDbPolyline
90
8
70
1
43
0.0
10
-354.61250000000001
20
50.150000000000006
10
-355.61250000000001
20
50.150000000000013
42
-0.4142135623730222
10
-356.11249999999995
20
50.650000000000006
10
-356.11249999999995
20
63.650000000000006
42
-0.41421356237310542
10
-355.61250000000001
20
64.150000000000006
10
-354.61250000000001
20
64.149999999999991
42
-0.4142135623730222
10
-354.11250000000001
20
63.650000000000006
10
-354.11250000000001
20
50.650000000000006
42
-0.41421356237319906
0
LWPOLYLINE
5
109
100
AcDbEntity
8
0
100
AcDbPolyline
90
8
70
1
43
0.0
10
-282.72500000000002
20
45.099999999999994
10
-269.72500000000002
20
45.09999999999998
42
-0.41421356237312101
10
-269.22500000000002
20
44.600000000000001
10
-269.22500000000002
20
31.600000000000001
42
-0.41421356237304563
10
-269.72500000000002
20
31.100000000000001
10
-282.72500000000002
20
31.100000000000001
42
-0.41421356237313145
10
-283.22500000000002
20
31.600000000000001
10
-283.22500000000008
20
44.600000000000001
42
-0.41421356237307422
0
LWPOLYLINE
5
110
100
AcDbEntity
8
0
100
AcDbPolyline
90
8
70
1
43
0.0
10
-321.32499999999999
20
31.600000000000001
42
0.4142135623730222
10
-320.82500000000005
20
31.100000000000012
10
-307.82499999999999
20
31.100000000000001
42
0.41421356237304563
10
-307.32499999999999
20
31.600000000000001
10
-307.32499999999999
20
44.600000000000001
42
0.41421356237312101
10
-307.82499999999999
20
45.099999999999994
10
-320.82500000000005
20
45.099999999999994
42
0.41421356237319906
10
-321.32499999999999
20
44.600000000000001
0
LWPOLYLINE
5
111
100
AcDbEntity
8
0
100
AcDbPolyline
90
8
70
1
43
0.0
10
-244.62500000000003
20
45.099999999999994
42
0.41421356237307422
10
-245.12500000000006
20
44.600000000000001
10
-245.12500000000003
20
31.600000000000001
42
0.41421356237313145
10
-244.62500000000003
20
31.100000000000001
10
-231.625
20
31.100000000000001
42
0.41421356237304563
10
-231.125
20
31.600000000000001
10
-231.125
20
44.600000000000001
42
0.41421356237312101
10
-231.625
20
45.099999999999994
0
LWPOLYLINE
5
112
100
AcDbEntity
8
0
100
AcDbPolyline
90
8
70
1
43
0.0
10
-288.77499999999998
20
31.100000000000001
10
-301.77499999999998
20
31.100000000000001
42
-0.41421356237313145
10
-302.27499999999998
20
31.600000000000001
10
-302.27500000000003
20
44.600000000000001
42
-0.41421356237307422
10
-301.77499999999998
20
45.099999999999994
10
-288.77499999999998
20
45.09999999999998
42
-0.41421356237312101
10
-288.27499999999998
20
44.600000000000001
10
-288.27499999999998
20
31.600000000000001
42
-0.41421356237304563
0
LWPOLYLINE
5
113
100
AcDbEntity
8
0
100
AcDbPolyline
90
8
70
1
43
0.0
10
-278.75
20
63.650000000000006
10
-278.74999999999994
20
50.650000000000006
42
-0.41421356237307422
10
-279.25
20
50.150000000000006
10
-292.25
20
50.15000000000002
42
-0.41421356237312101
10
-292.75
20
50.650000000000006
10
-292.75
20
63.650000000000006
42
-0.4142135623730222
10
-292.25
20
64.150000000000006
10
-279.25
20
64.150000000000006
42
-0.41421356237313667
0
LWPOLYLINE
5
114
100
AcDbEntity
8
0
100
AcDbPolyline
90
8
70
1
43
0.0
10
-388.28750000000008
20
39.837499999999999
10
-388.28750000000008
20
26.837499999999999
42
-0.4142135623731939
10
-388.78750000000002
20
26.337499999999999
10
-401.78750000000008
20
26.337500000000009
42
-0.4142135623730222
10
-402.28750000000002
20
26.837499999999999
10
-402.28750000000002
20
39.837499999999999
42
-0.41421356237311063
10
-401.78750000000008
20
40.337500000000006
10
-388.78750000000002
20
40.337499999999977
42
-0.41421356237301177
0
LWPOLYLINE
5
115
100
AcDbEntity
8
0
100
AcDbPolyline
90
8
70
1
43
0.0
10
-254.15000000000003
20
64.150000000000006
42
0.41421356237307422
10
-254.65000000000006
20
63.650000000000006
10
-254.65000000000003
20
50.650000000000006
42
0.41421356237313145
10
-254.15000000000003
20
50.149999999999999
10
-241.15000000000003
20
50.150000000000006
42
0.4142135623730222
10
-240.65000000000001
20
50.650000000000006
10
-240.65000000000001
20
63.650000000000006
42
0.41421356237312623
10
-241.15000000000003
20
64.150000000000006
0
LWPOLYLINE
5
116
100
AcDbEntity
8
0
100
AcDbPolyline
90
8
70
1
43
0.0
10
-326.875
20
31.100000000000001
10
-339.87500000000006
20
31.100000000000012
42
-0.4142135623730222
10
-340.375
20
31.600000000000001
10
-340.375
20
44.600000000000001
42
-0.41421356237319906
10
-339.87500000000006
20
45.099999999999994
10
-326.875
20
45.099999999999987
42
-0.4142135623730222
10
-326.375
20
44.600000000000001
10
-326.375
20
31.600000000000001
42
-0.41421356237311063
0
LWPOLYLINE
5
117
100
AcDbEntity
8
0
100
AcDbPolyline
90
8
70
1
43
0.0
10
-273.69999999999999
20
50.650000000000006
42
0.41421356237312101
10
-273.19999999999999
20
50.15000000000002
10
-260.19999999999999
20
50.150000000000006
42
0.41421356237307422
10
-259.69999999999999
20
50.650000000000006
10
-259.69999999999999
20
63.650000000000006
42
0.41421356237313667
10
-260.19999999999999
20
64.150000000000006
10
-273.19999999999999
20
64.150000000000006
42
0.4142135623730222
10
-273.69999999999999
20
63.650000000000006
0
LWPOLYLINE
5
118
100
AcDbEntity
8
0
100
AcDbPolyline
90
8
70
1
43
0.0
10
-235.10000000000002
20
64.150000000000006
42
0.41421356237307422
10
-235.60000000000005
20
63.650000000000006
10
-235.60000000000002
20
50.650000000000006
42
0.41421356237313145
10
-235.10000000000002
20
50.150000000000006
10
-222.10000000000002
20
50.150000000000006
42
0.4142135623730222
10
-221.59999999999999
20
50.650000000000006
10
-221.59999999999999
20
63.650000000000006
42
0.41421356237312623
10
-222.10000000000002
20
64.150000000000006
0
LWPOLYLINE
5
119
100
AcDbEntity
8
0
100
AcDbPolyline
90
8
70
1
43
0.0
10
-407.83749999999998
20
50.150000000000006
42
0.41421356237311585
10
-407.33749999999998
20
50.650000000000006
10
-407.33749999999998
20
63.650000000000006
42
0.4142135623730222
10
-407.83749999999998
20
64.149999999999977
10
-420.83750000000003
20
64.150000000000006
42
0.41421356237318868
10
-421.33749999999998
20
63.650000000000006
10
-421.33749999999998
20
50.650000000000006
42
0.4142135623730222
10
-420.83750000000003
20
50.150000000000034
0
LWPOLYLINE
5
120
100
AcDbEntity
8
0
100
AcDbPolyline
90
8
70
1
43
0.0
10
-316.85000000000002
20
63.650000000000006
10
-316.84999999999997
20
50.650000000000006
42
-0.41421356237307422
10
-317.35000000000002
20
50.150000000000006
10
-330.35000000000002
20
50.150000000000013
42
-0.4142135623730222
10
-330.85000000000002
20
50.650000000000006
10
-330.85000000000002
20
63.650000000000006
42
-0.41421356237318868
10
-330.35000000000002
20
64.150000000000006
10
-317.35000000000002
20
64.150000000000006
42
-0.41421356237313667
0
LWPOLYLINE
5
121
100
AcDbEntity
8
0
100
AcDbPolyline
90
8
70
1
43
0.0
10
-366.06875000000002
20
83.200000000000017
42
0.41421356237310542
10
-366.56875000000002
20
82.700000000000017
10
-366.56875000000002
20
69.700000000000003
42
0.4142135623730222
10
-366.06875000000002
20
69.200000000000031
10
-353.06875000000002
20
69.200000000000003
42
0.41421356237310542
10
-352.56875000000008
20
69.700000000000003
10
-352.56875000000008
20
82.700000000000017
42
0.4142135623730222
10
-353.06875000000002
20
83.200000000000017
0
LWPOLYLINE
5
122
100
AcDbEntity
8
0
100
AcDbPolyline
90
8
70
1
43
0.0
10
-297.51250000000005
20
69.700000000000003
10
-297.51250000000005
20
82.700000000000017
42
-0.4142135623730846
10
-297.01250000000005
20
83.200000000000017
10
-284.01249999999999
20
83.200000000000017
42
-0.41421356237309503
10
-283.51249999999999
20
82.700000000000017
10
-283.51249999999999
20
69.700000000000003
42
-0.41421356237307422
10
-284.01249999999999
20
69.200000000000003
10
-297.01250000000005
20
69.200000000000017
42
-0.41421356237312623
0
LWPOLYLINE
5
123
100
AcDbEntity
8
0
100
AcDbPolyline
90
8
70
1
43
0.0
10
-264.96249999999998
20
69.200000000000003
10
-277.96249999999998
20
69.200000000000017
42
-0.41421356237312623
10
-278.46250000000003
20
69.700000000000003
10
-278.46250000000003
20
82.700000000000017
42
-0.4142135623730846
10
-277.96249999999998
20
83.200000000000017
10
-264.96249999999998
20
83.200000000000017
42
-0.41421356237309503
10
-264.46249999999998
20
82.700000000000017
10
-264.46249999999998
20
69.700000000000003
42
-0.41421356237307422
0
LWPOLYLINE
5
124
100
AcDbEntity
8
0
100
AcDbPolyline
90
8
70
1
43
0.0
10
-335.61250000000001
20
69.700000000000003
42
0.4142135623730222
10
-335.11250000000007
20
69.200000000000017
10
-322.11250000000001
20
69.200000000000003
42
0.41421356237318868
10
-321.61250000000001
20
69.700000000000003
10
-321.61250000000001
20
82.700000000000017
42
0.4142135623730222
10
-322.11250000000001
20
83.199999999999989
10
-335.11250000000007
20
83.200000000000017
42
0.41421356237310542
10
-335.61250000000001
20
82.700000000000017
0
LWPOLYLINE
5
125
100
AcDbEntity
8
0
100
AcDbPolyline
90
8
70
1
43
0.0
10
-258.91250000000002
20
83.200000000000017
10
-245.91250000000002
20
83.200000000000003
42
-0.4142135623730846
10
-245.41250000000002
20
82.700000000000017
10
-245.41250000000005
20
69.700000000000003
42
-0.4142135623730222
10
-245.91250000000002
20
69.200000000000003
10
-258.91250000000002
20
69.200000000000003
42
-0.41421356237313667
10
-259.41250000000002
20
69.700000000000003
10
-259.41250000000002
20
82.700000000000017
42
-0.41421356237309503
0
LWPOLYLINE
5
126
100
AcDbEntity
8
0
100
AcDbPolyline
90
8
70
1
43
0.0
10
-303.0625
20
69.200000000000003
42
0.41421356237307422
10
-302.5625
20
69.700000000000003
10
-302.5625
20
82.700000000000017
42
0.41421356237309503
10
-303.0625
20
83.200000000000017
10
-316.0625
20
83.200000000000017
42
0.4142135623730846
10
-316.56250000000006
20
82.700000000000017
10
-316.56250000000006
20
69.700000000000003
42
0.41421356237312623
10
-316.0625
20
69.200000000000003
0
LWPOLYLINE
5
127
100
AcDbEntity
8
0
100
AcDbPolyline
90
8
70
1
43
0.0
10
-226.86250000000001
20
69.200000000000003
10
-239.86250000000001
20
69.200000000000003
42
-0.41421356237313667
10
-240.36250000000001
20
69.700000000000003
10
-240.36250000000001
20
82.700000000000017
42
-0.41421356237309503
10
-239.86250000000001
20
83.200000000000017
10
-226.86250000000001
20
83.200000000000003
42
-0.4142135623730846
10
-226.36250000000001
20
82.700000000000017
10
-226.36250000000004
20
69.700000000000003
42
-0.4142135623730222
0
LWPOLYLINE
5
128
100
AcDbEntity
8
0
100
AcDbPolyline
90
8
70
1
43
0.0
10
-351.13074999999992
20
69.700000000000003
10
-351.13074999999992
20
83.700000000000017
42
-0.41421356237312623
10
-350.63074999999998
20
84.200000000000017
10
-344.63074999999998
20
84.200000000000003
42
-0.4142135623730222
10
-344.13074999999998
20
83.700000000000017
10
-344.13074999999998
20
69.700000000000003
42
-0.41421356237318868
10
-344.63074999999998
20
69.200000000000003
10
-350.63074999999998
20
69.200000000000017
42
-0.4142135623730222
0
LWPOLYLINE
5
129
100
AcDbEntity
8
0
100
AcDbPolyline
90
8
70
1
43
0.0
10
-254.93750000000003
20
101.75
42
0.41421356237310542
10
-255.43750000000003
20
102.25000000000003
10
-268.4375
20
102.25000000000001
42
0.41421356237310542
10
-268.9375
20
101.75
10
-268.9375
20
88.75
42
0.41421356237310542
10
-268.4375
20
88.25
10
-255.43750000000003
20
88.25
42
0.41421356237310542
10
-254.93750000000003
20
88.75
0
LWPOLYLINE
5
130
100
AcDbEntity
8
0
100
AcDbPolyline
90
8
70
1
43
0.0
10
-368.00675000000007
20
83.700000000000017
42
0.4142135623730222
10
-368.50675000000001
20
84.200000000000003
10
-374.50675000000001
20
84.200000000000017
42
0.41421356237312623
10
-375.00675000000001
20
83.700000000000017
10
-375.00675000000001
20
69.700000000000003
42
0.4142135623730222
10
-374.50675000000001
20
69.200000000000031
10
-368.50675000000001
20
69.200000000000003
42
0.41421356237318868
10
-368.00675000000007
20
69.700000000000003
0
LWPOLYLINE
5
131
100
AcDbEntity
8
0
100
AcDbPolyline
90
8
70
1
43
0.0
10
-249.38749999999999
20
102.25000000000001
10
-236.38750000000002
20
102.25000000000003
42
-0.41421356237310542
10
-235.88750000000002
20
101.75
10
-235.88750000000005
20
88.75
42
-0.41421356237310542
10
-236.38750000000002
20
88.25
10
-249.38749999999999
20
88.249999999999972
42
-0.41421356237310542
10
-249.88749999999999
20
88.75
10
-249.88749999999996
20
101.75
42
-0.41421356237310542
0
LWPOLYLINE
5
132
100
AcDbEntity
8
0
100
AcDbPolyline
90
8
70
1
43
0.0
10
-420.83750000000003
20
83.200000000000017
42
0.41421356237313667
10
-421.33750000000009
20
82.700000000000017
10
-421.33749999999998
20
69.700000000000003
42
0.4142135623730222
10
-420.83750000000003
20
69.200000000000031
10
-407.83749999999998
20
69.200000000000003
42
0.41421356237310542
10
-407.33749999999998
20
69.700000000000003
10
-407.33749999999998
20
82.700000000000017
42
0.4142135623730222
10
-407.83749999999998
20
83.199999999999989
0
LWPOLYLINE
5
133
100
AcDbEntity
8
0
100
AcDbPolyline
90
8
70
1
43
0.0
10
-287.48750000000001
20
102.25000000000001
10
-274.48750000000007
20
102.25000000000003
42
-0.41421356237310542
10
-273.98750000000001
20
101.75
10
-273.98750000000007
20
88.75
42
-0.41421356237310542
10
-274.48750000000007
20
88.25
10
-287.48750000000001
20
88.249999999999972
42
-0.41421356237310542
10
-287.98750000000001
20
88.75
10
-287.98749999999995
20
101.75
42
-0.41421356237310542
0
LWPOLYLINE
5
134
100
AcDbEntity
8
0
100
AcDbPolyline
90
8
70
1
43
0.0
10
-402.28750000000002
20
69.700000000000003
42
0.4142135623730222
10
-401.78750000000008
20
69.200000000000017
10
-388.78750000000002
20
69.200000000000003
42
0.41421356237318868
10
-388.28750000000008
20
69.700000000000003
10
-388.28750000000008
20
82.700000000000017
42
0.4142135623730222
10
-388.78750000000002
20
83.200000000000017
10
-401.78750000000008
20
83.200000000000017
42
0.41421356237310542
10
-402.28750000000002
20
82.700000000000017
0
LWPOLYLINE
5
135
100
AcDbEntity
8
0
100
AcDbPolyline
90
8
70
1
43
0.0
10
-325.58749999999998
20
102.25000000000001
42
0.41421356237313667
10
-326.08749999999998
20
101.75
10
-326.08749999999992
20
88.75
42
0.4142135623730222
10
-325.58749999999998
20
88.25
10
-312.58749999999998
20
88.25
42
0.41421356237310542
10
-312.08749999999998
20
88.75
10
-312.08749999999998
20
101.75
42
0.41421356237310542
10
-312.58749999999998
20
102.25000000000001
0
LWPOLYLINE
5
136
100
AcDbEntity
8
0
100
AcDbPolyline
90
8
70
1
43
0.0
10
-307.03750000000002
20
88.75
10
-307.03750000000002
20
101.75
42
-0.41421356237310542
10
-306.53750000000002
20
102.25000000000001
10
-293.53750000000002
20
102.25000000000003
42
-0.41421356237310542
10
-293.03750000000002
20
101.75
10
-293.03750000000008
20
88.75
42
-0.41421356237310542
10
-293.53750000000002
20
88.25
10
-306.53750000000002
20
88.249999999999972
42
-0.41421356237310542
0
LWPOLYLINE
5
137
100
AcDbEntity
8
0
100
AcDbPolyline
90
8
70
1
43
0.0
10
-240.65000000000001
20
120.8
10
-240.65000000000003
20
107.80000000000001
42
-0.41421356237310542
10
-241.15000000000003
20
107.30000000000001
10
-254.15000000000003
20
107.30000000000001
42
-0.41421356237313667
10
-254.65000000000003
20
107.80000000000001
10
-254.65000000000003
20
120.8
42
-0.41421356237309503
10
-254.15000000000003
20
121.30000000000001
10
-241.15000000000003
20
121.29999999999998
42
-0.4142135623730846
0
LWPOLYLINE
5
138
100
AcDbEntity
8
0
100
AcDbPolyline
90
8
70
1
43
0.0
10
-236.55000000000001
20
121.30000000000001
42
0.4142135623730846
10
-237.05000000000007
20
120.8
10
-237.05000000000001
20
107.80000000000001
42
0.41421356237310542
10
-236.55000000000001
20
107.30000000000001
10
-235.55000000000004
20
107.30000000000001
42
0.41421356237313667
10
-235.05000000000001
20
107.80000000000001
10
-235.05000000000001
20
120.8
42
0.41421356237309503
10
-235.55000000000004
20
121.30000000000001
0
LWPOLYLINE
5
139
100
AcDbEntity
8
0
100
AcDbPolyline
90
8
70
1
43
0.0
10
-388.28750000000008
20
106.51250000000002
42
0.4142135623730222
10
-388.78750000000002
20
107.0125
10
-401.78750000000008
20
107.01250000000002
42
0.41421356237312623
10
-402.28750000000002
20
106.51250000000002
10
-402.28750000000002
20
93.512500000000003
42
0.4142135623730222
10
-401.78750000000008
20
93.012500000000031
10
-388.78750000000002
20
93.012499999999989
42
0.41421356237313667
10
-388.28750000000008
20
93.512500000000003
0
LWPOLYLINE
5
140
100
AcDbEntity
8
0
100
AcDbPolyline
90
11
70
1
43
0.0
10
-369.74425000000002
20
103.25000000000001
42
0.41421356237313667
10
-370.24425000000008
20
102.75
10
-370.24425000000002
20
102.25000000000001
10
-377.97500000000008
20
102.25000000000001
42
0.41421356237313667
10
-378.47500000000002
20
101.75
10
-378.47500000000002
20
88.75
42
0.4142135623730222
10
-377.97500000000008
20
88.25
10
-363.74425000000002
20
88.25
42
0.41421356237312623
10
-363.24425000000008
20
88.75
10
-363.24425000000008
20
102.75
42
0.4142135623730222
10
-363.74425000000002
20
103.25000000000001
0
LWPOLYLINE
5
141
100
AcDbEntity
8
0
100
AcDbPolyline
90
8
70
1
43
0.0
10
-258.25
20
120.8
10
-258.25
20
107.80000000000001
42
-0.41421356237310542
10
-258.75
20
107.30000000000001
10
-259.75
20
107.29999999999998
42
-0.41421356237310542
10
-260.25
20
107.80000000000001
10
-260.25000000000006
20
120.8
42
-0.4142135623730846
10
-259.75
20
121.30000000000001
10
-258.75
20
121.29999999999998
42
-0.4142135623730846
0
LWPOLYLINE
5
142
100
AcDbEntity
8
0
100
AcDbPolyline
90
8
70
1
43
0.0
10
-267.34375
20
107.30000000000001
42
0.41421356237310542
10
-266.84375
20
107.80000000000001
10
-266.84375
20
120.8
42
0.4142135623730846
10
-267.34375
20
121.30000000000001
10
-280.34375
20
121.30000000000001
42
0.41421356237309503
10
-280.84375
20
120.8
10
-280.84375
20
107.80000000000001
42
0.41421356237313667
10
-280.34375
20
107.30000000000001
0
LWPOLYLINE
5
143
100
AcDbEntity
8
0
100
AcDbPolyline
90
8
70
1
43
0.0
10
-354.66250000000002
20
107.80000000000001
10
-354.66250000000002
20
120.8
42
-0.41421356237310542
10
-354.16250000000002
20
121.30000000000001
10
-338.78125000000006
20
121.29999999999998
42
-0.4142135623730222
10
-338.28125000000006
20
120.8
10
-338.28125
20
107.80000000000001
42
-0.41421356237313667
10
-338.78125000000006
20
107.30000000000001
10
-354.16250000000002
20
107.30000000000003
42
-0.4142135623730222
0
LWPOLYLINE
5
144
100
AcDbEntity
8
0
100
AcDbPolyline
90
14
70
1
43
0.0
10
-338.78125000000006
20
88.25
10
-361.30625000000003
20
88.250000000000014
42
-0.4142135623730222
10
-361.80624999999998
20
88.75
10
-361.80625000000009
20
101.75
42
-0.41421356237313667
10
-361.30625000000003
20
102.25000000000001
10
-346.36824999999999
20
102.25000000000001
10
-346.36824999999999
20
102.75
42
-0.41421356237313667
10
-345.86824999999999
20
103.25000000000001
10
-339.86825000000005
20
103.25
42
-0.4142135623730222
10
-339.36825000000005
20
102.75
10
-339.36824999999999
20
102.25000000000001
10
-338.78125000000006
20
102.25
42
-0.4142135623730222
10
-338.28125000000006
20
101.75
10
-338.28125
20
88.75
42
-0.41421356237313667
0
LWPOLYLINE
5
145
100
AcDbEntity
8
0
100
AcDbPolyline
90
8
70
1
43
0.0
10
-304.15625
20
121.30000000000001
10
-291.15625
20
121.29999999999998
42
-0.4142135623730846
10
-290.65625
20
120.8
10
-290.65625000000006
20
107.80000000000001
42
-0.41421356237310542
10
-291.15625
20
107.30000000000001
10
-304.15625
20
107.30000000000001
42
-0.41421356237313667
10
-304.65625
20
107.80000000000001
10
-304.65625
20
120.8
42
-0.41421356237309503
0
LWPOLYLINE
5
146
100
AcDbEntity
8
0
100
AcDbPolyline
90
8
70
1
43
0.0
10
-358.26250000000005
20
120.8
10
-358.26250000000005
20
107.80000000000001
42
-0.41421356237312623
10
-358.76249999999999
20
107.30000000000001
10
-359.76249999999999
20
107.30000000000003
42
-0.4142135623730222
10
-360.26249999999999
20
107.80000000000001
10
-360.26250000000005
20
120.8
42
-0.41421356237313667
10
-359.76249999999999
20
121.30000000000001
10
-358.76249999999999
20
121.29999999999998
42
-0.4142135623730222
0
LWPOLYLINE
5
147
100
AcDbEntity
8
0
100
AcDbPolyline
90
8
70
1
43
0.0
10
-407.83749999999998
20
112.0625
42
0.41421356237312623
10
-407.33749999999998
20
112.56250000000001
10
-407.33749999999998
20
125.5625
42
0.4142135623730222
10
-407.83749999999998
20
126.06250000000003
10
-420.83750000000003
20
126.06250000000001
42
0.41421356237312623
10
-421.33749999999998
20
125.56250000000003
10
-421.33749999999998
20
112.56250000000001
42
0.4142135623730222
10
-420.83750000000003
20
112.06250000000004
0
LWPOLYLINE
5
148
100
AcDbEntity
8
0
100
AcDbPolyline
90
8
70
1
43
0.0
10
-264.17500000000007
20
31.600000000000001
42
0.41421356237313145
10
-263.67500000000001
20
31.100000000000001
10
-250.67500000000001
20
31.100000000000001
42
0.41421356237304563
10
-250.17500000000001
20
31.600000000000001
10
-250.17500000000001
20
44.600000000000001
42
0.41421356237312101
10
-250.67500000000001
20
45.099999999999994
10
-263.67500000000001
20
45.099999999999994
42
0.41421356237307422
10
-264.17500000000007
20
44.600000000000001
0
LWPOLYLINE
5
149
100
AcDbEntity
8
0
100
AcDbPolyline
90
8
70
1
43
0.0
10
-335.0625
20
120.8
42
0.4142135623730222
10
-335.5625
20
121.29999999999998
10
-336.5625
20
121.30000000000001
42
0.41421356237310542
10
-337.0625
20
120.8
10
-337.0625
20
107.80000000000001
42
0.4142135623730222
10
-336.5625
20
107.30000000000001
10
-335.5625
20
107.30000000000001
42
0.41421356237313667
10
-335.0625
20
107.80000000000001
0
LWPOLYLINE
5
150
100
AcDbEntity
8
0
100
AcDbPolyline
90
8
70
1
43
0.0
10
-388.28750000000008
20
125.5625
42
0.4142135623730222
10
-388.78750000000002
20
126.0625
10
-401.78750000000008
20
126.06250000000001
42
0.41421356237309503
10
-402.28750000000002
20
125.56250000000003
10
-402.28750000000002
20
112.56250000000001
42
0.4142135623730222
10
-401.78750000000008
20
112.0625
10
-388.78750000000002
20
112.0625
42
0.41421356237313667
10
-388.28750000000008
20
112.56250000000001
0
LWPOLYLINE
5
151
100
AcDbEntity
8
0
100
AcDbPolyline
90
8
70
1
43
0.0
10
-314.46875
20
120.8
42
0.4142135623730846
10
-314.96875
20
121.29999999999998
10
-327.96875
20
121.30000000000001
42
0.41421356237310542
10
-328.46875
20
120.8
10
-328.46875
20
107.80000000000001
42
0.4142135623730222
10
-327.96875
20
107.30000000000004
10
-314.96875
20
107.30000000000001
42
0.41421356237310542
10
-314.46875
20
107.80000000000001
0
LWPOLYLINE
5
152
100
AcDbEntity
8
0
100
AcDbPolyline
90
8
70
1
43
0.0
10
-383.23749999999995
20
112.56250000000001
10
-383.23750000000007
20
125.56250000000003
42
-0.41421356237312623
10
-382.73750000000001
20
126.06250000000001
10
-369.73750000000001
20
126.0625
42
-0.4142135623730222
10
-369.23750000000007
20
125.5625
10
-369.23749999999995
20
112.56250000000001
42
-0.41421356237313667
10
-369.73750000000001
20
112.0625
10
-382.73750000000001
20
112.06250000000003
42
-0.4142135623730222
0
LWPOLYLINE
5
153
100
AcDbEntity
8
0
100
AcDbPolyline
90
8
70
1
43
0.0
10
-373.71249999999998
20
50.650000000000006
10
-373.71249999999998
20
63.650000000000006
42
-0.41421356237318868
10
-373.21249999999998
20
64.150000000000006
10
-360.21250000000003
20
64.149999999999991
42
-0.4142135623730222
10
-359.71250000000003
20
63.650000000000006
10
-359.71250000000003
20
50.650000000000006
42
-0.41421356237319906
10
-360.21250000000003
20
50.150000000000006
10
-373.21249999999998
20
50.150000000000013
42
-0.4142135623730222
0
LWPOLYLINE
5
154
100
AcDbEntity
8
0
100
AcDbPolyline
90
8
70
1
43
0.0
10
-388.78750000000002
20
50.150000000000006
10
-401.78750000000008
20
50.150000000000013
42
-0.4142135623730222
10
-402.28750000000002
20
50.650000000000006
10
-402.28750000000002
20
63.650000000000006
42
-0.41421356237310542
10
-401.78750000000008
20
64.150000000000006
10
-388.78750000000002
20
64.149999999999991
42
-0.4142135623730222
10
-388.28750000000008
20
63.650000000000006
10
-388.28750000000008
20
50.650000000000006
42
-0.41421356237319906
0
CIRCLE
5
155
100
AcDbEntity
8
0
100
AcDbCircle
10
-430.9375
20
45.337500000000006
30
0
40
1.4500000000000313
210
0
220
-0
230
1
0
CIRCLE
5
156
100
AcDbEntity
8
0
100
AcDbCircle
10
-344.56900000000013
20
9.6000000000000014
30
0
40
1.4500000000000313
210
0
220
-0
230
1
0
CIRCLE
5
157
100
AcDbEntity
8
0
100
AcDbCircle
10
-247.56900000000002
20
9.6000000000000014
30
0
40
1.4499999999999957
210
0
220
-0
230
1
0
CIRCLE
5
158
100
AcDbEntity
8
0
100
AcDbCircle
10
-430.9375
20
129.90000000000001
30
0
40
1.4500000000000313
210
0
220
-0
230
1
0
CIRCLE
5
159
100
AcDbEntity
8
0
100
AcDbCircle
10
-236.46250000000003
20
129.89999999999998
30
0
40
1.4499999999999957
210
0
220
-0
230
1
0
CIRCLE
5
160
100
AcDbEntity
8
0
100
AcDbCircle
10
-333.70000000000005
20
129.89999999999998
30
0
40
1.4499999999999602
210
0
220
-0
230
1
0
CIRCLE
5
161
100
AcDbEntity
8
0
100
AcDbCircle
10
-359.63750000000005
20
129.90000000000001
30
0
40
1.4500000000000313
210
0
220
-0
230
1
0
LWPOLYLINE
5
162
100
AcDbEntity
8
0
100
AcDbPolyline
90
8
70
1
43
0.0
10
-287.71900000000005
20
25.072000000000003
42
0.41421356237309503
10
-288.71900000000005
20
26.072000000000003
10
-303.41900000000004
20
26.072000000000003
42
0.41421356237309503
10
-304.41900000000004
20
25.072000000000003
10
-304.41900000000004
20
14.472000000000003
42
0.41421356237309503
10
-303.41900000000004
20
13.472000000000001
10
-288.71900000000005
20
13.472000000000005
42
0.41421356237309503
10
-287.71900000000005
20
14.472000000000003
0
LWPOLYLINE
5
163
100
AcDbEntity
8
0
100
AcDbPolyline
90
8
70
1
43
0.0
10
-325.81899999999996
20
25.072000000000003
42
0.41421356237309503
10
-326.81899999999996
20
26.072000000000003
10
-341.51900000000001
20
26.072000000000003
42
0.41421356237309503
10
-342.51900000000006
20
25.072000000000003
10
-342.51900000000001
20
14.472000000000003
42
0.41421356237309503
10
-341.51900000000001
20
13.472000000000001
10
-326.81899999999996
20
13.472000000000005
42
0.41421356237309503
10
-325.81900000000007
20
14.472000000000003
0
ENDSEC
0
SECTION
2
OBJECTS
0
DICTIONARY
5
C
100
AcDbDictionary
3
ACAD_GROUP
350
D
3
ACAD_MLINESTYLE
350
17
0
DICTIONARY
5
D
100
AcDbDictionary
0
DICTIONARY
5
1A
330
C
100
AcDbDictionary
0
DICTIONARY
5
17
100
AcDbDictionary
0
ENDSEC
0
EOF
