%FSLAX45Y45*%
G04 Gerber Fmt 4.5, Leading zero omitted, Abs format (unit mm)*
G04 Created by KiCad (PCBNEW (6.0.5)) date 2022-07-28 20:29:54*
%MOMM*%
%LPD*%
G01*
G04 APERTURE LIST*
%TA.AperFunction,Profile*%
%ADD10C,0.300000*%
%TD*%
%ADD11C,0.200000*%
G04 APERTURE END LIST*
D10*
X14157280Y-8459645D02*
X14157280Y-7159645D01*
X17779155Y-9014635D02*
G75*
G03*
X17729155Y-9064645I5J-50005D01*
G01*
X12914175Y-3541845D02*
G75*
G03*
X12814180Y-3441845I-99995J5D01*
G01*
X23206030Y-13350895D02*
X23206030Y-14650895D01*
X9316030Y-10919645D02*
X8016030Y-10919645D01*
X5818525Y-15184645D02*
G75*
G03*
X6018530Y-15384645I200005J5D01*
G01*
X15269155Y-12824645D02*
X13969155Y-12824645D01*
X6729180Y-4699645D02*
G75*
G03*
X6929180Y-4499645I0J200000D01*
G01*
X15978530Y-12874645D02*
X15978530Y-14174645D01*
X18602905Y-12319635D02*
G75*
G03*
X18652905Y-12269645I5J49995D01*
G01*
X7937275Y-12874645D02*
G75*
G03*
X7887280Y-12824645I-49995J5D01*
G01*
X23206025Y-6128395D02*
G75*
G03*
X23406030Y-6328395I200005J5D01*
G01*
X4866025Y-10457145D02*
G75*
G03*
X5066030Y-10657145I200005J5D01*
G01*
X18083530Y-7159645D02*
X18083530Y-8459645D01*
X16178530Y-14174645D02*
X16178530Y-12874645D01*
X6537275Y-14174645D02*
G75*
G03*
X6587280Y-14224645I50005J5D01*
G01*
X9104175Y-3541845D02*
G75*
G03*
X9004180Y-3441845I-99995J5D01*
G01*
X16028530Y-12824640D02*
G75*
G03*
X15978530Y-12874645I0J-50000D01*
G01*
X20269780Y-6604645D02*
X20211080Y-6604645D01*
X24606030Y-14650895D02*
X24606030Y-13350895D01*
X13149175Y-4601845D02*
G75*
G03*
X13249180Y-4701845I100005J5D01*
G01*
X8016030Y-12319645D02*
X9316030Y-12319645D01*
X9439180Y-4701845D02*
X10909180Y-4701845D01*
X6537280Y-7159645D02*
X6537280Y-8459645D01*
X13126030Y-12319645D02*
X11826030Y-12319645D01*
X16459780Y-6604645D02*
X15159780Y-6604645D01*
X24556030Y-9014645D02*
X23256030Y-9014645D01*
X12252280Y-8459645D02*
X12252280Y-7159645D01*
X17535355Y-10514645D02*
X16935355Y-10514645D01*
X15507280Y-8509640D02*
G75*
G03*
X15557280Y-8459645I0J50000D01*
G01*
X10909180Y-4701840D02*
G75*
G03*
X11009180Y-4601845I0J100000D01*
G01*
X17462280Y-7159645D02*
X17462280Y-8459645D01*
X8889780Y-6554645D02*
X8889780Y-5254645D01*
X17729155Y-9064645D02*
X17729155Y-10364645D01*
X14819175Y-3541845D02*
G75*
G03*
X14719180Y-3441845I-99995J5D01*
G01*
X6587280Y-8509645D02*
X7887280Y-8509645D01*
X14683530Y-10414645D02*
X15983530Y-10414645D01*
X16350405Y-10919645D02*
X18602905Y-10919645D01*
X10794780Y-5254645D02*
X10794780Y-6554645D01*
X16509775Y-5254645D02*
G75*
G03*
X16459780Y-5204645I-49995J5D01*
G01*
X11747275Y-7159645D02*
G75*
G03*
X11697280Y-7109645I-49995J5D01*
G01*
X19511075Y-6654645D02*
G75*
G03*
X19561080Y-6704645I50005J5D01*
G01*
X15983530Y-10414640D02*
G75*
G03*
X16033530Y-10364645I0J50000D01*
G01*
X5977280Y-12874645D02*
X5977280Y-14174645D01*
X13969155Y-14224645D02*
X15269155Y-14224645D01*
X5584775Y-6554645D02*
G75*
G03*
X5634780Y-6604645I50005J5D01*
G01*
X17888530Y-14224645D02*
X16350405Y-14224645D01*
X20161080Y-6704640D02*
G75*
G03*
X20211080Y-6654645I0J50000D01*
G01*
X16112280Y-7109645D02*
X17412280Y-7109645D01*
X16724180Y-4601845D02*
X16724180Y-3541845D01*
X12728525Y-10364645D02*
G75*
G03*
X12778530Y-10414645I50005J5D01*
G01*
X10318525Y-9064645D02*
G75*
G03*
X10268530Y-9014645I-49995J5D01*
G01*
X23006030Y-4223395D02*
X21203985Y-4223395D01*
X23256030Y-10414645D02*
X24556030Y-10414645D01*
X12814180Y-4701840D02*
G75*
G03*
X12914180Y-4601845I0J100000D01*
G01*
X10744780Y-6604640D02*
G75*
G03*
X10794780Y-6554645I0J50000D01*
G01*
X9104180Y-4601845D02*
X9104180Y-3541845D01*
X18443525Y-8459645D02*
G75*
G03*
X18493530Y-8509645I50005J5D01*
G01*
X16724175Y-3541845D02*
G75*
G03*
X16624180Y-3441845I-99995J5D01*
G01*
X10556655Y-12874645D02*
G75*
G03*
X10506655Y-12824645I-49995J5D01*
G01*
X22651030Y-13300895D02*
X21351030Y-13300895D01*
X13249180Y-4701845D02*
X14719180Y-4701845D01*
X17823480Y-6604645D02*
X17823480Y-6654645D01*
X24556030Y-8509640D02*
G75*
G03*
X24606030Y-8459645I0J50000D01*
G01*
X21351030Y-10414645D02*
X22651030Y-10414645D01*
X9921030Y-10919645D02*
X11221030Y-10919645D01*
X17535355Y-10514635D02*
G75*
G03*
X17585355Y-10464645I5J49995D01*
G01*
X17123480Y-6604645D02*
X17064780Y-6604645D01*
X23206025Y-8459645D02*
G75*
G03*
X23256030Y-8509645I50005J5D01*
G01*
X12223530Y-9064645D02*
X12223530Y-10364645D01*
X22701025Y-4778395D02*
G75*
G03*
X22651030Y-4728395I-49995J5D01*
G01*
X14207280Y-7109645D02*
X15507280Y-7109645D01*
X13602280Y-8509640D02*
G75*
G03*
X13652280Y-8459645I0J50000D01*
G01*
X8297275Y-14174645D02*
G75*
G03*
X8347280Y-14224645I50005J5D01*
G01*
X8839780Y-6604640D02*
G75*
G03*
X8889780Y-6554645I0J50000D01*
G01*
X17883525Y-8459645D02*
G75*
G03*
X17933530Y-8509645I50005J5D01*
G01*
X11349780Y-5204640D02*
G75*
G03*
X11299780Y-5254645I0J-50000D01*
G01*
X5818525Y-10857145D02*
G75*
G03*
X5618530Y-10657145I-199995J5D01*
G01*
X8968530Y-9014645D02*
X10268530Y-9014645D01*
X13652280Y-7159645D02*
X13652280Y-8459645D01*
X8413525Y-9064645D02*
G75*
G03*
X8363530Y-9014645I-49995J5D01*
G01*
X4632275Y-8459645D02*
G75*
G03*
X4682280Y-8509645I50005J5D01*
G01*
X6984775Y-5254645D02*
G75*
G03*
X6934780Y-5204645I-49995J5D01*
G01*
X18581030Y-15084645D02*
G75*
G03*
X18581030Y-15084645I-145000J0D01*
G01*
X6587280Y-12824645D02*
X7887280Y-12824645D01*
X5066030Y-10657145D02*
X5618530Y-10657145D01*
X15507280Y-8509645D02*
X14207280Y-8509645D01*
X19922955Y-10514635D02*
G75*
G03*
X19972955Y-10464645I5J49995D01*
G01*
X4589780Y-6867145D02*
G75*
G03*
X4389780Y-7067145I0J-200000D01*
G01*
X22701030Y-4778395D02*
X22701030Y-6078395D01*
X7411030Y-12319640D02*
G75*
G03*
X7461030Y-12269645I0J50000D01*
G01*
X22701030Y-7159645D02*
X22701030Y-8459645D01*
X19272955Y-9064645D02*
X19272955Y-10464645D01*
X25711030Y-15084645D02*
G75*
G03*
X25711030Y-15084645I-145000J0D01*
G01*
X11244180Y-3541845D02*
X11244180Y-4601845D01*
X19843525Y-7159645D02*
G75*
G03*
X19793530Y-7109645I-49995J5D01*
G01*
X21351030Y-11395890D02*
G75*
G03*
X21301030Y-11445895I0J-50000D01*
G01*
X20319775Y-10969645D02*
G75*
G03*
X20269780Y-10919645I-49995J5D01*
G01*
X12302280Y-7109640D02*
G75*
G03*
X12252280Y-7159645I0J-50000D01*
G01*
X20319780Y-5254645D02*
X20319780Y-6554645D01*
X11271030Y-10969645D02*
X11271030Y-12269645D01*
X13176030Y-10969645D02*
X13176030Y-12269645D01*
X16350405Y-10919635D02*
G75*
G03*
X16300405Y-10969645I5J-50005D01*
G01*
X12728530Y-9064645D02*
X12728530Y-10364645D01*
X19496705Y-12319645D02*
X20269780Y-12319645D01*
X18796705Y-12369645D02*
G75*
G03*
X18846705Y-12419645I50005J5D01*
G01*
X18493530Y-7109645D02*
X19793530Y-7109645D01*
X13204780Y-5254645D02*
X13204780Y-6554645D01*
X18493530Y-7109640D02*
G75*
G03*
X18443530Y-7159645I0J-50000D01*
G01*
X23256030Y-8509645D02*
X24556030Y-8509645D01*
X18348530Y-12824645D02*
X18448530Y-12824645D01*
X17014780Y-6554645D02*
X17014780Y-5254645D01*
X6984780Y-6554645D02*
X6984780Y-5254645D01*
X21351030Y-4728395D02*
X22651030Y-4728395D01*
X7887280Y-8509640D02*
G75*
G03*
X7937280Y-8459645I0J50000D01*
G01*
X11537905Y-14174645D02*
G75*
G03*
X11587905Y-14224645I50005J5D01*
G01*
X5634780Y-5204640D02*
G75*
G03*
X5584780Y-5254645I0J-50000D01*
G01*
X16033530Y-10364645D02*
X16033530Y-9064645D01*
X10397280Y-7109645D02*
X11697280Y-7109645D01*
X15031030Y-12319640D02*
G75*
G03*
X15081030Y-12269645I0J50000D01*
G01*
X4589780Y-8752145D02*
X4666030Y-8752145D01*
X7887280Y-14224645D02*
X6587280Y-14224645D01*
X6027280Y-12824640D02*
G75*
G03*
X5977280Y-12874645I0J-50000D01*
G01*
X14719180Y-3441845D02*
X13249180Y-3441845D01*
X5818530Y-10857145D02*
X5818530Y-15184645D01*
X15159780Y-5204640D02*
G75*
G03*
X15109780Y-5254645I0J-50000D01*
G01*
X4389775Y-8552145D02*
G75*
G03*
X4589780Y-8752145I200005J5D01*
G01*
X12699780Y-5254645D02*
X12699780Y-6554645D01*
X11697280Y-8509645D02*
X10397280Y-8509645D01*
X5634780Y-6604645D02*
X6934780Y-6604645D01*
X15154180Y-3441840D02*
G75*
G03*
X15054180Y-3541845I0J-100000D01*
G01*
X12649780Y-6604640D02*
G75*
G03*
X12699780Y-6554645I0J50000D01*
G01*
X9444780Y-5204645D02*
X10744780Y-5204645D01*
X10823525Y-10364645D02*
G75*
G03*
X10873530Y-10414645I50005J5D01*
G01*
X9792280Y-8509640D02*
G75*
G03*
X9842280Y-8459645I0J50000D01*
G01*
X8918530Y-10364645D02*
X8918530Y-9064645D01*
X22701030Y-12745895D02*
X22701030Y-11445895D01*
X22651030Y-12795890D02*
G75*
G03*
X22701030Y-12745895I0J50000D01*
G01*
X11776030Y-12269645D02*
X11776030Y-10969645D01*
X16409105Y-12319645D02*
X16350405Y-12319645D01*
X9444780Y-5204640D02*
G75*
G03*
X9394780Y-5254645I0J-50000D01*
G01*
X19511080Y-6604645D02*
X17823480Y-6604645D01*
X8497275Y-12874645D02*
G75*
G03*
X8447280Y-12824645I-49995J5D01*
G01*
X19396030Y-14650895D02*
X19396030Y-13350895D01*
X11697280Y-8509640D02*
G75*
G03*
X11747280Y-8459645I0J50000D01*
G01*
X15319155Y-14174645D02*
X15319155Y-12874645D01*
X16350405Y-12824635D02*
G75*
G03*
X16300405Y-12874645I5J-50005D01*
G01*
X6018530Y-15384645D02*
X25666030Y-15384645D01*
X17729155Y-10364645D02*
G75*
G03*
X17779155Y-10414645I50005J5D01*
G01*
X21301025Y-14650895D02*
G75*
G03*
X21351030Y-14700895I50005J5D01*
G01*
X22651030Y-10414640D02*
G75*
G03*
X22701030Y-10364645I0J50000D01*
G01*
X14719180Y-4701840D02*
G75*
G03*
X14819180Y-4601845I0J100000D01*
G01*
X9366025Y-10969645D02*
G75*
G03*
X9316030Y-10919645I-49995J5D01*
G01*
X17229175Y-2954645D02*
G75*
G03*
X17029180Y-2754645I-199995J5D01*
G01*
X18348530Y-12824640D02*
G75*
G03*
X18298530Y-12874645I0J-50000D01*
G01*
X11009180Y-4601845D02*
X11009180Y-3541845D01*
X8447280Y-14224640D02*
G75*
G03*
X8497280Y-14174645I0J50000D01*
G01*
X15031030Y-10919645D02*
X13731030Y-10919645D01*
X6537275Y-8459645D02*
G75*
G03*
X6587280Y-8509645I50005J5D01*
G01*
X20319780Y-12269645D02*
X20319780Y-10969645D01*
X11244175Y-4601845D02*
G75*
G03*
X11344180Y-4701845I100005J5D01*
G01*
X14633525Y-10364645D02*
G75*
G03*
X14683530Y-10414645I50005J5D01*
G01*
X8492280Y-7109640D02*
G75*
G03*
X8442280Y-7159645I0J-50000D01*
G01*
X14207280Y-7109640D02*
G75*
G03*
X14157280Y-7159645I0J-50000D01*
G01*
X7434175Y-4601845D02*
G75*
G03*
X7534180Y-4701845I100005J5D01*
G01*
X7534180Y-4701845D02*
X9004180Y-4701845D01*
X9206655Y-14224645D02*
X10506655Y-14224645D01*
X25866025Y-6528395D02*
G75*
G03*
X25666030Y-6328395I-199995J5D01*
G01*
X15978525Y-14174645D02*
G75*
G03*
X16028530Y-14224645I50005J5D01*
G01*
X17123480Y-6654645D02*
X17123480Y-6604645D01*
X19129155Y-9064645D02*
G75*
G03*
X19079155Y-9014645I-49995J5D01*
G01*
X7887280Y-7109645D02*
X6587280Y-7109645D01*
X21351030Y-13300890D02*
G75*
G03*
X21301030Y-13350895I0J-50000D01*
G01*
X25866030Y-15184645D02*
X25866030Y-6528395D01*
X17123475Y-6654645D02*
G75*
G03*
X17173480Y-6704645I50005J5D01*
G01*
X7489775Y-6554645D02*
G75*
G03*
X7539780Y-6604645I50005J5D01*
G01*
X9156655Y-12874645D02*
X9156655Y-14174645D01*
X17938530Y-12874645D02*
X17938530Y-14174645D01*
X16062280Y-8459645D02*
X16062280Y-7159645D01*
X16300405Y-14174645D02*
G75*
G03*
X16350405Y-14224645I50005J5D01*
G01*
X7966030Y-10969645D02*
X7966030Y-12269645D01*
X21301030Y-13350895D02*
X21301030Y-14650895D01*
X14128530Y-10364645D02*
X14128530Y-9064645D01*
X16178525Y-12874645D02*
G75*
G03*
X16128530Y-12824645I-49995J5D01*
G01*
X22651030Y-9014645D02*
X21351030Y-9014645D01*
X15987280Y-15084645D02*
G75*
G03*
X15987280Y-15084645I-145000J0D01*
G01*
X17059105Y-12419635D02*
G75*
G03*
X17109105Y-12369645I5J49995D01*
G01*
X16128530Y-12824645D02*
X16028530Y-12824645D01*
X10268530Y-10414645D02*
X8968530Y-10414645D01*
X20253530Y-7109645D02*
X20353530Y-7109645D01*
X23256030Y-13300890D02*
G75*
G03*
X23206030Y-13350895I0J-50000D01*
G01*
X23206025Y-4423395D02*
G75*
G03*
X23006030Y-4223395I-199995J5D01*
G01*
X16062275Y-8459645D02*
G75*
G03*
X16112280Y-8509645I50005J5D01*
G01*
X10506655Y-12824645D02*
X9206655Y-12824645D01*
X7411030Y-12319645D02*
X6111030Y-12319645D01*
X14633530Y-9064645D02*
X14633530Y-10364645D01*
X13176025Y-10969645D02*
G75*
G03*
X13126030Y-10919645I-49995J5D01*
G01*
X22701025Y-7159645D02*
G75*
G03*
X22651030Y-7109645I-49995J5D01*
G01*
X9004180Y-3441845D02*
X7534180Y-3441845D01*
X19446030Y-13300890D02*
G75*
G03*
X19396030Y-13350895I0J-50000D01*
G01*
X17933530Y-7109640D02*
G75*
G03*
X17883530Y-7159645I0J-50000D01*
G01*
X10506655Y-14224635D02*
G75*
G03*
X10556655Y-14174645I5J49995D01*
G01*
X15081025Y-10969645D02*
G75*
G03*
X15031030Y-10919645I-49995J5D01*
G01*
X5982280Y-7109645D02*
X4682280Y-7109645D01*
X13204775Y-6554645D02*
G75*
G03*
X13254780Y-6604645I50005J5D01*
G01*
X23256030Y-7109640D02*
G75*
G03*
X23206030Y-7159645I0J-50000D01*
G01*
X13681025Y-12269645D02*
G75*
G03*
X13731030Y-12319645I50005J5D01*
G01*
X9366030Y-12269645D02*
X9366030Y-10969645D01*
X15269155Y-14224635D02*
G75*
G03*
X15319155Y-14174645I5J49995D01*
G01*
X18796705Y-10969645D02*
X18796705Y-12369645D01*
X13969155Y-12824635D02*
G75*
G03*
X13919155Y-12874645I5J-50005D01*
G01*
X17029180Y-2754645D02*
X7129180Y-2754645D01*
X8363530Y-10414640D02*
G75*
G03*
X8413530Y-10364645I0J50000D01*
G01*
X16885355Y-10464645D02*
X16885355Y-9064645D01*
X16935355Y-9014635D02*
G75*
G03*
X16885355Y-9064645I5J-50005D01*
G01*
X19446030Y-13300895D02*
X20746030Y-13300895D01*
X6177280Y-14174645D02*
X6177280Y-12874645D01*
X20353530Y-8509645D02*
X20253530Y-8509645D01*
X8889775Y-5254645D02*
G75*
G03*
X8839780Y-5204645I-49995J5D01*
G01*
X10347275Y-8459645D02*
G75*
G03*
X10397280Y-8509645I50005J5D01*
G01*
X15557275Y-7159645D02*
G75*
G03*
X15507280Y-7109645I-49995J5D01*
G01*
X20796030Y-13350895D02*
X20796030Y-14650895D01*
X7887280Y-14224640D02*
G75*
G03*
X7937280Y-14174645I0J50000D01*
G01*
X9206655Y-12824635D02*
G75*
G03*
X9156655Y-12874645I5J-50005D01*
G01*
X12223525Y-9064645D02*
G75*
G03*
X12173530Y-9014645I-49995J5D01*
G01*
X6032275Y-7159645D02*
G75*
G03*
X5982280Y-7109645I-49995J5D01*
G01*
X5584780Y-5254645D02*
X5584780Y-6554645D01*
X20203530Y-8459645D02*
X20203530Y-7159645D01*
X16128530Y-14224640D02*
G75*
G03*
X16178530Y-14174645I0J50000D01*
G01*
X19496705Y-12369645D02*
X19496705Y-12319645D01*
X15054180Y-3541845D02*
X15054180Y-4601845D01*
X16885355Y-10464645D02*
G75*
G03*
X16935355Y-10514645I50005J5D01*
G01*
X13149180Y-3541845D02*
X13149180Y-4601845D01*
X13254780Y-6604645D02*
X14554780Y-6604645D01*
X21351030Y-7109645D02*
X22651030Y-7109645D01*
X17938525Y-12874645D02*
G75*
G03*
X17888530Y-12824645I-49995J5D01*
G01*
X20269780Y-12319640D02*
G75*
G03*
X20319780Y-12269645I0J50000D01*
G01*
X11221030Y-12319640D02*
G75*
G03*
X11271030Y-12269645I0J50000D01*
G01*
X6027280Y-14224645D02*
X6127280Y-14224645D01*
X17773480Y-6704645D02*
X17173480Y-6704645D01*
X19793530Y-8509640D02*
G75*
G03*
X19843530Y-8459645I0J50000D01*
G01*
X12778530Y-10414645D02*
X14078530Y-10414645D01*
X22651030Y-8509645D02*
X21351030Y-8509645D01*
X16033525Y-9064645D02*
G75*
G03*
X15983530Y-9014645I-49995J5D01*
G01*
X12699775Y-5254645D02*
G75*
G03*
X12649780Y-5204645I-49995J5D01*
G01*
X10318530Y-9064645D02*
X10318530Y-10364645D01*
X6111030Y-10919645D02*
X7411030Y-10919645D01*
X20203525Y-8459645D02*
G75*
G03*
X20253530Y-8509645I50005J5D01*
G01*
X20746030Y-14700890D02*
G75*
G03*
X20796030Y-14650895I0J50000D01*
G01*
X22651030Y-6128395D02*
X21351030Y-6128395D01*
X16300405Y-12269645D02*
G75*
G03*
X16350405Y-12319645I50005J5D01*
G01*
X9792280Y-7109645D02*
X8492280Y-7109645D01*
X7937280Y-8459645D02*
X7937280Y-7159645D01*
X14683530Y-9014640D02*
G75*
G03*
X14633530Y-9064645I0J-50000D01*
G01*
X18448530Y-14224645D02*
X18348530Y-14224645D01*
X12173530Y-10414640D02*
G75*
G03*
X12223530Y-10364645I0J50000D01*
G01*
X20269780Y-6604640D02*
G75*
G03*
X20319780Y-6554645I0J50000D01*
G01*
X21351030Y-14700895D02*
X22651030Y-14700895D01*
X24606030Y-10364645D02*
X24606030Y-9064645D01*
X24606030Y-8459645D02*
X24606030Y-7159645D01*
X5542280Y-4699645D02*
G75*
G03*
X5342280Y-4899645I0J-200000D01*
G01*
X5108525Y-10364645D02*
G75*
G03*
X5158530Y-10414645I50005J5D01*
G01*
X5158530Y-9014640D02*
G75*
G03*
X5108530Y-9064645I0J-50000D01*
G01*
X12252275Y-8459645D02*
G75*
G03*
X12302280Y-8509645I50005J5D01*
G01*
X7013525Y-10364645D02*
G75*
G03*
X7063530Y-10414645I50005J5D01*
G01*
X19793530Y-8509645D02*
X18493530Y-8509645D01*
X13919155Y-12874645D02*
X13919155Y-14174645D01*
X13731030Y-12319645D02*
X15031030Y-12319645D01*
X17014775Y-6554645D02*
G75*
G03*
X17064780Y-6604645I50005J5D01*
G01*
X10347280Y-8459645D02*
X10347280Y-7159645D01*
X17412280Y-8509645D02*
X16112280Y-8509645D01*
X24556030Y-10414640D02*
G75*
G03*
X24606030Y-10364645I0J50000D01*
G01*
X9394775Y-6554645D02*
G75*
G03*
X9444780Y-6604645I50005J5D01*
G01*
X6061025Y-12269645D02*
G75*
G03*
X6111030Y-12319645I50005J5D01*
G01*
X9921030Y-10919640D02*
G75*
G03*
X9871030Y-10969645I0J-50000D01*
G01*
X25711030Y-6628395D02*
G75*
G03*
X25711030Y-6628395I-145000J0D01*
G01*
X11826030Y-10919640D02*
G75*
G03*
X11776030Y-10969645I0J-50000D01*
G01*
X23206030Y-9064645D02*
X23206030Y-10364645D01*
X21062563Y-4281973D02*
X20703470Y-4641066D01*
X8442275Y-8459645D02*
G75*
G03*
X8492280Y-8509645I50005J5D01*
G01*
X18846705Y-10919635D02*
G75*
G03*
X18796705Y-10969645I5J-50005D01*
G01*
X20562049Y-4699645D02*
X17429180Y-4699645D01*
X20269780Y-10919645D02*
X18846705Y-10919645D01*
X19079155Y-9014645D02*
X17779155Y-9014645D01*
X20211080Y-6604645D02*
X20211080Y-6654645D01*
X7966025Y-12269645D02*
G75*
G03*
X8016030Y-12319645I50005J5D01*
G01*
X6929180Y-2954645D02*
X6929180Y-4499645D01*
X20562049Y-4699643D02*
G75*
G03*
X20703470Y-4641066I1J200003D01*
G01*
X5977275Y-14174645D02*
G75*
G03*
X6027280Y-14224645I50005J5D01*
G01*
X6061030Y-12269645D02*
X6061030Y-10969645D01*
X11587905Y-12824645D02*
X12887905Y-12824645D01*
X23256030Y-9014640D02*
G75*
G03*
X23206030Y-9064645I0J-50000D01*
G01*
X6934780Y-5204645D02*
X5634780Y-5204645D01*
X7937275Y-7159645D02*
G75*
G03*
X7887280Y-7109645I-49995J5D01*
G01*
X16624180Y-4701840D02*
G75*
G03*
X16724180Y-4601845I0J100000D01*
G01*
X16935355Y-9014645D02*
X17535355Y-9014645D01*
X22651030Y-11395895D02*
X21351030Y-11395895D01*
X17074180Y-3054645D02*
G75*
G03*
X17074180Y-3054645I-145000J0D01*
G01*
X17059105Y-12419645D02*
X16459105Y-12419645D01*
X17585355Y-9064645D02*
G75*
G03*
X17535355Y-9014645I-49995J5D01*
G01*
X18652905Y-10969645D02*
X18652905Y-12269645D01*
X12887905Y-14224635D02*
G75*
G03*
X12937905Y-14174645I5J49995D01*
G01*
X6127280Y-12824645D02*
X6027280Y-12824645D01*
X20253530Y-7109640D02*
G75*
G03*
X20203530Y-7159645I0J-50000D01*
G01*
X9439180Y-3441840D02*
G75*
G03*
X9339180Y-3541845I0J-100000D01*
G01*
X22651030Y-6128390D02*
G75*
G03*
X22701030Y-6078395I0J50000D01*
G01*
X21351030Y-7109640D02*
G75*
G03*
X21301030Y-7159645I0J-50000D01*
G01*
X14604780Y-6554645D02*
X14604780Y-5254645D01*
X19322955Y-10514645D02*
X19922955Y-10514645D01*
X15983530Y-9014645D02*
X14683530Y-9014645D01*
X9842280Y-8459645D02*
X9842280Y-7159645D01*
X16624180Y-3441845D02*
X15154180Y-3441845D01*
X7534180Y-3441840D02*
G75*
G03*
X7434180Y-3541845I0J-100000D01*
G01*
X20403530Y-7159645D02*
X20403530Y-8459645D01*
X19972955Y-9064645D02*
G75*
G03*
X19922955Y-9014645I-49995J5D01*
G01*
X20746030Y-14700895D02*
X19446030Y-14700895D01*
X9394780Y-6554645D02*
X9394780Y-5254645D01*
X5142280Y-6867145D02*
X4589780Y-6867145D01*
X7539780Y-6604645D02*
X8839780Y-6604645D01*
X21203985Y-4223399D02*
G75*
G03*
X21062563Y-4281973I-5J-200001D01*
G01*
X15154180Y-4701845D02*
X16624180Y-4701845D01*
X14604775Y-5254645D02*
G75*
G03*
X14554780Y-5204645I-49995J5D01*
G01*
X11299775Y-6554645D02*
G75*
G03*
X11349780Y-6604645I50005J5D01*
G01*
X14078530Y-9014645D02*
X12778530Y-9014645D01*
X16409105Y-12369645D02*
G75*
G03*
X16459105Y-12419645I50005J5D01*
G01*
X5142280Y-6867145D02*
G75*
G03*
X5342280Y-6667145I0J200000D01*
G01*
X16509780Y-5254645D02*
X16509780Y-6554645D01*
X4866025Y-8952145D02*
G75*
G03*
X4666030Y-8752145I-199995J5D01*
G01*
X11299780Y-6554645D02*
X11299780Y-5254645D01*
X21351030Y-12795895D02*
X22651030Y-12795895D01*
X8297280Y-14174645D02*
X8297280Y-12874645D01*
X9339175Y-4601845D02*
G75*
G03*
X9439180Y-4701845I100005J5D01*
G01*
X10909180Y-3441845D02*
X9439180Y-3441845D01*
X6111030Y-10919640D02*
G75*
G03*
X6061030Y-10969645I0J-50000D01*
G01*
X11349780Y-5204645D02*
X12649780Y-5204645D01*
X23206025Y-14650895D02*
G75*
G03*
X23256030Y-14700895I50005J5D01*
G01*
X18083525Y-7159645D02*
G75*
G03*
X18033530Y-7109645I-49995J5D01*
G01*
X9339180Y-3541845D02*
X9339180Y-4601845D01*
X20796025Y-13350895D02*
G75*
G03*
X20746030Y-13300895I-49995J5D01*
G01*
X24606025Y-13350895D02*
G75*
G03*
X24556030Y-13300895I-49995J5D01*
G01*
X11271025Y-10969645D02*
G75*
G03*
X11221030Y-10919645I-49995J5D01*
G01*
X6127280Y-14224640D02*
G75*
G03*
X6177280Y-14174645I0J50000D01*
G01*
X16409105Y-12369645D02*
X16409105Y-12319645D01*
X25666030Y-6328395D02*
X23406030Y-6328395D01*
X7063530Y-9014645D02*
X8363530Y-9014645D01*
X11537905Y-14174645D02*
X11537905Y-12874645D01*
X13652275Y-7159645D02*
G75*
G03*
X13602280Y-7109645I-49995J5D01*
G01*
X18033530Y-8509640D02*
G75*
G03*
X18083530Y-8459645I0J50000D01*
G01*
X15557280Y-7159645D02*
X15557280Y-8459645D01*
X13254780Y-5204640D02*
G75*
G03*
X13204780Y-5254645I0J-50000D01*
G01*
X8413530Y-9064645D02*
X8413530Y-10364645D01*
X5108530Y-10364645D02*
X5108530Y-9064645D01*
X6934780Y-6604640D02*
G75*
G03*
X6984780Y-6554645I0J50000D01*
G01*
X15054175Y-4601845D02*
G75*
G03*
X15154180Y-4701845I100005J5D01*
G01*
X10823530Y-10364645D02*
X10823530Y-9064645D01*
X7063530Y-9014640D02*
G75*
G03*
X7013530Y-9064645I0J-50000D01*
G01*
X19511080Y-6654645D02*
X19511080Y-6604645D01*
X20161080Y-6704645D02*
X19561080Y-6704645D01*
X15109775Y-6554645D02*
G75*
G03*
X15159780Y-6604645I50005J5D01*
G01*
X4682280Y-7109640D02*
G75*
G03*
X4632280Y-7159645I0J-50000D01*
G01*
X4682280Y-8509645D02*
X5982280Y-8509645D01*
X5982280Y-8509640D02*
G75*
G03*
X6032280Y-8459645I0J50000D01*
G01*
X18448530Y-14224640D02*
G75*
G03*
X18498530Y-14174645I0J50000D01*
G01*
X17888530Y-14224640D02*
G75*
G03*
X17938530Y-14174645I0J50000D01*
G01*
X14819180Y-4601845D02*
X14819180Y-3541845D01*
X12937905Y-12874645D02*
G75*
G03*
X12887905Y-12824645I-49995J5D01*
G01*
X19972955Y-10464645D02*
X19972955Y-9064645D01*
X14078530Y-10414640D02*
G75*
G03*
X14128530Y-10364645I0J50000D01*
G01*
X13602280Y-8509645D02*
X12302280Y-8509645D01*
X17229180Y-4499645D02*
X17229180Y-2954645D01*
X8447280Y-14224645D02*
X8347280Y-14224645D01*
X18498530Y-12874645D02*
X18498530Y-14174645D01*
X20319775Y-5254645D02*
G75*
G03*
X20269780Y-5204645I-49995J5D01*
G01*
X6587280Y-7109640D02*
G75*
G03*
X6537280Y-7159645I0J-50000D01*
G01*
X20403525Y-7159645D02*
G75*
G03*
X20353530Y-7109645I-49995J5D01*
G01*
X15319155Y-12874645D02*
G75*
G03*
X15269155Y-12824645I-49995J5D01*
G01*
X8347280Y-12824645D02*
X8447280Y-12824645D01*
X8839780Y-5204645D02*
X7539780Y-5204645D01*
X12778530Y-9014640D02*
G75*
G03*
X12728530Y-9064645I0J-50000D01*
G01*
X7129180Y-2754640D02*
G75*
G03*
X6929180Y-2954645I0J-200000D01*
G01*
X7434180Y-3541845D02*
X7434180Y-4601845D01*
X11826030Y-10919645D02*
X13126030Y-10919645D01*
X8492280Y-8509645D02*
X9792280Y-8509645D01*
X24556030Y-7109645D02*
X23256030Y-7109645D01*
X21301030Y-8459645D02*
X21301030Y-7159645D01*
X23256030Y-14700895D02*
X24556030Y-14700895D01*
X12649780Y-6604645D02*
X11349780Y-6604645D01*
X22701030Y-14650895D02*
X22701030Y-13350895D01*
X17064780Y-5204645D02*
X20269780Y-5204645D01*
X7374180Y-3054645D02*
G75*
G03*
X7374180Y-3054645I-145000J0D01*
G01*
X17412280Y-8509640D02*
G75*
G03*
X17462280Y-8459645I0J50000D01*
G01*
X15109780Y-6554645D02*
X15109780Y-5254645D01*
X16300405Y-14174645D02*
X16300405Y-12874645D01*
X8347280Y-12824640D02*
G75*
G03*
X8297280Y-12874645I0J-50000D01*
G01*
X9156655Y-14174645D02*
G75*
G03*
X9206655Y-14224645I50005J5D01*
G01*
X10744780Y-6604645D02*
X9444780Y-6604645D01*
X5158530Y-9014645D02*
X6458530Y-9014645D01*
X7461025Y-10969645D02*
G75*
G03*
X7411030Y-10919645I-49995J5D01*
G01*
X19272955Y-10464645D02*
G75*
G03*
X19322955Y-10514645I50005J5D01*
G01*
X18498525Y-12874645D02*
G75*
G03*
X18448530Y-12824645I-49995J5D01*
G01*
X10873530Y-9014645D02*
X12173530Y-9014645D01*
X11747280Y-7159645D02*
X11747280Y-8459645D01*
X18298530Y-14174645D02*
X18298530Y-12874645D01*
X10873530Y-9014640D02*
G75*
G03*
X10823530Y-9064645I0J-50000D01*
G01*
X17064780Y-5204640D02*
G75*
G03*
X17014780Y-5254645I0J-50000D01*
G01*
X9004180Y-4701840D02*
G75*
G03*
X9104180Y-4601845I0J100000D01*
G01*
X21351030Y-4728390D02*
G75*
G03*
X21301030Y-4778395I0J-50000D01*
G01*
X6508530Y-9064645D02*
X6508530Y-10364645D01*
X23206030Y-7159645D02*
X23206030Y-8459645D01*
X16350405Y-12824645D02*
X17888530Y-12824645D01*
X12914180Y-4601845D02*
X12914180Y-3541845D01*
X4866030Y-8952145D02*
X4866030Y-10457145D01*
X6177275Y-12874645D02*
G75*
G03*
X6127280Y-12824645I-49995J5D01*
G01*
X24606025Y-7159645D02*
G75*
G03*
X24556030Y-7109645I-49995J5D01*
G01*
X21301025Y-8459645D02*
G75*
G03*
X21351030Y-8509645I50005J5D01*
G01*
X11009175Y-3541845D02*
G75*
G03*
X10909180Y-3441845I-99995J5D01*
G01*
X4389780Y-7067145D02*
X4389780Y-8552145D01*
X7461030Y-10969645D02*
X7461030Y-12269645D01*
X17773480Y-6704640D02*
G75*
G03*
X17823480Y-6654645I0J50000D01*
G01*
X24606025Y-9064645D02*
G75*
G03*
X24556030Y-9014645I-49995J5D01*
G01*
X18652905Y-10969645D02*
G75*
G03*
X18602905Y-10919645I-49995J5D01*
G01*
X12814180Y-3441845D02*
X11344180Y-3441845D01*
X22701025Y-11445895D02*
G75*
G03*
X22651030Y-11395895I-49995J5D01*
G01*
X4632280Y-7159645D02*
X4632280Y-8459645D01*
X16459780Y-6604640D02*
G75*
G03*
X16509780Y-6554645I0J50000D01*
G01*
X6537280Y-14174645D02*
X6537280Y-12874645D01*
X11344180Y-3441840D02*
G75*
G03*
X11244180Y-3541845I0J-100000D01*
G01*
X10397280Y-7109640D02*
G75*
G03*
X10347280Y-7159645I0J-50000D01*
G01*
X12302280Y-7109645D02*
X13602280Y-7109645D01*
X15159780Y-5204645D02*
X16459780Y-5204645D01*
X17585355Y-9064645D02*
X17585355Y-10464645D01*
X8363530Y-10414645D02*
X7063530Y-10414645D01*
X11221030Y-12319645D02*
X9921030Y-12319645D01*
X11587905Y-12824635D02*
G75*
G03*
X11537905Y-12874645I5J-50005D01*
G01*
X18443530Y-8459645D02*
X18443530Y-7159645D01*
X13126030Y-12319640D02*
G75*
G03*
X13176030Y-12269645I0J50000D01*
G01*
X13681030Y-10969645D02*
X13681030Y-12269645D01*
X9842275Y-7159645D02*
G75*
G03*
X9792280Y-7109645I-49995J5D01*
G01*
X19843530Y-7159645D02*
X19843530Y-8459645D01*
X6032280Y-8459645D02*
X6032280Y-7159645D01*
X21301025Y-12745895D02*
G75*
G03*
X21351030Y-12795895I50005J5D01*
G01*
X24556030Y-14700890D02*
G75*
G03*
X24606030Y-14650895I0J50000D01*
G01*
X17933530Y-7109645D02*
X18033530Y-7109645D01*
X7013530Y-10364645D02*
X7013530Y-9064645D01*
X21301030Y-11445895D02*
X21301030Y-12745895D01*
X22651030Y-14700890D02*
G75*
G03*
X22701030Y-14650895I0J50000D01*
G01*
X12937905Y-12874645D02*
X12937905Y-14174645D01*
X19129155Y-10364645D02*
X19129155Y-9064645D01*
X9316030Y-12319640D02*
G75*
G03*
X9366030Y-12269645I0J50000D01*
G01*
X11776025Y-12269645D02*
G75*
G03*
X11826030Y-12319645I50005J5D01*
G01*
X22651030Y-8509640D02*
G75*
G03*
X22701030Y-8459645I0J50000D01*
G01*
X19922955Y-9014645D02*
X19322955Y-9014645D01*
X21351030Y-9014640D02*
G75*
G03*
X21301030Y-9064645I0J-50000D01*
G01*
X16028530Y-14224645D02*
X16128530Y-14224645D01*
X8016030Y-10919640D02*
G75*
G03*
X7966030Y-10969645I0J-50000D01*
G01*
X9871025Y-12269645D02*
G75*
G03*
X9921030Y-12319645I50005J5D01*
G01*
X10794775Y-5254645D02*
G75*
G03*
X10744780Y-5204645I-49995J5D01*
G01*
X13731030Y-10919640D02*
G75*
G03*
X13681030Y-10969645I0J-50000D01*
G01*
X21301030Y-9064645D02*
X21301030Y-10364645D01*
X6729180Y-4699645D02*
X5542280Y-4699645D01*
X17229175Y-4499645D02*
G75*
G03*
X17429180Y-4699645I200005J5D01*
G01*
X14554780Y-5204645D02*
X13254780Y-5204645D01*
X13919155Y-14174645D02*
G75*
G03*
X13969155Y-14224645I50005J5D01*
G01*
X23206025Y-10364645D02*
G75*
G03*
X23256030Y-10414645I50005J5D01*
G01*
X8442280Y-7159645D02*
X8442280Y-8459645D01*
X19446705Y-12419635D02*
G75*
G03*
X19496705Y-12369645I5J49995D01*
G01*
X19322955Y-9014635D02*
G75*
G03*
X19272955Y-9064645I5J-50005D01*
G01*
X22701025Y-9064645D02*
G75*
G03*
X22651030Y-9014645I-49995J5D01*
G01*
X10268530Y-10414640D02*
G75*
G03*
X10318530Y-10364645I0J50000D01*
G01*
X19396025Y-14650895D02*
G75*
G03*
X19446030Y-14700895I50005J5D01*
G01*
X16300405Y-12269645D02*
X16300405Y-10969645D01*
X17109105Y-12319645D02*
X17109105Y-12369645D01*
X5342280Y-4899645D02*
X5342280Y-6667145D01*
X14554780Y-6604640D02*
G75*
G03*
X14604780Y-6554645I0J50000D01*
G01*
X21301025Y-6078395D02*
G75*
G03*
X21351030Y-6128395I50005J5D01*
G01*
X22701025Y-13350895D02*
G75*
G03*
X22651030Y-13300895I-49995J5D01*
G01*
X18033530Y-8509645D02*
X17933530Y-8509645D01*
X7937280Y-12874645D02*
X7937280Y-14174645D01*
X12173530Y-10414645D02*
X10873530Y-10414645D01*
X6508525Y-9064645D02*
G75*
G03*
X6458530Y-9014645I-49995J5D01*
G01*
X18846705Y-12419645D02*
X19446705Y-12419645D01*
X23206030Y-6128395D02*
X23206030Y-4423395D01*
X12887905Y-14224645D02*
X11587905Y-14224645D01*
X19079155Y-10414635D02*
G75*
G03*
X19129155Y-10364645I5J49995D01*
G01*
X8968530Y-9014640D02*
G75*
G03*
X8918530Y-9064645I0J-50000D01*
G01*
X6458530Y-10414640D02*
G75*
G03*
X6508530Y-10364645I0J50000D01*
G01*
X18298525Y-14174645D02*
G75*
G03*
X18348530Y-14224645I50005J5D01*
G01*
X11344180Y-4701845D02*
X12814180Y-4701845D01*
X17462275Y-7159645D02*
G75*
G03*
X17412280Y-7109645I-49995J5D01*
G01*
X15081030Y-12269645D02*
X15081030Y-10969645D01*
X24556030Y-13300895D02*
X23256030Y-13300895D01*
X22701030Y-10364645D02*
X22701030Y-9064645D01*
X10556655Y-14174645D02*
X10556655Y-12874645D01*
X17883530Y-8459645D02*
X17883530Y-7159645D01*
X6263530Y-15084645D02*
G75*
G03*
X6263530Y-15084645I-145000J0D01*
G01*
X7489780Y-5254645D02*
X7489780Y-6554645D01*
X9871030Y-12269645D02*
X9871030Y-10969645D01*
X21301030Y-6078395D02*
X21301030Y-4778395D01*
X13249180Y-3441840D02*
G75*
G03*
X13149180Y-3541845I0J-100000D01*
G01*
X18602905Y-12319645D02*
X17109105Y-12319645D01*
X16112280Y-7109640D02*
G75*
G03*
X16062280Y-7159645I0J-50000D01*
G01*
X20353530Y-8509640D02*
G75*
G03*
X20403530Y-8459645I0J50000D01*
G01*
X6587280Y-12824640D02*
G75*
G03*
X6537280Y-12874645I0J-50000D01*
G01*
X7539780Y-5204640D02*
G75*
G03*
X7489780Y-5254645I0J-50000D01*
G01*
X8918525Y-10364645D02*
G75*
G03*
X8968530Y-10414645I50005J5D01*
G01*
X17779155Y-10414645D02*
X19079155Y-10414645D01*
X14157275Y-8459645D02*
G75*
G03*
X14207280Y-8509645I50005J5D01*
G01*
X21301025Y-10364645D02*
G75*
G03*
X21351030Y-10414645I50005J5D01*
G01*
X14128525Y-9064645D02*
G75*
G03*
X14078530Y-9014645I-49995J5D01*
G01*
X25666030Y-15384640D02*
G75*
G03*
X25866030Y-15184645I0J200000D01*
G01*
X8497280Y-12874645D02*
X8497280Y-14174645D01*
X6458530Y-10414645D02*
X5158530Y-10414645D01*
D11*
X4632399Y-15710121D02*
X4632399Y-15510121D01*
X4680018Y-15510121D01*
X4708590Y-15519645D01*
X4727637Y-15538692D01*
X4737161Y-15557740D01*
X4746685Y-15595835D01*
X4746685Y-15624407D01*
X4737161Y-15662502D01*
X4727637Y-15681549D01*
X4708590Y-15700597D01*
X4680018Y-15710121D01*
X4632399Y-15710121D01*
X4832399Y-15710121D02*
X4832399Y-15576787D01*
X4832399Y-15614883D02*
X4841923Y-15595835D01*
X4851447Y-15586311D01*
X4870495Y-15576787D01*
X4889542Y-15576787D01*
X4956209Y-15710121D02*
X4956209Y-15576787D01*
X4956209Y-15510121D02*
X4946685Y-15519645D01*
X4956209Y-15529168D01*
X4965733Y-15519645D01*
X4956209Y-15510121D01*
X4956209Y-15529168D01*
X5080018Y-15710121D02*
X5060971Y-15700597D01*
X5051447Y-15681549D01*
X5051447Y-15510121D01*
X5184780Y-15710121D02*
X5165733Y-15700597D01*
X5156209Y-15681549D01*
X5156209Y-15510121D01*
X5413352Y-15710121D02*
X5413352Y-15510121D01*
X5480018Y-15652978D01*
X5546685Y-15510121D01*
X5546685Y-15710121D01*
X5727637Y-15710121D02*
X5727637Y-15605359D01*
X5718114Y-15586311D01*
X5699066Y-15576787D01*
X5660971Y-15576787D01*
X5641923Y-15586311D01*
X5727637Y-15700597D02*
X5708590Y-15710121D01*
X5660971Y-15710121D01*
X5641923Y-15700597D01*
X5632399Y-15681549D01*
X5632399Y-15662502D01*
X5641923Y-15643454D01*
X5660971Y-15633930D01*
X5708590Y-15633930D01*
X5727637Y-15624407D01*
X5822875Y-15576787D02*
X5822875Y-15776787D01*
X5822875Y-15586311D02*
X5841923Y-15576787D01*
X5880018Y-15576787D01*
X5899066Y-15586311D01*
X5908590Y-15595835D01*
X5918114Y-15614883D01*
X5918114Y-15672026D01*
X5908590Y-15691073D01*
X5899066Y-15700597D01*
X5880018Y-15710121D01*
X5841923Y-15710121D01*
X5822875Y-15700597D01*
X6003828Y-15691073D02*
X6013352Y-15700597D01*
X6003828Y-15710121D01*
X5994304Y-15700597D01*
X6003828Y-15691073D01*
X6003828Y-15710121D01*
X6003828Y-15586311D02*
X6013352Y-15595835D01*
X6003828Y-15605359D01*
X5994304Y-15595835D01*
X6003828Y-15586311D01*
X6003828Y-15605359D01*
M02*
