%TF.GenerationSoftware,KiCad,Pcbnew,(6.0.5)*%
%TF.CreationDate,2022-07-28T20:29:51-06:00*%
%TF.ProjectId,plate-right,706c6174-652d-4726-9967-68742e6b6963,rev?*%
%TF.SameCoordinates,Original*%
%TF.FileFunction,Profile,NP*%
%FSLAX46Y46*%
G04 Gerber Fmt 4.6, Leading zero omitted, Abs format (unit mm)*
G04 Created by KiCad (PCBNEW (6.0.5)) date 2022-07-28 20:29:51*
%MOMM*%
%LPD*%
G01*
G04 APERTURE LIST*
%TA.AperFunction,Profile*%
%ADD10C,0.300000*%
%TD*%
G04 APERTURE END LIST*
D10*
X141572803Y-84596447D02*
X141572803Y-71596447D01*
X177791553Y-90146353D02*
G75*
G03*
X177291553Y-90646447I47J-500047D01*
G01*
X129141753Y-35418447D02*
G75*
G03*
X128141803Y-34418447I-999953J47D01*
G01*
X232060303Y-133508947D02*
X232060303Y-146508947D01*
X93160303Y-109196447D02*
X80160303Y-109196447D01*
X58185253Y-151846447D02*
G75*
G03*
X60185303Y-153846447I2000047J47D01*
G01*
X152691553Y-128246447D02*
X139691553Y-128246447D01*
X67291803Y-46996453D02*
G75*
G03*
X69291803Y-44996447I-3J2000003D01*
G01*
X159785303Y-128746447D02*
X159785303Y-141746447D01*
X186029053Y-123196353D02*
G75*
G03*
X186529053Y-122696447I47J499953D01*
G01*
X79372753Y-128746447D02*
G75*
G03*
X78872803Y-128246447I-499953J47D01*
G01*
X232060253Y-61283947D02*
G75*
G03*
X234060303Y-63283947I2000047J47D01*
G01*
X48660253Y-104571447D02*
G75*
G03*
X50660303Y-106571447I2000047J47D01*
G01*
X180835303Y-71596447D02*
X180835303Y-84596447D01*
X161785303Y-141746447D02*
X161785303Y-128746447D01*
X65372753Y-141746447D02*
G75*
G03*
X65872803Y-142246447I500047J47D01*
G01*
X91041753Y-35418447D02*
G75*
G03*
X90041803Y-34418447I-999953J47D01*
G01*
X160285303Y-128246403D02*
G75*
G03*
X159785303Y-128746447I-3J-499997D01*
G01*
X202697803Y-66046447D02*
X202110803Y-66046447D01*
X246060303Y-146508947D02*
X246060303Y-133508947D01*
X131491753Y-46018447D02*
G75*
G03*
X132491803Y-47018447I1000047J47D01*
G01*
X80160303Y-123196447D02*
X93160303Y-123196447D01*
X94391803Y-47018447D02*
X109091803Y-47018447D01*
X65372803Y-71596447D02*
X65372803Y-84596447D01*
X131260303Y-123196447D02*
X118260303Y-123196447D01*
X164597803Y-66046447D02*
X151597803Y-66046447D01*
X245560303Y-90146447D02*
X232560303Y-90146447D01*
X122522803Y-84596447D02*
X122522803Y-71596447D01*
X175353553Y-105146447D02*
X169353553Y-105146447D01*
X155072803Y-85096403D02*
G75*
G03*
X155572803Y-84596447I-3J500003D01*
G01*
X109091803Y-47018403D02*
G75*
G03*
X110091803Y-46018447I-3J1000003D01*
G01*
X174622803Y-71596447D02*
X174622803Y-84596447D01*
X88897803Y-65546447D02*
X88897803Y-52546447D01*
X177291553Y-90646447D02*
X177291553Y-103646447D01*
X148191753Y-35418447D02*
G75*
G03*
X147191803Y-34418447I-999953J47D01*
G01*
X65872803Y-85096447D02*
X78872803Y-85096447D01*
X146835303Y-104146447D02*
X159835303Y-104146447D01*
X163504053Y-109196447D02*
X186029053Y-109196447D01*
X107947803Y-52546447D02*
X107947803Y-65546447D01*
X165097753Y-52546447D02*
G75*
G03*
X164597803Y-52046447I-499953J47D01*
G01*
X117472753Y-71596447D02*
G75*
G03*
X116972803Y-71096447I-499953J47D01*
G01*
X195110753Y-66546447D02*
G75*
G03*
X195610803Y-67046447I500047J47D01*
G01*
X159835303Y-104146403D02*
G75*
G03*
X160335303Y-103646447I-3J500003D01*
G01*
X59772803Y-128746447D02*
X59772803Y-141746447D01*
X139691553Y-142246447D02*
X152691553Y-142246447D01*
X55847753Y-65546447D02*
G75*
G03*
X56347803Y-66046447I500047J47D01*
G01*
X178885303Y-142246447D02*
X163504053Y-142246447D01*
X201610803Y-67046403D02*
G75*
G03*
X202110803Y-66546447I-3J500003D01*
G01*
X161122803Y-71096447D02*
X174122803Y-71096447D01*
X167241803Y-46018447D02*
X167241803Y-35418447D01*
X127285253Y-103646447D02*
G75*
G03*
X127785303Y-104146447I500047J47D01*
G01*
X103185253Y-90646447D02*
G75*
G03*
X102685303Y-90146447I-499953J47D01*
G01*
X230060303Y-42233947D02*
X212039845Y-42233947D01*
X232560303Y-104146447D02*
X245560303Y-104146447D01*
X128141803Y-47018403D02*
G75*
G03*
X129141803Y-46018447I-3J1000003D01*
G01*
X107447803Y-66046403D02*
G75*
G03*
X107947803Y-65546447I-3J500003D01*
G01*
X91041803Y-46018447D02*
X91041803Y-35418447D01*
X184435253Y-84596447D02*
G75*
G03*
X184935303Y-85096447I500047J47D01*
G01*
X167241753Y-35418447D02*
G75*
G03*
X166241803Y-34418447I-999953J47D01*
G01*
X105566553Y-128746447D02*
G75*
G03*
X105066553Y-128246447I-499953J47D01*
G01*
X226510303Y-133008947D02*
X213510303Y-133008947D01*
X132491803Y-47018447D02*
X147191803Y-47018447D01*
X178234803Y-66046447D02*
X178234803Y-66546447D01*
X245560303Y-85096403D02*
G75*
G03*
X246060303Y-84596447I-3J500003D01*
G01*
X213510303Y-104146447D02*
X226510303Y-104146447D01*
X99210303Y-109196447D02*
X112210303Y-109196447D01*
X175353553Y-105146353D02*
G75*
G03*
X175853553Y-104646447I47J499953D01*
G01*
X171234803Y-66046447D02*
X170647803Y-66046447D01*
X232060253Y-84596447D02*
G75*
G03*
X232560303Y-85096447I500047J47D01*
G01*
X122235303Y-90646447D02*
X122235303Y-103646447D01*
X227010253Y-47783947D02*
G75*
G03*
X226510303Y-47283947I-499953J47D01*
G01*
X142072803Y-71096447D02*
X155072803Y-71096447D01*
X136022803Y-85096403D02*
G75*
G03*
X136522803Y-84596447I-3J500003D01*
G01*
X82972753Y-141746447D02*
G75*
G03*
X83472803Y-142246447I500047J47D01*
G01*
X88397803Y-66046403D02*
G75*
G03*
X88897803Y-65546447I-3J500003D01*
G01*
X178835253Y-84596447D02*
G75*
G03*
X179335303Y-85096447I500047J47D01*
G01*
X113497803Y-52046403D02*
G75*
G03*
X112997803Y-52546447I-3J-499997D01*
G01*
X58185253Y-108571447D02*
G75*
G03*
X56185303Y-106571447I-1999953J47D01*
G01*
X89685303Y-90146447D02*
X102685303Y-90146447D01*
X136522803Y-71596447D02*
X136522803Y-84596447D01*
X84135253Y-90646447D02*
G75*
G03*
X83635303Y-90146447I-499953J47D01*
G01*
X46322753Y-84596447D02*
G75*
G03*
X46822803Y-85096447I500047J47D01*
G01*
X69847753Y-52546447D02*
G75*
G03*
X69347803Y-52046447I-499953J47D01*
G01*
X185810303Y-150846447D02*
G75*
G03*
X185810303Y-150846447I-1450000J0D01*
G01*
X65872803Y-128246447D02*
X78872803Y-128246447D01*
X50660303Y-106571447D02*
X56185303Y-106571447D01*
X155072803Y-85096447D02*
X142072803Y-85096447D01*
X199229553Y-105146353D02*
G75*
G03*
X199729553Y-104646447I47J499953D01*
G01*
X45897803Y-68671453D02*
G75*
G03*
X43897803Y-70671447I-3J-1999997D01*
G01*
X227010303Y-47783947D02*
X227010303Y-60783947D01*
X74110303Y-123196403D02*
G75*
G03*
X74610303Y-122696447I-3J500003D01*
G01*
X227010303Y-71596447D02*
X227010303Y-84596447D01*
X192729553Y-90646447D02*
X192729553Y-104646447D01*
X257110303Y-150846447D02*
G75*
G03*
X257110303Y-150846447I-1450000J0D01*
G01*
X112441803Y-35418447D02*
X112441803Y-46018447D01*
X198435253Y-71596447D02*
G75*
G03*
X197935303Y-71096447I-499953J47D01*
G01*
X213510303Y-113958903D02*
G75*
G03*
X213010303Y-114458947I-3J-499997D01*
G01*
X203197753Y-109696447D02*
G75*
G03*
X202697803Y-109196447I-499953J47D01*
G01*
X123022803Y-71096403D02*
G75*
G03*
X122522803Y-71596447I-3J-499997D01*
G01*
X203197803Y-52546447D02*
X203197803Y-65546447D01*
X112710303Y-109696447D02*
X112710303Y-122696447D01*
X131760303Y-109696447D02*
X131760303Y-122696447D01*
X163504053Y-109196353D02*
G75*
G03*
X163004053Y-109696447I47J-500047D01*
G01*
X127285303Y-90646447D02*
X127285303Y-103646447D01*
X194967053Y-123196447D02*
X202697803Y-123196447D01*
X187967053Y-123696447D02*
G75*
G03*
X188467053Y-124196447I500047J47D01*
G01*
X184935303Y-71096447D02*
X197935303Y-71096447D01*
X132047803Y-52546447D02*
X132047803Y-65546447D01*
X184935303Y-71096403D02*
G75*
G03*
X184435303Y-71596447I-3J-499997D01*
G01*
X232560303Y-85096447D02*
X245560303Y-85096447D01*
X183485303Y-128246447D02*
X184485303Y-128246447D01*
X170147803Y-65546447D02*
X170147803Y-52546447D01*
X69847803Y-65546447D02*
X69847803Y-52546447D01*
X213510303Y-47283947D02*
X226510303Y-47283947D01*
X78872803Y-85096403D02*
G75*
G03*
X79372803Y-84596447I-3J500003D01*
G01*
X115379053Y-141746447D02*
G75*
G03*
X115879053Y-142246447I500047J47D01*
G01*
X56347803Y-52046403D02*
G75*
G03*
X55847803Y-52546447I-3J-499997D01*
G01*
X160335303Y-103646447D02*
X160335303Y-90646447D01*
X103972803Y-71096447D02*
X116972803Y-71096447D01*
X150310303Y-123196403D02*
G75*
G03*
X150810303Y-122696447I-3J500003D01*
G01*
X45897803Y-87521447D02*
X46660303Y-87521447D01*
X78872803Y-142246447D02*
X65872803Y-142246447D01*
X60272803Y-128246403D02*
G75*
G03*
X59772803Y-128746447I-3J-499997D01*
G01*
X147191803Y-34418447D02*
X132491803Y-34418447D01*
X58185303Y-108571447D02*
X58185303Y-151846447D01*
X151597803Y-52046403D02*
G75*
G03*
X151097803Y-52546447I-3J-499997D01*
G01*
X43897753Y-85521447D02*
G75*
G03*
X45897803Y-87521447I2000047J47D01*
G01*
X126997803Y-52546447D02*
X126997803Y-65546447D01*
X116972803Y-85096447D02*
X103972803Y-85096447D01*
X56347803Y-66046447D02*
X69347803Y-66046447D01*
X151541803Y-34418403D02*
G75*
G03*
X150541803Y-35418447I-3J-999997D01*
G01*
X126497803Y-66046403D02*
G75*
G03*
X126997803Y-65546447I-3J500003D01*
G01*
X94447803Y-52046447D02*
X107447803Y-52046447D01*
X108235253Y-103646447D02*
G75*
G03*
X108735303Y-104146447I500047J47D01*
G01*
X97922803Y-85096403D02*
G75*
G03*
X98422803Y-84596447I-3J500003D01*
G01*
X89185303Y-103646447D02*
X89185303Y-90646447D01*
X227010303Y-127458947D02*
X227010303Y-114458947D01*
X226510303Y-127958903D02*
G75*
G03*
X227010303Y-127458947I-3J500003D01*
G01*
X117760303Y-122696447D02*
X117760303Y-109696447D01*
X164091053Y-123196447D02*
X163504053Y-123196447D01*
X94447803Y-52046403D02*
G75*
G03*
X93947803Y-52546447I-3J-499997D01*
G01*
X195110803Y-66046447D02*
X178234803Y-66046447D01*
X84972753Y-128746447D02*
G75*
G03*
X84472803Y-128246447I-499953J47D01*
G01*
X193960303Y-146508947D02*
X193960303Y-133508947D01*
X116972803Y-85096403D02*
G75*
G03*
X117472803Y-84596447I-3J500003D01*
G01*
X153191553Y-141746447D02*
X153191553Y-128746447D01*
X163504053Y-128246353D02*
G75*
G03*
X163004053Y-128746447I47J-500047D01*
G01*
X60185303Y-153846447D02*
X256660303Y-153846447D01*
X177291553Y-103646447D02*
G75*
G03*
X177791553Y-104146447I500047J47D01*
G01*
X213010253Y-146508947D02*
G75*
G03*
X213510303Y-147008947I500047J47D01*
G01*
X226510303Y-104146403D02*
G75*
G03*
X227010303Y-103646447I-3J500003D01*
G01*
X147191803Y-47018403D02*
G75*
G03*
X148191803Y-46018447I-3J1000003D01*
G01*
X93660253Y-109696447D02*
G75*
G03*
X93160303Y-109196447I-499953J47D01*
G01*
X172291753Y-29546447D02*
G75*
G03*
X170291803Y-27546447I-1999953J47D01*
G01*
X183485303Y-128246403D02*
G75*
G03*
X182985303Y-128746447I-3J-499997D01*
G01*
X110091803Y-46018447D02*
X110091803Y-35418447D01*
X84472803Y-142246403D02*
G75*
G03*
X84972803Y-141746447I-3J500003D01*
G01*
X150310303Y-109196447D02*
X137310303Y-109196447D01*
X65372753Y-84596447D02*
G75*
G03*
X65872803Y-85096447I500047J47D01*
G01*
X203197803Y-122696447D02*
X203197803Y-109696447D01*
X112441753Y-46018447D02*
G75*
G03*
X113441803Y-47018447I1000047J47D01*
G01*
X146335253Y-103646447D02*
G75*
G03*
X146835303Y-104146447I500047J47D01*
G01*
X84922803Y-71096403D02*
G75*
G03*
X84422803Y-71596447I-3J-499997D01*
G01*
X142072803Y-71096403D02*
G75*
G03*
X141572803Y-71596447I-3J-499997D01*
G01*
X74341753Y-46018447D02*
G75*
G03*
X75341803Y-47018447I1000047J47D01*
G01*
X75341803Y-47018447D02*
X90041803Y-47018447D01*
X92066553Y-142246447D02*
X105066553Y-142246447D01*
X258660253Y-65283947D02*
G75*
G03*
X256660303Y-63283947I-1999953J47D01*
G01*
X159785253Y-141746447D02*
G75*
G03*
X160285303Y-142246447I500047J47D01*
G01*
X171234803Y-66546447D02*
X171234803Y-66046447D01*
X191291553Y-90646447D02*
G75*
G03*
X190791553Y-90146447I-499953J47D01*
G01*
X78872803Y-71096447D02*
X65872803Y-71096447D01*
X213510303Y-133008903D02*
G75*
G03*
X213010303Y-133508947I-3J-499997D01*
G01*
X258660303Y-151846447D02*
X258660303Y-65283947D01*
X171234753Y-66546447D02*
G75*
G03*
X171734803Y-67046447I500047J47D01*
G01*
X74897753Y-65546447D02*
G75*
G03*
X75397803Y-66046447I500047J47D01*
G01*
X91566553Y-128746447D02*
X91566553Y-141746447D01*
X179385303Y-128746447D02*
X179385303Y-141746447D01*
X160622803Y-84596447D02*
X160622803Y-71596447D01*
X163004053Y-141746447D02*
G75*
G03*
X163504053Y-142246447I500047J47D01*
G01*
X79660303Y-109696447D02*
X79660303Y-122696447D01*
X213010303Y-133508947D02*
X213010303Y-146508947D01*
X141285303Y-103646447D02*
X141285303Y-90646447D01*
X161785253Y-128746447D02*
G75*
G03*
X161285303Y-128246447I-499953J47D01*
G01*
X226510303Y-90146447D02*
X213510303Y-90146447D01*
X159872803Y-150846447D02*
G75*
G03*
X159872803Y-150846447I-1450000J0D01*
G01*
X170591053Y-124196353D02*
G75*
G03*
X171091053Y-123696447I47J499953D01*
G01*
X161285303Y-128246447D02*
X160285303Y-128246447D01*
X102685303Y-104146447D02*
X89685303Y-104146447D01*
X202535303Y-71096447D02*
X203535303Y-71096447D01*
X232560303Y-133008903D02*
G75*
G03*
X232060303Y-133508947I-3J-499997D01*
G01*
X232060253Y-44233947D02*
G75*
G03*
X230060303Y-42233947I-1999953J47D01*
G01*
X160622753Y-84596447D02*
G75*
G03*
X161122803Y-85096447I500047J47D01*
G01*
X105066553Y-128246447D02*
X92066553Y-128246447D01*
X74110303Y-123196447D02*
X61110303Y-123196447D01*
X146335303Y-90646447D02*
X146335303Y-103646447D01*
X131760253Y-109696447D02*
G75*
G03*
X131260303Y-109196447I-499953J47D01*
G01*
X227010253Y-71596447D02*
G75*
G03*
X226510303Y-71096447I-499953J47D01*
G01*
X90041803Y-34418447D02*
X75341803Y-34418447D01*
X194460303Y-133008903D02*
G75*
G03*
X193960303Y-133508947I-3J-499997D01*
G01*
X179335303Y-71096403D02*
G75*
G03*
X178835303Y-71596447I-3J-499997D01*
G01*
X105066553Y-142246353D02*
G75*
G03*
X105566553Y-141746447I47J499953D01*
G01*
X150810253Y-109696447D02*
G75*
G03*
X150310303Y-109196447I-499953J47D01*
G01*
X59822803Y-71096447D02*
X46822803Y-71096447D01*
X132047753Y-65546447D02*
G75*
G03*
X132547803Y-66046447I500047J47D01*
G01*
X232560303Y-71096403D02*
G75*
G03*
X232060303Y-71596447I-3J-499997D01*
G01*
X136810253Y-122696447D02*
G75*
G03*
X137310303Y-123196447I500047J47D01*
G01*
X93660303Y-122696447D02*
X93660303Y-109696447D01*
X152691553Y-142246353D02*
G75*
G03*
X153191553Y-141746447I47J499953D01*
G01*
X187967053Y-109696447D02*
X187967053Y-123696447D01*
X139691553Y-128246353D02*
G75*
G03*
X139191553Y-128746447I47J-500047D01*
G01*
X170291803Y-27546447D02*
X71291803Y-27546447D01*
X83635303Y-104146403D02*
G75*
G03*
X84135303Y-103646447I-3J500003D01*
G01*
X168853553Y-104646447D02*
X168853553Y-90646447D01*
X169353553Y-90146353D02*
G75*
G03*
X168853553Y-90646447I47J-500047D01*
G01*
X194460303Y-133008947D02*
X207460303Y-133008947D01*
X61772803Y-141746447D02*
X61772803Y-128746447D01*
X203535303Y-85096447D02*
X202535303Y-85096447D01*
X88897753Y-52546447D02*
G75*
G03*
X88397803Y-52046447I-499953J47D01*
G01*
X103472753Y-84596447D02*
G75*
G03*
X103972803Y-85096447I500047J47D01*
G01*
X155572753Y-71596447D02*
G75*
G03*
X155072803Y-71096447I-499953J47D01*
G01*
X207960303Y-133508947D02*
X207960303Y-146508947D01*
X78872803Y-142246403D02*
G75*
G03*
X79372803Y-141746447I-3J500003D01*
G01*
X92066553Y-128246353D02*
G75*
G03*
X91566553Y-128746447I47J-500047D01*
G01*
X122235253Y-90646447D02*
G75*
G03*
X121735303Y-90146447I-499953J47D01*
G01*
X60322753Y-71596447D02*
G75*
G03*
X59822803Y-71096447I-499953J47D01*
G01*
X55847803Y-52546447D02*
X55847803Y-65546447D01*
X202035303Y-84596447D02*
X202035303Y-71596447D01*
X161285303Y-142246403D02*
G75*
G03*
X161785303Y-141746447I-3J500003D01*
G01*
X194967053Y-123696447D02*
X194967053Y-123196447D01*
X150541803Y-35418447D02*
X150541803Y-46018447D01*
X168853553Y-104646447D02*
G75*
G03*
X169353553Y-105146447I500047J47D01*
G01*
X131491803Y-35418447D02*
X131491803Y-46018447D01*
X132547803Y-66046447D02*
X145547803Y-66046447D01*
X213510303Y-71096447D02*
X226510303Y-71096447D01*
X179385253Y-128746447D02*
G75*
G03*
X178885303Y-128246447I-499953J47D01*
G01*
X202697803Y-123196403D02*
G75*
G03*
X203197803Y-122696447I-3J500003D01*
G01*
X112210303Y-123196403D02*
G75*
G03*
X112710303Y-122696447I-3J500003D01*
G01*
X60272803Y-142246447D02*
X61272803Y-142246447D01*
X177734803Y-67046447D02*
X171734803Y-67046447D01*
X197935303Y-85096403D02*
G75*
G03*
X198435303Y-84596447I-3J500003D01*
G01*
X127785303Y-104146447D02*
X140785303Y-104146447D01*
X226510303Y-85096447D02*
X213510303Y-85096447D01*
X160335253Y-90646447D02*
G75*
G03*
X159835303Y-90146447I-499953J47D01*
G01*
X126997753Y-52546447D02*
G75*
G03*
X126497803Y-52046447I-499953J47D01*
G01*
X103185303Y-90646447D02*
X103185303Y-103646447D01*
X61110303Y-109196447D02*
X74110303Y-109196447D01*
X202035253Y-84596447D02*
G75*
G03*
X202535303Y-85096447I500047J47D01*
G01*
X207460303Y-147008903D02*
G75*
G03*
X207960303Y-146508947I-3J500003D01*
G01*
X226510303Y-61283947D02*
X213510303Y-61283947D01*
X163004053Y-122696447D02*
G75*
G03*
X163504053Y-123196447I500047J47D01*
G01*
X97922803Y-71096447D02*
X84922803Y-71096447D01*
X79372803Y-84596447D02*
X79372803Y-71596447D01*
X146835303Y-90146403D02*
G75*
G03*
X146335303Y-90646447I-3J-499997D01*
G01*
X184485303Y-142246447D02*
X183485303Y-142246447D01*
X121735303Y-104146403D02*
G75*
G03*
X122235303Y-103646447I-3J500003D01*
G01*
X202697803Y-66046403D02*
G75*
G03*
X203197803Y-65546447I-3J500003D01*
G01*
X213510303Y-147008947D02*
X226510303Y-147008947D01*
X246060303Y-103646447D02*
X246060303Y-90646447D01*
X246060303Y-84596447D02*
X246060303Y-71596447D01*
X55422803Y-46996453D02*
G75*
G03*
X53422803Y-48996447I-3J-1999997D01*
G01*
X51085253Y-103646447D02*
G75*
G03*
X51585303Y-104146447I500047J47D01*
G01*
X51585303Y-90146403D02*
G75*
G03*
X51085303Y-90646447I-3J-499997D01*
G01*
X122522753Y-84596447D02*
G75*
G03*
X123022803Y-85096447I500047J47D01*
G01*
X70135253Y-103646447D02*
G75*
G03*
X70635303Y-104146447I500047J47D01*
G01*
X197935303Y-85096447D02*
X184935303Y-85096447D01*
X139191553Y-128746447D02*
X139191553Y-141746447D01*
X137310303Y-123196447D02*
X150310303Y-123196447D01*
X170147753Y-65546447D02*
G75*
G03*
X170647803Y-66046447I500047J47D01*
G01*
X103472803Y-84596447D02*
X103472803Y-71596447D01*
X174122803Y-85096447D02*
X161122803Y-85096447D01*
X245560303Y-104146403D02*
G75*
G03*
X246060303Y-103646447I-3J500003D01*
G01*
X93947753Y-65546447D02*
G75*
G03*
X94447803Y-66046447I500047J47D01*
G01*
X60610253Y-122696447D02*
G75*
G03*
X61110303Y-123196447I500047J47D01*
G01*
X99210303Y-109196403D02*
G75*
G03*
X98710303Y-109696447I-3J-499997D01*
G01*
X257110303Y-66283947D02*
G75*
G03*
X257110303Y-66283947I-1450000J0D01*
G01*
X118260303Y-109196403D02*
G75*
G03*
X117760303Y-109696447I-3J-499997D01*
G01*
X232060303Y-90646447D02*
X232060303Y-103646447D01*
X210625631Y-42819733D02*
X207034704Y-46410661D01*
X84422753Y-84596447D02*
G75*
G03*
X84922803Y-85096447I500047J47D01*
G01*
X188467053Y-109196353D02*
G75*
G03*
X187967053Y-109696447I47J-500047D01*
G01*
X205620491Y-46996447D02*
X174291803Y-46996447D01*
X202697803Y-109196447D02*
X188467053Y-109196447D01*
X190791553Y-90146447D02*
X177791553Y-90146447D01*
X202110803Y-66046447D02*
X202110803Y-66546447D01*
X79660253Y-122696447D02*
G75*
G03*
X80160303Y-123196447I500047J47D01*
G01*
X69291803Y-29546447D02*
X69291803Y-44996447D01*
X205620491Y-46996427D02*
G75*
G03*
X207034704Y-46410661I9J2000027D01*
G01*
X59772753Y-141746447D02*
G75*
G03*
X60272803Y-142246447I500047J47D01*
G01*
X60610303Y-122696447D02*
X60610303Y-109696447D01*
X115879053Y-128246447D02*
X128879053Y-128246447D01*
X232560303Y-90146403D02*
G75*
G03*
X232060303Y-90646447I-3J-499997D01*
G01*
X69347803Y-52046447D02*
X56347803Y-52046447D01*
X79372753Y-71596447D02*
G75*
G03*
X78872803Y-71096447I-499953J47D01*
G01*
X166241803Y-47018403D02*
G75*
G03*
X167241803Y-46018447I-3J1000003D01*
G01*
X169353553Y-90146447D02*
X175353553Y-90146447D01*
X226510303Y-113958947D02*
X213510303Y-113958947D01*
X170741803Y-30546447D02*
G75*
G03*
X170741803Y-30546447I-1450000J0D01*
G01*
X170591053Y-124196447D02*
X164591053Y-124196447D01*
X175853553Y-90646447D02*
G75*
G03*
X175353553Y-90146447I-499953J47D01*
G01*
X186529053Y-109696447D02*
X186529053Y-122696447D01*
X128879053Y-142246353D02*
G75*
G03*
X129379053Y-141746447I47J499953D01*
G01*
X61272803Y-128246447D02*
X60272803Y-128246447D01*
X202535303Y-71096403D02*
G75*
G03*
X202035303Y-71596447I-3J-499997D01*
G01*
X94391803Y-34418403D02*
G75*
G03*
X93391803Y-35418447I-3J-999997D01*
G01*
X226510303Y-61283903D02*
G75*
G03*
X227010303Y-60783947I-3J500003D01*
G01*
X213510303Y-71096403D02*
G75*
G03*
X213010303Y-71596447I-3J-499997D01*
G01*
X146047803Y-65546447D02*
X146047803Y-52546447D01*
X193229553Y-105146447D02*
X199229553Y-105146447D01*
X159835303Y-90146447D02*
X146835303Y-90146447D01*
X98422803Y-84596447D02*
X98422803Y-71596447D01*
X166241803Y-34418447D02*
X151541803Y-34418447D01*
X75341803Y-34418403D02*
G75*
G03*
X74341803Y-35418447I-3J-999997D01*
G01*
X204035303Y-71596447D02*
X204035303Y-84596447D01*
X199729553Y-90646447D02*
G75*
G03*
X199229553Y-90146447I-499953J47D01*
G01*
X207460303Y-147008947D02*
X194460303Y-147008947D01*
X93947803Y-65546447D02*
X93947803Y-52546447D01*
X51422803Y-68671447D02*
X45897803Y-68671447D01*
X75397803Y-66046447D02*
X88397803Y-66046447D01*
X212039845Y-42233994D02*
G75*
G03*
X210625631Y-42819733I-45J-2000006D01*
G01*
X151541803Y-47018447D02*
X166241803Y-47018447D01*
X146047753Y-52546447D02*
G75*
G03*
X145547803Y-52046447I-499953J47D01*
G01*
X112997753Y-65546447D02*
G75*
G03*
X113497803Y-66046447I500047J47D01*
G01*
X140785303Y-90146447D02*
X127785303Y-90146447D01*
X164091053Y-123696447D02*
G75*
G03*
X164591053Y-124196447I500047J47D01*
G01*
X51422803Y-68671453D02*
G75*
G03*
X53422803Y-66671447I-3J2000003D01*
G01*
X165097803Y-52546447D02*
X165097803Y-65546447D01*
X48660253Y-89521447D02*
G75*
G03*
X46660303Y-87521447I-1999953J47D01*
G01*
X112997803Y-65546447D02*
X112997803Y-52546447D01*
X213510303Y-127958947D02*
X226510303Y-127958947D01*
X82972803Y-141746447D02*
X82972803Y-128746447D01*
X93391753Y-46018447D02*
G75*
G03*
X94391803Y-47018447I1000047J47D01*
G01*
X109091803Y-34418447D02*
X94391803Y-34418447D01*
X61110303Y-109196403D02*
G75*
G03*
X60610303Y-109696447I-3J-499997D01*
G01*
X113497803Y-52046447D02*
X126497803Y-52046447D01*
X232060253Y-146508947D02*
G75*
G03*
X232560303Y-147008947I500047J47D01*
G01*
X180835253Y-71596447D02*
G75*
G03*
X180335303Y-71096447I-499953J47D01*
G01*
X93391803Y-35418447D02*
X93391803Y-46018447D01*
X207960253Y-133508947D02*
G75*
G03*
X207460303Y-133008947I-499953J47D01*
G01*
X246060253Y-133508947D02*
G75*
G03*
X245560303Y-133008947I-499953J47D01*
G01*
X112710253Y-109696447D02*
G75*
G03*
X112210303Y-109196447I-499953J47D01*
G01*
X61272803Y-142246403D02*
G75*
G03*
X61772803Y-141746447I-3J500003D01*
G01*
X164091053Y-123696447D02*
X164091053Y-123196447D01*
X256660303Y-63283947D02*
X234060303Y-63283947D01*
X70635303Y-90146447D02*
X83635303Y-90146447D01*
X115379053Y-141746447D02*
X115379053Y-128746447D01*
X136522753Y-71596447D02*
G75*
G03*
X136022803Y-71096447I-499953J47D01*
G01*
X180335303Y-85096403D02*
G75*
G03*
X180835303Y-84596447I-3J500003D01*
G01*
X155572803Y-71596447D02*
X155572803Y-84596447D01*
X132547803Y-52046403D02*
G75*
G03*
X132047803Y-52546447I-3J-499997D01*
G01*
X84135303Y-90646447D02*
X84135303Y-103646447D01*
X51085303Y-103646447D02*
X51085303Y-90646447D01*
X69347803Y-66046403D02*
G75*
G03*
X69847803Y-65546447I-3J500003D01*
G01*
X150541753Y-46018447D02*
G75*
G03*
X151541803Y-47018447I1000047J47D01*
G01*
X108235303Y-103646447D02*
X108235303Y-90646447D01*
X70635303Y-90146403D02*
G75*
G03*
X70135303Y-90646447I-3J-499997D01*
G01*
X195110803Y-66546447D02*
X195110803Y-66046447D01*
X201610803Y-67046447D02*
X195610803Y-67046447D01*
X151097753Y-65546447D02*
G75*
G03*
X151597803Y-66046447I500047J47D01*
G01*
X46822803Y-71096403D02*
G75*
G03*
X46322803Y-71596447I-3J-499997D01*
G01*
X46822803Y-85096447D02*
X59822803Y-85096447D01*
X59822803Y-85096403D02*
G75*
G03*
X60322803Y-84596447I-3J500003D01*
G01*
X184485303Y-142246403D02*
G75*
G03*
X184985303Y-141746447I-3J500003D01*
G01*
X178885303Y-142246403D02*
G75*
G03*
X179385303Y-141746447I-3J500003D01*
G01*
X148191803Y-46018447D02*
X148191803Y-35418447D01*
X129379053Y-128746447D02*
G75*
G03*
X128879053Y-128246447I-499953J47D01*
G01*
X199729553Y-104646447D02*
X199729553Y-90646447D01*
X140785303Y-104146403D02*
G75*
G03*
X141285303Y-103646447I-3J500003D01*
G01*
X136022803Y-85096447D02*
X123022803Y-85096447D01*
X172291803Y-44996447D02*
X172291803Y-29546447D01*
X84472803Y-142246447D02*
X83472803Y-142246447D01*
X184985303Y-128746447D02*
X184985303Y-141746447D01*
X203197753Y-52546447D02*
G75*
G03*
X202697803Y-52046447I-499953J47D01*
G01*
X65872803Y-71096403D02*
G75*
G03*
X65372803Y-71596447I-3J-499997D01*
G01*
X204035253Y-71596447D02*
G75*
G03*
X203535303Y-71096447I-499953J47D01*
G01*
X153191553Y-128746447D02*
G75*
G03*
X152691553Y-128246447I-499953J47D01*
G01*
X83472803Y-128246447D02*
X84472803Y-128246447D01*
X88397803Y-52046447D02*
X75397803Y-52046447D01*
X127785303Y-90146403D02*
G75*
G03*
X127285303Y-90646447I-3J-499997D01*
G01*
X71291803Y-27546403D02*
G75*
G03*
X69291803Y-29546447I-3J-1999997D01*
G01*
X74341803Y-35418447D02*
X74341803Y-46018447D01*
X118260303Y-109196447D02*
X131260303Y-109196447D01*
X84922803Y-85096447D02*
X97922803Y-85096447D01*
X245560303Y-71096447D02*
X232560303Y-71096447D01*
X213010303Y-84596447D02*
X213010303Y-71596447D01*
X232560303Y-147008947D02*
X245560303Y-147008947D01*
X126497803Y-66046447D02*
X113497803Y-66046447D01*
X227010303Y-146508947D02*
X227010303Y-133508947D01*
X170647803Y-52046447D02*
X202697803Y-52046447D01*
X73741803Y-30546447D02*
G75*
G03*
X73741803Y-30546447I-1450000J0D01*
G01*
X174122803Y-85096403D02*
G75*
G03*
X174622803Y-84596447I-3J500003D01*
G01*
X151097803Y-65546447D02*
X151097803Y-52546447D01*
X163004053Y-141746447D02*
X163004053Y-128746447D01*
X83472803Y-128246403D02*
G75*
G03*
X82972803Y-128746447I-3J-499997D01*
G01*
X91566553Y-141746447D02*
G75*
G03*
X92066553Y-142246447I500047J47D01*
G01*
X107447803Y-66046447D02*
X94447803Y-66046447D01*
X51585303Y-90146447D02*
X64585303Y-90146447D01*
X74610253Y-109696447D02*
G75*
G03*
X74110303Y-109196447I-499953J47D01*
G01*
X192729553Y-104646447D02*
G75*
G03*
X193229553Y-105146447I500047J47D01*
G01*
X184985253Y-128746447D02*
G75*
G03*
X184485303Y-128246447I-499953J47D01*
G01*
X108735303Y-90146447D02*
X121735303Y-90146447D01*
X117472803Y-71596447D02*
X117472803Y-84596447D01*
X182985303Y-141746447D02*
X182985303Y-128746447D01*
X108735303Y-90146403D02*
G75*
G03*
X108235303Y-90646447I-3J-499997D01*
G01*
X170647803Y-52046403D02*
G75*
G03*
X170147803Y-52546447I-3J-499997D01*
G01*
X90041803Y-47018403D02*
G75*
G03*
X91041803Y-46018447I-3J1000003D01*
G01*
X213510303Y-47283903D02*
G75*
G03*
X213010303Y-47783947I-3J-499997D01*
G01*
X65085303Y-90646447D02*
X65085303Y-103646447D01*
X232060303Y-71596447D02*
X232060303Y-84596447D01*
X163504053Y-128246447D02*
X178885303Y-128246447D01*
X129141803Y-46018447D02*
X129141803Y-35418447D01*
X48660303Y-89521447D02*
X48660303Y-104571447D01*
X61772753Y-128746447D02*
G75*
G03*
X61272803Y-128246447I-499953J47D01*
G01*
X246060253Y-71596447D02*
G75*
G03*
X245560303Y-71096447I-499953J47D01*
G01*
X213010253Y-84596447D02*
G75*
G03*
X213510303Y-85096447I500047J47D01*
G01*
X110091753Y-35418447D02*
G75*
G03*
X109091803Y-34418447I-999953J47D01*
G01*
X43897803Y-70671447D02*
X43897803Y-85521447D01*
X74610303Y-109696447D02*
X74610303Y-122696447D01*
X177734803Y-67046403D02*
G75*
G03*
X178234803Y-66546447I-3J500003D01*
G01*
X246060253Y-90646447D02*
G75*
G03*
X245560303Y-90146447I-499953J47D01*
G01*
X186529053Y-109696447D02*
G75*
G03*
X186029053Y-109196447I-499953J47D01*
G01*
X128141803Y-34418447D02*
X113441803Y-34418447D01*
X227010253Y-114458947D02*
G75*
G03*
X226510303Y-113958947I-499953J47D01*
G01*
X46322803Y-71596447D02*
X46322803Y-84596447D01*
X164597803Y-66046403D02*
G75*
G03*
X165097803Y-65546447I-3J500003D01*
G01*
X65372803Y-141746447D02*
X65372803Y-128746447D01*
X113441803Y-34418403D02*
G75*
G03*
X112441803Y-35418447I-3J-999997D01*
G01*
X103972803Y-71096403D02*
G75*
G03*
X103472803Y-71596447I-3J-499997D01*
G01*
X123022803Y-71096447D02*
X136022803Y-71096447D01*
X151597803Y-52046447D02*
X164597803Y-52046447D01*
X175853553Y-90646447D02*
X175853553Y-104646447D01*
X83635303Y-104146447D02*
X70635303Y-104146447D01*
X112210303Y-123196447D02*
X99210303Y-123196447D01*
X115879053Y-128246353D02*
G75*
G03*
X115379053Y-128746447I47J-500047D01*
G01*
X184435303Y-84596447D02*
X184435303Y-71596447D01*
X131260303Y-123196403D02*
G75*
G03*
X131760303Y-122696447I-3J500003D01*
G01*
X136810303Y-109696447D02*
X136810303Y-122696447D01*
X98422753Y-71596447D02*
G75*
G03*
X97922803Y-71096447I-499953J47D01*
G01*
X198435303Y-71596447D02*
X198435303Y-84596447D01*
X60322803Y-84596447D02*
X60322803Y-71596447D01*
X213010253Y-127458947D02*
G75*
G03*
X213510303Y-127958947I500047J47D01*
G01*
X245560303Y-147008903D02*
G75*
G03*
X246060303Y-146508947I-3J500003D01*
G01*
X179335303Y-71096447D02*
X180335303Y-71096447D01*
X70135303Y-103646447D02*
X70135303Y-90646447D01*
X213010303Y-114458947D02*
X213010303Y-127458947D01*
X226510303Y-147008903D02*
G75*
G03*
X227010303Y-146508947I-3J500003D01*
G01*
X129379053Y-128746447D02*
X129379053Y-141746447D01*
X191291553Y-103646447D02*
X191291553Y-90646447D01*
X93160303Y-123196403D02*
G75*
G03*
X93660303Y-122696447I-3J500003D01*
G01*
X117760253Y-122696447D02*
G75*
G03*
X118260303Y-123196447I500047J47D01*
G01*
X226510303Y-85096403D02*
G75*
G03*
X227010303Y-84596447I-3J500003D01*
G01*
X199229553Y-90146447D02*
X193229553Y-90146447D01*
X213510303Y-90146403D02*
G75*
G03*
X213010303Y-90646447I-3J-499997D01*
G01*
X160285303Y-142246447D02*
X161285303Y-142246447D01*
X80160303Y-109196403D02*
G75*
G03*
X79660303Y-109696447I-3J-499997D01*
G01*
X98710253Y-122696447D02*
G75*
G03*
X99210303Y-123196447I500047J47D01*
G01*
X107947753Y-52546447D02*
G75*
G03*
X107447803Y-52046447I-499953J47D01*
G01*
X137310303Y-109196403D02*
G75*
G03*
X136810303Y-109696447I-3J-499997D01*
G01*
X213010303Y-90646447D02*
X213010303Y-103646447D01*
X67291803Y-46996447D02*
X55422803Y-46996447D01*
X172291753Y-44996447D02*
G75*
G03*
X174291803Y-46996447I2000047J47D01*
G01*
X145547803Y-52046447D02*
X132547803Y-52046447D01*
X139191553Y-141746447D02*
G75*
G03*
X139691553Y-142246447I500047J47D01*
G01*
X232060253Y-103646447D02*
G75*
G03*
X232560303Y-104146447I500047J47D01*
G01*
X84422803Y-71596447D02*
X84422803Y-84596447D01*
X194467053Y-124196353D02*
G75*
G03*
X194967053Y-123696447I47J499953D01*
G01*
X193229553Y-90146353D02*
G75*
G03*
X192729553Y-90646447I47J-500047D01*
G01*
X227010253Y-90646447D02*
G75*
G03*
X226510303Y-90146447I-499953J47D01*
G01*
X102685303Y-104146403D02*
G75*
G03*
X103185303Y-103646447I-3J500003D01*
G01*
X193960253Y-146508947D02*
G75*
G03*
X194460303Y-147008947I500047J47D01*
G01*
X163004053Y-122696447D02*
X163004053Y-109696447D01*
X171091053Y-123196447D02*
X171091053Y-123696447D01*
X53422803Y-48996447D02*
X53422803Y-66671447D01*
X145547803Y-66046403D02*
G75*
G03*
X146047803Y-65546447I-3J500003D01*
G01*
X213010253Y-60783947D02*
G75*
G03*
X213510303Y-61283947I500047J47D01*
G01*
X227010253Y-133508947D02*
G75*
G03*
X226510303Y-133008947I-499953J47D01*
G01*
X180335303Y-85096447D02*
X179335303Y-85096447D01*
X79372803Y-128746447D02*
X79372803Y-141746447D01*
X121735303Y-104146447D02*
X108735303Y-104146447D01*
X65085253Y-90646447D02*
G75*
G03*
X64585303Y-90146447I-499953J47D01*
G01*
X188467053Y-124196447D02*
X194467053Y-124196447D01*
X232060303Y-61283947D02*
X232060303Y-44233947D01*
X128879053Y-142246447D02*
X115879053Y-142246447D01*
X190791553Y-104146353D02*
G75*
G03*
X191291553Y-103646447I47J499953D01*
G01*
X89685303Y-90146403D02*
G75*
G03*
X89185303Y-90646447I-3J-499997D01*
G01*
X64585303Y-104146403D02*
G75*
G03*
X65085303Y-103646447I-3J500003D01*
G01*
X182985253Y-141746447D02*
G75*
G03*
X183485303Y-142246447I500047J47D01*
G01*
X113441803Y-47018447D02*
X128141803Y-47018447D01*
X174622753Y-71596447D02*
G75*
G03*
X174122803Y-71096447I-499953J47D01*
G01*
X150810303Y-122696447D02*
X150810303Y-109696447D01*
X245560303Y-133008947D02*
X232560303Y-133008947D01*
X227010303Y-103646447D02*
X227010303Y-90646447D01*
X105566553Y-141746447D02*
X105566553Y-128746447D01*
X178835303Y-84596447D02*
X178835303Y-71596447D01*
X62635303Y-150846447D02*
G75*
G03*
X62635303Y-150846447I-1450000J0D01*
G01*
X74897803Y-52546447D02*
X74897803Y-65546447D01*
X98710303Y-122696447D02*
X98710303Y-109696447D01*
X213010303Y-60783947D02*
X213010303Y-47783947D01*
X132491803Y-34418403D02*
G75*
G03*
X131491803Y-35418447I-3J-999997D01*
G01*
X186029053Y-123196447D02*
X171091053Y-123196447D01*
X161122803Y-71096403D02*
G75*
G03*
X160622803Y-71596447I-3J-499997D01*
G01*
X203535303Y-85096403D02*
G75*
G03*
X204035303Y-84596447I-3J500003D01*
G01*
X65872803Y-128246403D02*
G75*
G03*
X65372803Y-128746447I-3J-499997D01*
G01*
X75397803Y-52046403D02*
G75*
G03*
X74897803Y-52546447I-3J-499997D01*
G01*
X89185253Y-103646447D02*
G75*
G03*
X89685303Y-104146447I500047J47D01*
G01*
X177791553Y-104146447D02*
X190791553Y-104146447D01*
X141572753Y-84596447D02*
G75*
G03*
X142072803Y-85096447I500047J47D01*
G01*
X213010253Y-103646447D02*
G75*
G03*
X213510303Y-104146447I500047J47D01*
G01*
X141285253Y-90646447D02*
G75*
G03*
X140785303Y-90146447I-499953J47D01*
G01*
X256660303Y-153846403D02*
G75*
G03*
X258660303Y-151846447I-3J2000003D01*
G01*
X84972803Y-128746447D02*
X84972803Y-141746447D01*
X64585303Y-104146447D02*
X51585303Y-104146447D01*
M02*
