%TF.GenerationSoftware,KiCad,Pcbnew,(6.0.5)*%
%TF.CreationDate,2022-07-28T20:29:51-06:00*%
%TF.ProjectId,plate-right,706c6174-652d-4726-9967-68742e6b6963,rev?*%
%TF.SameCoordinates,Original*%
%TF.FileFunction,Legend,Bot*%
%TF.FilePolarity,Positive*%
%FSLAX46Y46*%
G04 Gerber Fmt 4.6, Leading zero omitted, Abs format (unit mm)*
G04 Created by KiCad (PCBNEW (6.0.5)) date 2022-07-28 20:29:51*
%MOMM*%
%LPD*%
G01*
G04 APERTURE LIST*
%ADD10C,0.006000*%
%ADD11C,0.150000*%
%ADD12C,0.200000*%
G04 APERTURE END LIST*
D10*
G36*
X178857318Y-146236931D02*
G01*
X175813287Y-146236931D01*
X175747803Y-146171447D01*
X178922803Y-146171447D01*
X178857318Y-146236931D01*
G37*
X178857318Y-146236931D02*
X175813287Y-146236931D01*
X175747803Y-146171447D01*
X178922803Y-146171447D01*
X178857318Y-146236931D01*
G36*
X175747803Y-149346447D02*
G01*
X174160303Y-149346447D01*
X174160303Y-146171447D01*
X175747803Y-146171447D01*
X175747803Y-149346447D01*
G37*
X175747803Y-149346447D02*
X174160303Y-149346447D01*
X174160303Y-146171447D01*
X175747803Y-146171447D01*
X175747803Y-149346447D01*
G36*
X180510302Y-149346447D02*
G01*
X178922803Y-149346447D01*
X178922803Y-146171447D01*
X180510302Y-146171447D01*
X180510302Y-149346447D01*
G37*
X180510302Y-149346447D02*
X178922803Y-149346447D01*
X178922803Y-146171447D01*
X180510302Y-146171447D01*
X180510302Y-149346447D01*
G36*
X177554907Y-146867301D02*
G01*
X177555953Y-146869264D01*
X177557094Y-146871162D01*
X177558326Y-146872991D01*
X177559646Y-146874749D01*
X177561050Y-146876434D01*
X177562536Y-146878041D01*
X177564099Y-146879569D01*
X177565737Y-146881015D01*
X177567446Y-146882375D01*
X177569224Y-146883648D01*
X177571066Y-146884830D01*
X177572969Y-146885919D01*
X177574930Y-146886912D01*
X177576946Y-146887806D01*
X177579014Y-146888598D01*
X177581130Y-146889286D01*
X177583278Y-146889863D01*
X177585443Y-146890327D01*
X177587621Y-146890677D01*
X177589806Y-146890915D01*
X177591995Y-146891040D01*
X177594184Y-146891054D01*
X177596368Y-146890957D01*
X177598543Y-146890748D01*
X177600704Y-146890430D01*
X177602848Y-146890002D01*
X177604970Y-146889465D01*
X177607065Y-146888819D01*
X177609131Y-146888065D01*
X177611161Y-146887204D01*
X177613152Y-146886235D01*
X177615100Y-146885161D01*
X177831396Y-146760145D01*
X177696459Y-147455999D01*
X177696158Y-147457757D01*
X177695931Y-147459515D01*
X177695778Y-147461269D01*
X177695696Y-147463019D01*
X177695686Y-147464761D01*
X177695747Y-147466495D01*
X177695877Y-147468219D01*
X177696076Y-147469930D01*
X177696342Y-147471627D01*
X177696675Y-147473307D01*
X177697074Y-147474970D01*
X177697538Y-147476612D01*
X177698066Y-147478233D01*
X177698657Y-147479830D01*
X177699310Y-147481401D01*
X177700025Y-147482945D01*
X177700799Y-147484460D01*
X177701634Y-147485943D01*
X177702526Y-147487393D01*
X177703477Y-147488808D01*
X177704484Y-147490186D01*
X177705547Y-147491525D01*
X177706664Y-147492824D01*
X177707836Y-147494080D01*
X177709060Y-147495291D01*
X177710337Y-147496456D01*
X177711665Y-147497573D01*
X177713043Y-147498640D01*
X177714470Y-147499655D01*
X177715946Y-147500616D01*
X177717469Y-147501521D01*
X177719039Y-147502368D01*
X177720643Y-147503150D01*
X177722266Y-147503861D01*
X177723907Y-147504500D01*
X177725563Y-147505069D01*
X177727233Y-147505568D01*
X177728914Y-147505996D01*
X177730605Y-147506355D01*
X177732303Y-147506644D01*
X177734007Y-147506864D01*
X177735713Y-147507016D01*
X177737421Y-147507099D01*
X177739128Y-147507115D01*
X177742530Y-147506944D01*
X177745904Y-147506505D01*
X177749232Y-147505801D01*
X177752499Y-147504836D01*
X177754105Y-147504256D01*
X177755688Y-147503611D01*
X177757248Y-147502903D01*
X177758782Y-147502131D01*
X177760289Y-147501295D01*
X177761765Y-147500397D01*
X177763210Y-147499435D01*
X177764620Y-147498412D01*
X177765995Y-147497326D01*
X177767331Y-147496179D01*
X177768627Y-147494971D01*
X177769881Y-147493702D01*
X178049678Y-147193400D01*
X178119131Y-147356780D01*
X178119922Y-147358518D01*
X178120782Y-147360206D01*
X178121709Y-147361844D01*
X178122700Y-147363429D01*
X178124866Y-147366438D01*
X178127263Y-147369225D01*
X178129871Y-147371781D01*
X178132674Y-147374095D01*
X178135652Y-147376159D01*
X178138789Y-147377963D01*
X178142067Y-147379498D01*
X178145466Y-147380754D01*
X178148969Y-147381722D01*
X178152559Y-147382393D01*
X178156216Y-147382757D01*
X178159924Y-147382805D01*
X178161791Y-147382708D01*
X178163664Y-147382528D01*
X178165540Y-147382264D01*
X178167417Y-147381916D01*
X178525928Y-147305848D01*
X178402896Y-147684202D01*
X178402312Y-147686138D01*
X178401822Y-147688082D01*
X178401426Y-147690030D01*
X178401122Y-147691981D01*
X178400910Y-147693932D01*
X178400788Y-147695879D01*
X178400754Y-147697821D01*
X178400809Y-147699754D01*
X178400950Y-147701676D01*
X178401176Y-147703584D01*
X178401487Y-147705474D01*
X178401881Y-147707346D01*
X178402356Y-147709195D01*
X178402913Y-147711019D01*
X178403549Y-147712815D01*
X178404263Y-147714581D01*
X178405054Y-147716314D01*
X178405922Y-147718010D01*
X178406864Y-147719668D01*
X178407880Y-147721285D01*
X178408968Y-147722857D01*
X178410128Y-147724383D01*
X178411358Y-147725859D01*
X178412656Y-147727282D01*
X178414023Y-147728651D01*
X178415456Y-147729961D01*
X178416954Y-147731211D01*
X178418517Y-147732398D01*
X178420142Y-147733519D01*
X178421830Y-147734571D01*
X178423578Y-147735551D01*
X178425386Y-147736457D01*
X178565615Y-147801942D01*
X177943183Y-148305973D01*
X177940609Y-148308238D01*
X177938249Y-148310671D01*
X177936108Y-148313258D01*
X177934189Y-148315985D01*
X177932496Y-148318836D01*
X177931033Y-148321797D01*
X177929805Y-148324854D01*
X177928815Y-148327992D01*
X177928068Y-148331196D01*
X177927566Y-148334452D01*
X177927315Y-148337746D01*
X177927318Y-148341061D01*
X177927580Y-148344385D01*
X177928104Y-148347703D01*
X177928894Y-148350999D01*
X177929954Y-148354259D01*
X178006683Y-148565926D01*
X177438490Y-148466046D01*
X177434969Y-148465542D01*
X177431445Y-148465240D01*
X177427926Y-148465136D01*
X177424420Y-148465229D01*
X177420936Y-148465517D01*
X177417480Y-148465997D01*
X177414061Y-148466666D01*
X177410687Y-148467523D01*
X177407365Y-148468566D01*
X177404104Y-148469792D01*
X177400911Y-148471199D01*
X177397795Y-148472784D01*
X177394763Y-148474546D01*
X177391823Y-148476483D01*
X177388983Y-148478591D01*
X177386251Y-148480869D01*
X177383652Y-148483298D01*
X177381208Y-148485855D01*
X177378922Y-148488532D01*
X177376798Y-148491322D01*
X177374839Y-148494218D01*
X177373047Y-148497212D01*
X177371426Y-148500296D01*
X177369980Y-148503463D01*
X177368711Y-148506705D01*
X177367623Y-148510014D01*
X177366719Y-148513384D01*
X177366002Y-148516806D01*
X177365475Y-148520273D01*
X177365142Y-148523778D01*
X177365005Y-148527312D01*
X177365068Y-148530869D01*
X177394834Y-149101707D01*
X177275771Y-149101707D01*
X177305537Y-148530869D01*
X177305600Y-148527312D01*
X177305464Y-148523778D01*
X177305131Y-148520273D01*
X177304604Y-148516806D01*
X177303887Y-148513384D01*
X177302983Y-148510014D01*
X177301894Y-148506705D01*
X177300626Y-148503463D01*
X177299179Y-148500296D01*
X177297559Y-148497212D01*
X177295767Y-148494218D01*
X177293808Y-148491322D01*
X177291683Y-148488532D01*
X177289398Y-148485855D01*
X177286954Y-148483298D01*
X177284355Y-148480869D01*
X177281623Y-148478591D01*
X177278783Y-148476483D01*
X177275843Y-148474546D01*
X177272811Y-148472784D01*
X177269694Y-148471199D01*
X177266502Y-148469792D01*
X177263241Y-148468566D01*
X177259919Y-148467523D01*
X177256545Y-148466666D01*
X177253126Y-148465997D01*
X177249670Y-148465517D01*
X177246185Y-148465229D01*
X177242680Y-148465136D01*
X177239161Y-148465240D01*
X177235637Y-148465542D01*
X177232115Y-148466046D01*
X176663923Y-148565926D01*
X176740652Y-148354259D01*
X176741216Y-148352635D01*
X176741712Y-148350999D01*
X176742141Y-148349354D01*
X176742502Y-148347703D01*
X176742797Y-148346046D01*
X176743026Y-148344385D01*
X176743189Y-148342723D01*
X176743287Y-148341061D01*
X176743321Y-148339402D01*
X176743291Y-148337746D01*
X176743197Y-148336095D01*
X176743040Y-148334452D01*
X176742820Y-148332819D01*
X176742538Y-148331196D01*
X176742195Y-148329587D01*
X176741791Y-148327992D01*
X176741326Y-148326414D01*
X176740801Y-148324854D01*
X176740216Y-148323315D01*
X176739572Y-148321797D01*
X176738870Y-148320304D01*
X176738110Y-148318836D01*
X176737292Y-148317395D01*
X176736417Y-148315985D01*
X176735486Y-148314605D01*
X176734498Y-148313258D01*
X176733455Y-148311946D01*
X176732357Y-148310671D01*
X176731204Y-148309434D01*
X176729997Y-148308238D01*
X176728736Y-148307083D01*
X176727423Y-148305973D01*
X176104990Y-147801942D01*
X176245220Y-147736457D01*
X176247027Y-147735551D01*
X176248776Y-147734571D01*
X176250463Y-147733519D01*
X176252089Y-147732398D01*
X176253651Y-147731211D01*
X176255150Y-147729961D01*
X176256583Y-147728651D01*
X176257949Y-147727282D01*
X176259248Y-147725859D01*
X176260478Y-147724383D01*
X176262726Y-147721285D01*
X176264684Y-147718010D01*
X176266343Y-147714581D01*
X176267693Y-147711019D01*
X176268725Y-147707346D01*
X176269429Y-147703584D01*
X176269656Y-147701676D01*
X176269797Y-147699754D01*
X176269851Y-147697821D01*
X176269818Y-147695879D01*
X176269696Y-147693932D01*
X176269483Y-147691981D01*
X176269180Y-147690030D01*
X176268784Y-147688082D01*
X176268294Y-147686138D01*
X176267709Y-147684202D01*
X176144678Y-147305848D01*
X176503188Y-147381916D01*
X176505066Y-147382264D01*
X176506942Y-147382528D01*
X176508815Y-147382708D01*
X176510682Y-147382805D01*
X176512541Y-147382822D01*
X176514389Y-147382757D01*
X176516226Y-147382614D01*
X176518047Y-147382393D01*
X176519851Y-147382096D01*
X176521636Y-147381722D01*
X176523400Y-147381275D01*
X176525140Y-147380754D01*
X176526854Y-147380161D01*
X176528539Y-147379498D01*
X176530194Y-147378765D01*
X176531816Y-147377963D01*
X176533403Y-147377094D01*
X176534953Y-147376159D01*
X176536463Y-147375159D01*
X176537932Y-147374095D01*
X176539356Y-147372969D01*
X176540735Y-147371781D01*
X176542064Y-147370533D01*
X176543343Y-147369225D01*
X176544569Y-147367860D01*
X176545739Y-147366438D01*
X176546852Y-147364961D01*
X176547905Y-147363429D01*
X176548896Y-147361844D01*
X176549823Y-147360206D01*
X176550683Y-147358518D01*
X176551475Y-147356780D01*
X176620928Y-147193400D01*
X176900725Y-147493702D01*
X176903275Y-147496179D01*
X176905985Y-147498412D01*
X176908840Y-147500397D01*
X176911823Y-147502131D01*
X176914917Y-147503611D01*
X176918106Y-147504836D01*
X176921373Y-147505801D01*
X176924702Y-147506505D01*
X176928076Y-147506944D01*
X176931478Y-147507115D01*
X176934892Y-147507016D01*
X176938302Y-147506644D01*
X176941691Y-147505996D01*
X176945042Y-147505069D01*
X176948340Y-147503861D01*
X176951566Y-147502368D01*
X176954659Y-147500616D01*
X176957563Y-147498640D01*
X176960268Y-147496456D01*
X176962770Y-147494080D01*
X176965059Y-147491525D01*
X176967129Y-147488808D01*
X176968972Y-147485943D01*
X176970581Y-147482945D01*
X176971949Y-147479830D01*
X176973068Y-147476612D01*
X176973930Y-147473307D01*
X176974530Y-147469930D01*
X176974859Y-147466495D01*
X176974909Y-147463019D01*
X176974674Y-147459515D01*
X176974147Y-147455999D01*
X176839209Y-146760145D01*
X177055506Y-146885161D01*
X177057454Y-146886235D01*
X177059445Y-146887204D01*
X177061475Y-146888065D01*
X177063540Y-146888819D01*
X177065636Y-146889465D01*
X177067758Y-146890002D01*
X177069901Y-146890430D01*
X177072063Y-146890748D01*
X177074238Y-146890957D01*
X177076421Y-146891054D01*
X177078610Y-146891040D01*
X177080799Y-146890915D01*
X177082985Y-146890677D01*
X177085162Y-146890327D01*
X177087327Y-146889863D01*
X177089476Y-146889286D01*
X177091591Y-146888598D01*
X177093659Y-146887806D01*
X177095675Y-146886912D01*
X177097637Y-146885919D01*
X177099540Y-146884830D01*
X177101382Y-146883648D01*
X177103159Y-146882375D01*
X177104869Y-146881015D01*
X177106507Y-146879569D01*
X177108070Y-146878041D01*
X177109556Y-146876434D01*
X177110960Y-146874749D01*
X177112280Y-146872991D01*
X177113512Y-146871162D01*
X177114652Y-146869264D01*
X177115699Y-146867301D01*
X177335303Y-146436030D01*
X177554907Y-146867301D01*
G37*
X177554907Y-146867301D02*
X177555953Y-146869264D01*
X177557094Y-146871162D01*
X177558326Y-146872991D01*
X177559646Y-146874749D01*
X177561050Y-146876434D01*
X177562536Y-146878041D01*
X177564099Y-146879569D01*
X177565737Y-146881015D01*
X177567446Y-146882375D01*
X177569224Y-146883648D01*
X177571066Y-146884830D01*
X177572969Y-146885919D01*
X177574930Y-146886912D01*
X177576946Y-146887806D01*
X177579014Y-146888598D01*
X177581130Y-146889286D01*
X177583278Y-146889863D01*
X177585443Y-146890327D01*
X177587621Y-146890677D01*
X177589806Y-146890915D01*
X177591995Y-146891040D01*
X177594184Y-146891054D01*
X177596368Y-146890957D01*
X177598543Y-146890748D01*
X177600704Y-146890430D01*
X177602848Y-146890002D01*
X177604970Y-146889465D01*
X177607065Y-146888819D01*
X177609131Y-146888065D01*
X177611161Y-146887204D01*
X177613152Y-146886235D01*
X177615100Y-146885161D01*
X177831396Y-146760145D01*
X177696459Y-147455999D01*
X177696158Y-147457757D01*
X177695931Y-147459515D01*
X177695778Y-147461269D01*
X177695696Y-147463019D01*
X177695686Y-147464761D01*
X177695747Y-147466495D01*
X177695877Y-147468219D01*
X177696076Y-147469930D01*
X177696342Y-147471627D01*
X177696675Y-147473307D01*
X177697074Y-147474970D01*
X177697538Y-147476612D01*
X177698066Y-147478233D01*
X177698657Y-147479830D01*
X177699310Y-147481401D01*
X177700025Y-147482945D01*
X177700799Y-147484460D01*
X177701634Y-147485943D01*
X177702526Y-147487393D01*
X177703477Y-147488808D01*
X177704484Y-147490186D01*
X177705547Y-147491525D01*
X177706664Y-147492824D01*
X177707836Y-147494080D01*
X177709060Y-147495291D01*
X177710337Y-147496456D01*
X177711665Y-147497573D01*
X177713043Y-147498640D01*
X177714470Y-147499655D01*
X177715946Y-147500616D01*
X177717469Y-147501521D01*
X177719039Y-147502368D01*
X177720643Y-147503150D01*
X177722266Y-147503861D01*
X177723907Y-147504500D01*
X177725563Y-147505069D01*
X177727233Y-147505568D01*
X177728914Y-147505996D01*
X177730605Y-147506355D01*
X177732303Y-147506644D01*
X177734007Y-147506864D01*
X177735713Y-147507016D01*
X177737421Y-147507099D01*
X177739128Y-147507115D01*
X177742530Y-147506944D01*
X177745904Y-147506505D01*
X177749232Y-147505801D01*
X177752499Y-147504836D01*
X177754105Y-147504256D01*
X177755688Y-147503611D01*
X177757248Y-147502903D01*
X177758782Y-147502131D01*
X177760289Y-147501295D01*
X177761765Y-147500397D01*
X177763210Y-147499435D01*
X177764620Y-147498412D01*
X177765995Y-147497326D01*
X177767331Y-147496179D01*
X177768627Y-147494971D01*
X177769881Y-147493702D01*
X178049678Y-147193400D01*
X178119131Y-147356780D01*
X178119922Y-147358518D01*
X178120782Y-147360206D01*
X178121709Y-147361844D01*
X178122700Y-147363429D01*
X178124866Y-147366438D01*
X178127263Y-147369225D01*
X178129871Y-147371781D01*
X178132674Y-147374095D01*
X178135652Y-147376159D01*
X178138789Y-147377963D01*
X178142067Y-147379498D01*
X178145466Y-147380754D01*
X178148969Y-147381722D01*
X178152559Y-147382393D01*
X178156216Y-147382757D01*
X178159924Y-147382805D01*
X178161791Y-147382708D01*
X178163664Y-147382528D01*
X178165540Y-147382264D01*
X178167417Y-147381916D01*
X178525928Y-147305848D01*
X178402896Y-147684202D01*
X178402312Y-147686138D01*
X178401822Y-147688082D01*
X178401426Y-147690030D01*
X178401122Y-147691981D01*
X178400910Y-147693932D01*
X178400788Y-147695879D01*
X178400754Y-147697821D01*
X178400809Y-147699754D01*
X178400950Y-147701676D01*
X178401176Y-147703584D01*
X178401487Y-147705474D01*
X178401881Y-147707346D01*
X178402356Y-147709195D01*
X178402913Y-147711019D01*
X178403549Y-147712815D01*
X178404263Y-147714581D01*
X178405054Y-147716314D01*
X178405922Y-147718010D01*
X178406864Y-147719668D01*
X178407880Y-147721285D01*
X178408968Y-147722857D01*
X178410128Y-147724383D01*
X178411358Y-147725859D01*
X178412656Y-147727282D01*
X178414023Y-147728651D01*
X178415456Y-147729961D01*
X178416954Y-147731211D01*
X178418517Y-147732398D01*
X178420142Y-147733519D01*
X178421830Y-147734571D01*
X178423578Y-147735551D01*
X178425386Y-147736457D01*
X178565615Y-147801942D01*
X177943183Y-148305973D01*
X177940609Y-148308238D01*
X177938249Y-148310671D01*
X177936108Y-148313258D01*
X177934189Y-148315985D01*
X177932496Y-148318836D01*
X177931033Y-148321797D01*
X177929805Y-148324854D01*
X177928815Y-148327992D01*
X177928068Y-148331196D01*
X177927566Y-148334452D01*
X177927315Y-148337746D01*
X177927318Y-148341061D01*
X177927580Y-148344385D01*
X177928104Y-148347703D01*
X177928894Y-148350999D01*
X177929954Y-148354259D01*
X178006683Y-148565926D01*
X177438490Y-148466046D01*
X177434969Y-148465542D01*
X177431445Y-148465240D01*
X177427926Y-148465136D01*
X177424420Y-148465229D01*
X177420936Y-148465517D01*
X177417480Y-148465997D01*
X177414061Y-148466666D01*
X177410687Y-148467523D01*
X177407365Y-148468566D01*
X177404104Y-148469792D01*
X177400911Y-148471199D01*
X177397795Y-148472784D01*
X177394763Y-148474546D01*
X177391823Y-148476483D01*
X177388983Y-148478591D01*
X177386251Y-148480869D01*
X177383652Y-148483298D01*
X177381208Y-148485855D01*
X177378922Y-148488532D01*
X177376798Y-148491322D01*
X177374839Y-148494218D01*
X177373047Y-148497212D01*
X177371426Y-148500296D01*
X177369980Y-148503463D01*
X177368711Y-148506705D01*
X177367623Y-148510014D01*
X177366719Y-148513384D01*
X177366002Y-148516806D01*
X177365475Y-148520273D01*
X177365142Y-148523778D01*
X177365005Y-148527312D01*
X177365068Y-148530869D01*
X177394834Y-149101707D01*
X177275771Y-149101707D01*
X177305537Y-148530869D01*
X177305600Y-148527312D01*
X177305464Y-148523778D01*
X177305131Y-148520273D01*
X177304604Y-148516806D01*
X177303887Y-148513384D01*
X177302983Y-148510014D01*
X177301894Y-148506705D01*
X177300626Y-148503463D01*
X177299179Y-148500296D01*
X177297559Y-148497212D01*
X177295767Y-148494218D01*
X177293808Y-148491322D01*
X177291683Y-148488532D01*
X177289398Y-148485855D01*
X177286954Y-148483298D01*
X177284355Y-148480869D01*
X177281623Y-148478591D01*
X177278783Y-148476483D01*
X177275843Y-148474546D01*
X177272811Y-148472784D01*
X177269694Y-148471199D01*
X177266502Y-148469792D01*
X177263241Y-148468566D01*
X177259919Y-148467523D01*
X177256545Y-148466666D01*
X177253126Y-148465997D01*
X177249670Y-148465517D01*
X177246185Y-148465229D01*
X177242680Y-148465136D01*
X177239161Y-148465240D01*
X177235637Y-148465542D01*
X177232115Y-148466046D01*
X176663923Y-148565926D01*
X176740652Y-148354259D01*
X176741216Y-148352635D01*
X176741712Y-148350999D01*
X176742141Y-148349354D01*
X176742502Y-148347703D01*
X176742797Y-148346046D01*
X176743026Y-148344385D01*
X176743189Y-148342723D01*
X176743287Y-148341061D01*
X176743321Y-148339402D01*
X176743291Y-148337746D01*
X176743197Y-148336095D01*
X176743040Y-148334452D01*
X176742820Y-148332819D01*
X176742538Y-148331196D01*
X176742195Y-148329587D01*
X176741791Y-148327992D01*
X176741326Y-148326414D01*
X176740801Y-148324854D01*
X176740216Y-148323315D01*
X176739572Y-148321797D01*
X176738870Y-148320304D01*
X176738110Y-148318836D01*
X176737292Y-148317395D01*
X176736417Y-148315985D01*
X176735486Y-148314605D01*
X176734498Y-148313258D01*
X176733455Y-148311946D01*
X176732357Y-148310671D01*
X176731204Y-148309434D01*
X176729997Y-148308238D01*
X176728736Y-148307083D01*
X176727423Y-148305973D01*
X176104990Y-147801942D01*
X176245220Y-147736457D01*
X176247027Y-147735551D01*
X176248776Y-147734571D01*
X176250463Y-147733519D01*
X176252089Y-147732398D01*
X176253651Y-147731211D01*
X176255150Y-147729961D01*
X176256583Y-147728651D01*
X176257949Y-147727282D01*
X176259248Y-147725859D01*
X176260478Y-147724383D01*
X176262726Y-147721285D01*
X176264684Y-147718010D01*
X176266343Y-147714581D01*
X176267693Y-147711019D01*
X176268725Y-147707346D01*
X176269429Y-147703584D01*
X176269656Y-147701676D01*
X176269797Y-147699754D01*
X176269851Y-147697821D01*
X176269818Y-147695879D01*
X176269696Y-147693932D01*
X176269483Y-147691981D01*
X176269180Y-147690030D01*
X176268784Y-147688082D01*
X176268294Y-147686138D01*
X176267709Y-147684202D01*
X176144678Y-147305848D01*
X176503188Y-147381916D01*
X176505066Y-147382264D01*
X176506942Y-147382528D01*
X176508815Y-147382708D01*
X176510682Y-147382805D01*
X176512541Y-147382822D01*
X176514389Y-147382757D01*
X176516226Y-147382614D01*
X176518047Y-147382393D01*
X176519851Y-147382096D01*
X176521636Y-147381722D01*
X176523400Y-147381275D01*
X176525140Y-147380754D01*
X176526854Y-147380161D01*
X176528539Y-147379498D01*
X176530194Y-147378765D01*
X176531816Y-147377963D01*
X176533403Y-147377094D01*
X176534953Y-147376159D01*
X176536463Y-147375159D01*
X176537932Y-147374095D01*
X176539356Y-147372969D01*
X176540735Y-147371781D01*
X176542064Y-147370533D01*
X176543343Y-147369225D01*
X176544569Y-147367860D01*
X176545739Y-147366438D01*
X176546852Y-147364961D01*
X176547905Y-147363429D01*
X176548896Y-147361844D01*
X176549823Y-147360206D01*
X176550683Y-147358518D01*
X176551475Y-147356780D01*
X176620928Y-147193400D01*
X176900725Y-147493702D01*
X176903275Y-147496179D01*
X176905985Y-147498412D01*
X176908840Y-147500397D01*
X176911823Y-147502131D01*
X176914917Y-147503611D01*
X176918106Y-147504836D01*
X176921373Y-147505801D01*
X176924702Y-147506505D01*
X176928076Y-147506944D01*
X176931478Y-147507115D01*
X176934892Y-147507016D01*
X176938302Y-147506644D01*
X176941691Y-147505996D01*
X176945042Y-147505069D01*
X176948340Y-147503861D01*
X176951566Y-147502368D01*
X176954659Y-147500616D01*
X176957563Y-147498640D01*
X176960268Y-147496456D01*
X176962770Y-147494080D01*
X176965059Y-147491525D01*
X176967129Y-147488808D01*
X176968972Y-147485943D01*
X176970581Y-147482945D01*
X176971949Y-147479830D01*
X176973068Y-147476612D01*
X176973930Y-147473307D01*
X176974530Y-147469930D01*
X176974859Y-147466495D01*
X176974909Y-147463019D01*
X176974674Y-147459515D01*
X176974147Y-147455999D01*
X176839209Y-146760145D01*
X177055506Y-146885161D01*
X177057454Y-146886235D01*
X177059445Y-146887204D01*
X177061475Y-146888065D01*
X177063540Y-146888819D01*
X177065636Y-146889465D01*
X177067758Y-146890002D01*
X177069901Y-146890430D01*
X177072063Y-146890748D01*
X177074238Y-146890957D01*
X177076421Y-146891054D01*
X177078610Y-146891040D01*
X177080799Y-146890915D01*
X177082985Y-146890677D01*
X177085162Y-146890327D01*
X177087327Y-146889863D01*
X177089476Y-146889286D01*
X177091591Y-146888598D01*
X177093659Y-146887806D01*
X177095675Y-146886912D01*
X177097637Y-146885919D01*
X177099540Y-146884830D01*
X177101382Y-146883648D01*
X177103159Y-146882375D01*
X177104869Y-146881015D01*
X177106507Y-146879569D01*
X177108070Y-146878041D01*
X177109556Y-146876434D01*
X177110960Y-146874749D01*
X177112280Y-146872991D01*
X177113512Y-146871162D01*
X177114652Y-146869264D01*
X177115699Y-146867301D01*
X177335303Y-146436030D01*
X177554907Y-146867301D01*
G36*
X178922803Y-149346447D02*
G01*
X175747803Y-149346447D01*
X175813287Y-149280962D01*
X178857318Y-149280962D01*
X178922803Y-149346447D01*
G37*
X178922803Y-149346447D02*
X175747803Y-149346447D01*
X175813287Y-149280962D01*
X178857318Y-149280962D01*
X178922803Y-149346447D01*
D11*
X171827682Y-149662101D02*
X172094349Y-149281149D01*
X172284825Y-149662101D02*
X172284825Y-148862101D01*
X171980063Y-148862101D01*
X171903873Y-148900197D01*
X171865778Y-148938292D01*
X171827682Y-149014482D01*
X171827682Y-149128768D01*
X171865778Y-149204958D01*
X171903873Y-149243054D01*
X171980063Y-149281149D01*
X172284825Y-149281149D01*
X171484825Y-149662101D02*
X171484825Y-149128768D01*
X171484825Y-148862101D02*
X171522921Y-148900197D01*
X171484825Y-148938292D01*
X171446730Y-148900197D01*
X171484825Y-148862101D01*
X171484825Y-148938292D01*
X170761016Y-149128768D02*
X170761016Y-149776387D01*
X170799111Y-149852577D01*
X170837206Y-149890673D01*
X170913397Y-149928768D01*
X171027682Y-149928768D01*
X171103873Y-149890673D01*
X170761016Y-149624006D02*
X170837206Y-149662101D01*
X170989587Y-149662101D01*
X171065778Y-149624006D01*
X171103873Y-149585911D01*
X171141968Y-149509720D01*
X171141968Y-149281149D01*
X171103873Y-149204958D01*
X171065778Y-149166863D01*
X170989587Y-149128768D01*
X170837206Y-149128768D01*
X170761016Y-149166863D01*
X170380063Y-149662101D02*
X170380063Y-148862101D01*
X170037206Y-149662101D02*
X170037206Y-149243054D01*
X170075302Y-149166863D01*
X170151492Y-149128768D01*
X170265778Y-149128768D01*
X170341968Y-149166863D01*
X170380063Y-149204958D01*
X169770540Y-149128768D02*
X169465778Y-149128768D01*
X169656254Y-148862101D02*
X169656254Y-149547816D01*
X169618159Y-149624006D01*
X169541968Y-149662101D01*
X169465778Y-149662101D01*
X168589587Y-149662101D02*
X168589587Y-148862101D01*
X168284825Y-148862101D01*
X168208635Y-148900197D01*
X168170540Y-148938292D01*
X168132444Y-149014482D01*
X168132444Y-149128768D01*
X168170540Y-149204958D01*
X168208635Y-149243054D01*
X168284825Y-149281149D01*
X168589587Y-149281149D01*
X167675302Y-149662101D02*
X167751492Y-149624006D01*
X167789587Y-149547816D01*
X167789587Y-148862101D01*
X167027682Y-149662101D02*
X167027682Y-149243054D01*
X167065778Y-149166863D01*
X167141968Y-149128768D01*
X167294349Y-149128768D01*
X167370540Y-149166863D01*
X167027682Y-149624006D02*
X167103873Y-149662101D01*
X167294349Y-149662101D01*
X167370540Y-149624006D01*
X167408635Y-149547816D01*
X167408635Y-149471625D01*
X167370540Y-149395435D01*
X167294349Y-149357339D01*
X167103873Y-149357339D01*
X167027682Y-149319244D01*
X166761016Y-149128768D02*
X166456254Y-149128768D01*
X166646730Y-148862101D02*
X166646730Y-149547816D01*
X166608635Y-149624006D01*
X166532444Y-149662101D01*
X166456254Y-149662101D01*
X165884825Y-149624006D02*
X165961016Y-149662101D01*
X166113397Y-149662101D01*
X166189587Y-149624006D01*
X166227682Y-149547816D01*
X166227682Y-149243054D01*
X166189587Y-149166863D01*
X166113397Y-149128768D01*
X165961016Y-149128768D01*
X165884825Y-149166863D01*
X165846730Y-149243054D01*
X165846730Y-149319244D01*
X166227682Y-149395435D01*
X164894349Y-149662101D02*
X164894349Y-149128768D01*
X164894349Y-149281149D02*
X164856254Y-149204958D01*
X164818159Y-149166863D01*
X164741968Y-149128768D01*
X164665778Y-149128768D01*
X164094349Y-149624006D02*
X164170540Y-149662101D01*
X164322921Y-149662101D01*
X164399111Y-149624006D01*
X164437206Y-149547816D01*
X164437206Y-149243054D01*
X164399111Y-149166863D01*
X164322921Y-149128768D01*
X164170540Y-149128768D01*
X164094349Y-149166863D01*
X164056254Y-149243054D01*
X164056254Y-149319244D01*
X164437206Y-149395435D01*
X163789587Y-149128768D02*
X163599111Y-149662101D01*
X163408635Y-149128768D01*
X163103873Y-149585911D02*
X163065778Y-149624006D01*
X163103873Y-149662101D01*
X163141968Y-149624006D01*
X163103873Y-149585911D01*
X163103873Y-149662101D01*
X161694349Y-149662101D02*
X162151492Y-149662101D01*
X161922921Y-149662101D02*
X161922921Y-148862101D01*
X161999111Y-148976387D01*
X162075302Y-149052577D01*
X162151492Y-149090673D01*
D12*
X172214230Y-147450911D02*
X172042802Y-147508054D01*
X171757087Y-147508054D01*
X171642802Y-147450911D01*
X171585659Y-147393768D01*
X171528516Y-147279482D01*
X171528516Y-147165197D01*
X171585659Y-147050911D01*
X171642802Y-146993768D01*
X171757087Y-146936625D01*
X171985659Y-146879482D01*
X172099944Y-146822339D01*
X172157087Y-146765197D01*
X172214230Y-146650911D01*
X172214230Y-146536625D01*
X172157087Y-146422339D01*
X172099944Y-146365197D01*
X171985659Y-146308054D01*
X171699944Y-146308054D01*
X171528516Y-146365197D01*
X171014230Y-146708054D02*
X171014230Y-147908054D01*
X171014230Y-146765197D02*
X170899944Y-146708054D01*
X170671373Y-146708054D01*
X170557087Y-146765197D01*
X170499944Y-146822339D01*
X170442802Y-146936625D01*
X170442802Y-147279482D01*
X170499944Y-147393768D01*
X170557087Y-147450911D01*
X170671373Y-147508054D01*
X170899944Y-147508054D01*
X171014230Y-147450911D01*
X169414230Y-147508054D02*
X169414230Y-146879482D01*
X169471373Y-146765197D01*
X169585659Y-146708054D01*
X169814230Y-146708054D01*
X169928516Y-146765197D01*
X169414230Y-147450911D02*
X169528516Y-147508054D01*
X169814230Y-147508054D01*
X169928516Y-147450911D01*
X169985659Y-147336625D01*
X169985659Y-147222339D01*
X169928516Y-147108054D01*
X169814230Y-147050911D01*
X169528516Y-147050911D01*
X169414230Y-146993768D01*
X168842802Y-147508054D02*
X168842802Y-146708054D01*
X168842802Y-146936625D02*
X168785659Y-146822339D01*
X168728516Y-146765197D01*
X168614230Y-146708054D01*
X168499944Y-146708054D01*
X168214230Y-146708054D02*
X167985659Y-147508054D01*
X167757087Y-146936625D01*
X167528516Y-147508054D01*
X167299944Y-146708054D01*
X166671373Y-147508054D02*
X166785659Y-147450911D01*
X166842802Y-147393768D01*
X166899944Y-147279482D01*
X166899944Y-146936625D01*
X166842802Y-146822339D01*
X166785659Y-146765197D01*
X166671373Y-146708054D01*
X166499944Y-146708054D01*
X166385659Y-146765197D01*
X166328516Y-146822339D01*
X166271373Y-146936625D01*
X166271373Y-147279482D01*
X166328516Y-147393768D01*
X166385659Y-147450911D01*
X166499944Y-147508054D01*
X166671373Y-147508054D01*
X165585659Y-147508054D02*
X165699944Y-147450911D01*
X165757087Y-147393768D01*
X165814230Y-147279482D01*
X165814230Y-146936625D01*
X165757087Y-146822339D01*
X165699944Y-146765197D01*
X165585659Y-146708054D01*
X165414230Y-146708054D01*
X165299944Y-146765197D01*
X165242802Y-146822339D01*
X165185659Y-146936625D01*
X165185659Y-147279482D01*
X165242802Y-147393768D01*
X165299944Y-147450911D01*
X165414230Y-147508054D01*
X165585659Y-147508054D01*
X164157087Y-147508054D02*
X164157087Y-146308054D01*
X164157087Y-147450911D02*
X164271373Y-147508054D01*
X164499944Y-147508054D01*
X164614230Y-147450911D01*
X164671373Y-147393768D01*
X164728516Y-147279482D01*
X164728516Y-146936625D01*
X164671373Y-146822339D01*
X164614230Y-146765197D01*
X164499944Y-146708054D01*
X164271373Y-146708054D01*
X164157087Y-146765197D01*
%LPC*%
M02*
